<svg xmlns="http://www.w3.org/2000/svg" version="1.1" xmlns:xlink="http://www.w3.org/1999/xlink" width="512" height="512" x="0" y="0" viewBox="0 0 64 64" style="enable-background:new 0 0 512 512" xml:space="preserve" class=""><g><path d="M60 32C60.047 9.133 33.654-4.035 15.526 9.379c-17.381 12.488-14.433 39.617 5.08 48.188C38.76 65.86 60.106 52.188 60 32zm-2.222-3.338-13.8 7.654V8.935a26.052 26.052 0 0 1 13.8 19.727zm-35.83 8.492v-11.21l9.805-5.788 10.225 5.73v11.54l-9.95 5.518zm20.03-29.16v15.599L17.96 10.133a25.93 25.93 0 0 1 24.017-2.14zM16.149 11.41l13.585 7.614-23.708 14A25.971 25.971 0 0 1 16.149 11.41zM6.21 35.24l13.74-8.113v27.901A26.05 26.05 0 0 1 6.209 35.24zm15.74 20.738V39.46l24.557 14.107a25.962 25.962 0 0 1-24.557 2.41zm26.31-3.71-14.206-8.16 23.918-13.265a25.982 25.982 0 0 1-9.712 21.425z" fill="#DA9C28" opacity="1" data-original="#000000" class=""></path></g></svg>