<svg xmlns="http://www.w3.org/2000/svg" version="1.1" xmlns:xlink="http://www.w3.org/1999/xlink" width="512" height="512" x="0" y="0" viewBox="0 0 512 512" style="enable-background:new 0 0 512 512" xml:space="preserve" class=""><g><path d="M509.644 336.136a7.5 7.5 0 1 0-14.363 4.327 40.639 40.639 0 0 1 1.718 11.73c0 22.385-18.211 40.597-40.597 40.597s-40.597-18.212-40.597-40.597 18.211-40.597 40.597-40.597c7.617 0 15.039 2.12 21.462 6.129a7.498 7.498 0 0 0 10.333-2.39 7.498 7.498 0 0 0-2.39-10.333 55.462 55.462 0 0 0-29.405-8.406c-19.362 0-36.435 9.955-46.394 25.009l-79.282-38.055a79.262 79.262 0 0 0 4.917-27.55c0-19.263-6.877-36.949-18.301-50.738l17.798-17.798a105.383 105.383 0 0 1 7.133 9.224 7.486 7.486 0 0 0 5.616 3.233 7.501 7.501 0 0 0 6.751-11.724 120.705 120.705 0 0 0-8.869-11.363l40.378-40.378a39.335 39.335 0 0 0 22.156 6.802c21.816 0 39.564-17.749 39.564-39.565s-17.749-39.564-39.564-39.564c-21.816 0-39.565 17.749-39.565 39.564a39.34 39.34 0 0 0 6.802 22.156l-68.806 68.806c-13.788-11.424-31.474-18.301-50.738-18.301s-36.949 6.877-50.738 18.301l-17.837-17.836c.387-.334.768-.677 1.159-1.006a7.5 7.5 0 0 0-9.641-11.491c-.726.609-1.437 1.238-2.15 1.865l-63.242-63.242c8.551-10.833 13.674-24.492 13.674-39.333 0-4.678-.511-9.347-1.52-13.877a7.5 7.5 0 1 0-14.641 3.259 48.928 48.928 0 0 1 1.161 10.618c0 26.805-21.808 48.613-48.613 48.613S15 90.418 15 63.613 36.808 15 63.613 15a48.562 48.562 0 0 1 32.031 12.044 7.501 7.501 0 0 0 9.889-11.279A63.562 63.562 0 0 0 63.613 0C28.537 0 0 28.537 0 63.613s28.537 63.613 63.613 63.613c14.841 0 28.5-5.123 39.333-13.674l63.422 63.422a7.5 7.5 0 0 0 6.145 10.797 7.51 7.51 0 0 0 3.893-.758l18.25 18.25c-11.424 13.789-18.301 31.474-18.301 50.738s6.877 36.949 18.301 50.738L47.908 453.485a31.362 31.362 0 0 0-16.36-4.582C14.152 448.903 0 463.056 0 480.452S14.152 512 31.548 512s31.548-14.152 31.548-31.548a31.364 31.364 0 0 0-4.582-16.36L176.79 345.816a118.88 118.88 0 0 0 7.318 5.983 7.493 7.493 0 0 0 10.501-1.495 7.5 7.5 0 0 0-1.495-10.501 104.472 104.472 0 0 1-5.7-4.611l17.849-17.849c11.977 9.924 26.898 16.403 43.237 17.937v66.248c-18.24 3.516-32.064 19.591-32.064 38.842 0 21.816 17.749 39.564 39.564 39.564s39.564-17.749 39.564-39.564c0-19.251-13.824-35.327-32.065-38.842v-26.021a119.459 119.459 0 0 0 15.121-1.92 7.5 7.5 0 0 0-2.846-14.728 104.225 104.225 0 0 1-12.275 1.607V335.28c25.753-2.417 47.98-17.138 60.717-38.218l22.653 10.873c-2.267 4.517-6.599 10.392-9.355 13.805a7.5 7.5 0 0 0 11.671 9.424c3.02-3.74 8.321-11.255 11.111-16.784l43.205 20.738a55.358 55.358 0 0 0-2.693 17.074c0 30.656 24.94 55.597 55.597 55.597S512 382.85 512 352.193c0-5.465-.792-10.867-2.356-16.057zM408.307 79.129c13.545 0 24.564 11.02 24.564 24.564s-11.02 24.565-24.564 24.565-24.565-11.02-24.565-24.565 11.02-24.564 24.565-24.564zM31.548 497C22.423 497 15 489.577 15 480.452s7.423-16.548 16.548-16.548 16.548 7.423 16.548 16.548S40.673 497 31.548 497zm249.016-56.629c0 13.545-11.02 24.564-24.564 24.564s-24.564-11.02-24.564-24.564 11.02-24.564 24.564-24.564 24.564 11.019 24.564 24.564zM256 320.645c-35.646 0-64.645-29-64.645-64.645s29-64.645 64.645-64.645 64.645 29 64.645 64.645-28.999 64.645-64.645 64.645z" fill="#DA9C28" opacity="1" data-original="#000000" class=""></path><path d="M315.721 342.001a105.732 105.732 0 0 1-11.829 7.113 7.5 7.5 0 0 0 2.871 14.146 7.455 7.455 0 0 0 4-.813 120.714 120.714 0 0 0 13.514-8.126 7.5 7.5 0 1 0-8.556-12.32zM298.691 160.362a104.505 104.505 0 0 1 12.198 6.433 7.5 7.5 0 0 0 10.319-2.455 7.5 7.5 0 0 0-2.456-10.318 119.352 119.352 0 0 0-13.958-7.362 7.5 7.5 0 0 0-6.103 13.702zM255.743 151.224c.181.014.364.021.548.022 4.578.019 9.204.345 13.764.969a7.501 7.501 0 0 0 2.036-14.862 120.365 120.365 0 0 0-15.737-1.108 7.499 7.499 0 0 0-7.531 7.468 7.5 7.5 0 0 0 6.92 7.511zM229.056 372.661a7.501 7.501 0 0 0 3.377-14.615l-.535-.125a106.24 106.24 0 0 1-12.693-3.847 7.5 7.5 0 1 0-5.244 14.054 121.335 121.335 0 0 0 14.489 4.392zM210.278 160.713a7.467 7.467 0 0 0 3.586-.615 105.232 105.232 0 0 1 12.973-4.716 7.498 7.498 0 0 0 5.11-9.294 7.499 7.499 0 0 0-9.294-5.11 120.28 120.28 0 0 0-14.828 5.39 7.5 7.5 0 0 0 2.453 14.345zM158.434 199.906a7.501 7.501 0 0 0-10.031 3.448 119.704 119.704 0 0 0-5.97 14.602 7.5 7.5 0 0 0 4.739 9.489c.599.2 1.206.321 1.808.367a7.504 7.504 0 0 0 7.681-5.106 104.666 104.666 0 0 1 5.221-12.768 7.502 7.502 0 0 0-3.448-10.032zM148.898 290.521a7.5 7.5 0 0 0-4.188 9.745c1.942 4.87 4.228 9.66 6.792 14.235a7.492 7.492 0 0 0 5.977 3.813 7.499 7.499 0 0 0 7.107-11.146 105.523 105.523 0 0 1-5.945-12.458 7.495 7.495 0 0 0-9.743-4.189zM365.722 242.821a7.5 7.5 0 0 0 7.948-8.863 120.006 120.006 0 0 0-3.932-15.285 7.5 7.5 0 0 0-14.248 4.687 104.734 104.734 0 0 1 3.438 13.365 7.503 7.503 0 0 0 6.794 6.096zM362.424 292.295a7.503 7.503 0 0 0 9.184-5.306 121.256 121.256 0 0 0 3.494-19.031 7.5 7.5 0 0 0-6.703-8.22c-4.13-.443-7.801 2.582-8.22 6.703a106.31 106.31 0 0 1-3.061 16.671 7.498 7.498 0 0 0 5.306 9.183zM136.303 251.402a119.34 119.34 0 0 0 .427 15.786 7.501 7.501 0 1 0 14.935-1.399c-.428-4.568-.553-9.21-.372-13.797.162-4.139-3.058-7.652-7.199-7.789a7.499 7.499 0 0 0-7.791 7.199z" fill="#DA9C28" opacity="1" data-original="#000000" class=""></path></g></svg>