<svg xmlns="http://www.w3.org/2000/svg" version="1.1" xmlns:xlink="http://www.w3.org/1999/xlink" width="512" height="512" x="0" y="0" viewBox="0 0 500 500" style="enable-background:new 0 0 512 512" xml:space="preserve" class=""><g><path d="m141.4 221.8 51.1 5.7 8.1-30.3c1.8-6.6 10.9-7.7 14.1-1.6l11.7 22.3h44.1c7 0 8.7-7.1 6.9-11.7-1-2.5-3.3-4.4-6.9-4.4h-30c-2.8 0-5.5-1.5-6.8-4.2l-16.5-32.4-61.5-20-62.3 14-10.8 40.4c-.9 3.5.3 6.3 2.5 7.9 3.9 2.9 11.3 3.1 13.1-3.7l7.2-26.7c.7-2.7 2.8-4.9 5.7-5.5l33.6-7.4c6.4-1.7 11 4 9.6 9.3zm54.5 21.5-58.5-6.5-4.9 18.3v122.1h27.7V268.6c0-5.6 6-9.4 11.1-6.8l40.3 20.7c2.7 1.2 4.6 3.9 4.6 7v24.7H244v-45.7zm5.1 71v-20l-25.5-13.1v96h10.7V322c0-4.2 3.4-7.6 7.6-7.6h7.2zm-83.8 62.8V254c0-.8.1-1.6.4-2.4l18.8-70-17.4 3.8-6 22.3c-5 18.5-25.5 20.8-37 12-6.9-5.1-11-13.5-8.2-24.1l12-44.8c.8-3 3.3-5.1 6.2-5.6l68.4-15.4c1.4-.3 2.8-.2 4 .2l3.8 1.2c-14-30.9 8.5-66.5 42.8-66.5 25.9 0 47 21.1 47 47 0 17.6-9.7 33.2-24.5 41.3.8.7 1.4 1.5 1.9 2.4l15.8 31h25.3c18.5 0 26.7 18.3 21.1 32.6-3.1 7.9-10.2 14.2-21.1 14.2h-48.7c-2.9 0-5.5-1.7-6.7-4.1l-4.8-9.1-3.2 11.8 48.2 25.3c2.6 1.4 4.1 4 4.1 6.8v50.3H302V259c0-4.2 3.4-7.6 7.6-7.6h60.1v-90.8H290c-4.2 0-7.6-3.4-7.6-7.6 0-5.3 3.3-6.7 8.4-8.9 4.5-1.9 12.4-5.3 18.3-10.1 6-5 9.6-12.2 1.4-22.1-7.4-9.1-11.6-20.1-5.7-29.9 6.6-11 22.7-14.1 36.4-14.1h28.5v-1.7c0-18.9 23-28.7 36.6-15.2 3.9 3.9 6.3 9.2 6.3 15.2v185.2h12.8c4.2 0 7.6 3.4 7.6 7.6v188.4c0 4.2-3.4 7.7-7.6 7.7H78.1c-4.2 0-7.7-3.4-7.7-7.7v-62.8c0-4.2 3.4-7.6 7.7-7.6h39.1zM227.6 89.4c-12.4-12.4-32.5-12.4-44.9 0s-12.4 32.5 0 44.9 32.5 12.4 44.9 0c12.3-12.4 12.3-32.5 0-44.9zm163.6-29.3c-3.4 0-6.1 2.8-6.1 6.1v185.2h12.3V66.3c-.1-3.4-2.8-6.2-6.2-6.2zm-21.5 85.3V83.3h-28.5c-7.8 0-20.1 1.4-23.3 6.7-2 3.3 1.5 8.8 4.4 12.3 15.7 19.1 8.7 33.2-3 43.1zm-175.8 247H85.7v47.5h332.1V266.8H317.3V322c0 4.2-3.4 7.7-7.7 7.7H201.5v55.2c0 4.1-3.4 7.5-7.6 7.5z" fill="#DA9C28" opacity="1" data-original="#000000"></path></g></svg>