<?xml version="1.0" encoding="UTF-8"?>
<svg id="Layer_1" data-name="Layer 1" xmlns="http://www.w3.org/2000/svg" xmlns:xlink="http://www.w3.org/1999/xlink" viewBox="0 0 432.11 453.5">
  <defs>
    <style>
      .cls-1 {
        fill: url(#linear-gradient-2);
      }

      .cls-2 {
        fill: url(#linear-gradient-17);
      }

      .cls-3 {
        fill: url(#linear-gradient-15);
      }

      .cls-4 {
        fill: url(#New_Gradient_Swatch_copy_2);
      }

      .cls-5 {
        fill: url(#linear-gradient-14);
      }

      .cls-6 {
        mask: url(#mask-2);
      }

      .cls-7 {
        fill: url(#linear-gradient-6);
      }

      .cls-8 {
        clip-path: url(#clippath-2);
      }

      .cls-9 {
        mask: url(#mask-3);
      }

      .cls-10 {
        fill: url(#linear-gradient-11);
      }

      .cls-11, .cls-12, .cls-13, .cls-14, .cls-15 {
        fill-rule: evenodd;
      }

      .cls-11, .cls-16 {
        fill: #26316c;
      }

      .cls-17 {
        clip-path: url(#clippath-1);
      }

      .cls-18 {
        fill: url(#linear-gradient-10);
      }

      .cls-12 {
        fill: #e5e65d;
      }

      .cls-19 {
        mask: url(#mask-5);
      }

      .cls-20 {
        fill: url(#linear-gradient-16);
      }

      .cls-21 {
        fill: #3b4c82;
      }

      .cls-13 {
        fill: #b7205a;
      }

      .cls-14 {
        fill: #fae0a4;
      }

      .cls-22 {
        mask: url(#mask-4);
      }

      .cls-23 {
        fill: url(#linear-gradient-5);
      }

      .cls-15 {
        fill: #116c61;
      }

      .cls-24 {
        clip-path: url(#clippath);
      }

      .cls-25 {
        clip-rule: evenodd;
        fill: none;
      }

      .cls-26 {
        fill: url(#linear-gradient-7);
      }

      .cls-27 {
        fill: url(#New_Gradient_Swatch_copy);
      }

      .cls-28 {
        fill: url(#linear-gradient-9);
      }

      .cls-29 {
        mask: url(#mask-1);
      }

      .cls-30 {
        mask: url(#mask);
      }

      .cls-31 {
        fill: url(#linear-gradient-3);
      }

      .cls-32 {
        fill: url(#linear-gradient);
      }

      .cls-33 {
        fill: url(#linear-gradient-4);
      }

      .cls-34 {
        fill: url(#linear-gradient-8);
      }

      .cls-35 {
        fill: url(#linear-gradient-12);
      }

      .cls-36 {
        fill: url(#linear-gradient-13);
      }
    </style>
    <clipPath id="clippath">
      <path class="cls-25" d="M294.15,103.9c.47,7.02-.21,17.24-.21,33.86,0,53.01,6.96,40.95-38.94,67.45-9.92,5.73-17.05,10.22-22.59,13.47,16.9,6.96,51.73,19.26,76.37,14.06,10.92-6.78,19.94-14.6,26.58-26.1,7.18-12.43,9.25-25.13,9.38-39.22,.09-9.86-.37-19.78-.37-29.66s.46-19.8,.37-29.66c-.13-14.09-2.2-26.79-9.38-39.22-7.18-12.43-17.14-20.57-29.28-27.73-8.49-5.01-17.31-9.57-25.87-14.51-5.43-3.14-10.78-6.44-16.16-9.67,23.05,21.4,29.01,75.02,29.95,85.24,.06,.54,.1,1.11,.14,1.69,0,0,0,0,0,0"/>
    </clipPath>
    <linearGradient id="New_Gradient_Swatch_copy_2" data-name="New Gradient Swatch copy 2" x1="-17847.89" y1="2045.47" x2="-17797" y2="1892.81" gradientTransform="translate(18112.95 -1847.34)" gradientUnits="userSpaceOnUse">
      <stop offset="0" stop-color="#00998e"/>
      <stop offset="1" stop-color="#b0d035"/>
    </linearGradient>
    <clipPath id="clippath-1">
      <path class="cls-25" d="M177.11,70.31c45.91-26.5,31.98-26.5,77.89,0,9.92,5.73,17.37,9.66,22.96,12.83-2.42-18.11-9.19-54.43-26.01-73.17C240.62,3.9,229.33,0,216.05,0c-14.36,0-26.39,4.56-38.66,11.49-8.59,4.85-16.94,10.21-25.5,15.15-8.56,4.94-17.38,9.5-25.87,14.51-12.13,7.16-22.1,15.3-29.28,27.73-7.18,12.43-9.25,25.13-9.38,39.22-.09,9.86,.37,19.78,.37,29.66,0,6.27-.19,12.55-.3,18.83,7.01-30.66,50.47-62.64,58.85-68.56,.44-.32,.91-.64,1.39-.97,5.84-3.92,15.04-8.44,29.43-16.75"/>
    </clipPath>
    <linearGradient id="New_Gradient_Swatch_copy" data-name="New Gradient Swatch copy" x1="-18043.61" y1="1923.72" x2="-17869.52" y2="1926.66" gradientTransform="translate(18112.95 -1847.34)" gradientUnits="userSpaceOnUse">
      <stop offset="0" stop-color="#ffcd4b"/>
      <stop offset="1" stop-color="#d83d7a"/>
    </linearGradient>
    <clipPath id="clippath-2">
      <path class="cls-25" d="M177.11,205.21c-45.91-26.5-38.94-14.44-38.94-67.45,0-11.46-.33-19.87-.37-26.3-14.48,11.15-42.55,35.17-50.36,59.11,.41,12.84,2.68,24.57,9.32,36.07,7.18,12.43,17.14,20.57,29.28,27.73,8.49,5.01,17.31,9.57,25.87,14.51,8.56,4.94,16.91,10.3,25.5,15.15,12.27,6.93,24.3,11.49,38.66,11.49s26.39-4.56,38.66-11.49c8.59-4.85,16.94-10.21,25.5-15.15,5.43-3.13,10.96-6.12,16.45-9.16-29.97,9.23-79.2-12.27-88.72-16.65-.54-.24-1.08-.49-1.62-.76,0,0-.01,0-.02-.01-6.32-3.1-14.82-8.8-29.2-17.1"/>
    </clipPath>
    <linearGradient id="linear-gradient" x1="-18020.89" y1="1960.23" x2="-17828.31" y2="2115.46" gradientTransform="translate(18112.95 -1847.34)" gradientUnits="userSpaceOnUse">
      <stop offset="0" stop-color="#174a8b"/>
      <stop offset="1" stop-color="#c9258d"/>
    </linearGradient>
    <linearGradient id="linear-gradient-2" x1="-20748.97" y1="2570.97" x2="-20459.04" y2="2410.03" gradientTransform="translate(20720.58 -2389.74)" gradientUnits="userSpaceOnUse">
      <stop offset="0" stop-color="#fff"/>
      <stop offset="1" stop-color="#000"/>
    </linearGradient>
    <mask id="mask" x="87.36" width="190.6" height="128.16" maskUnits="userSpaceOnUse">
      <rect class="cls-1" x="87.36" width="190.6" height="128.16"/>
    </mask>
    <linearGradient id="linear-gradient-3" x1="-20659.05" y1="2122.46" x2="-20778.71" y2="2380.17" gradientTransform="translate(21028.89 -2164.81)" xlink:href="#linear-gradient-2"/>
    <mask id="mask-1" x="232.41" y="31.34" width="112.34" height="202.65" maskUnits="userSpaceOnUse">
      <rect class="cls-31" x="232.41" y="31.34" width="112.34" height="202.65"/>
    </mask>
    <linearGradient id="linear-gradient-4" x1="-20325.27" y1="2425.71" x2="-20584.42" y2="2238.74" gradientTransform="translate(20720.75 -2076.54)" xlink:href="#linear-gradient-2"/>
    <mask id="mask-2" x="87.43" y="111.46" width="184.52" height="164.06" maskUnits="userSpaceOnUse">
      <rect class="cls-33" x="87.43" y="111.46" width="184.52" height="164.06"/>
    </mask>
    <linearGradient id="linear-gradient-5" x1="-20682.98" y1="2233.54" x2="-20558.14" y2="2398.62" gradientTransform="translate(20773.04 -2135.71)" xlink:href="#linear-gradient-2"/>
    <mask id="mask-3" x="112.04" y="117.41" width="84.18" height="130.27" maskUnits="userSpaceOnUse">
      <rect class="cls-23" x="112.04" y="117.41" width="84.18" height="130.27"/>
    </mask>
    <linearGradient id="linear-gradient-6" x1="-20803.89" y1="2456.66" x2="-20723.35" y2="2266" gradientTransform="translate(21039.74 -2193.47)" xlink:href="#linear-gradient-2"/>
    <mask id="mask-4" x="237.52" y="99.98" width="83.66" height="120.53" maskUnits="userSpaceOnUse">
      <rect class="cls-7" x="237.52" y="99.98" width="83.66" height="120.53"/>
    </mask>
    <linearGradient id="linear-gradient-7" x1="-20500.33" y1="2531.53" x2="-20705.71" y2="2557.11" gradientTransform="translate(20812.87 -2491.6)" xlink:href="#linear-gradient-2"/>
    <mask id="mask-5" x="130.78" y="27.22" width="141.98" height="53.02" maskUnits="userSpaceOnUse">
      <rect class="cls-26" x="130.78" y="27.22" width="141.98" height="53.02"/>
    </mask>
    <linearGradient id="linear-gradient-8" x1="-17610.02" y1="2221.56" x2="-18076.71" y2="2221.56" xlink:href="#linear-gradient"/>
    <linearGradient id="linear-gradient-9" x1="-17610.02" y1="2221.8" x2="-18076.71" y2="2221.8" xlink:href="#linear-gradient"/>
    <linearGradient id="linear-gradient-10" x1="-17610.02" y1="2221.61" x2="-18076.71" y2="2221.61" xlink:href="#linear-gradient"/>
    <linearGradient id="linear-gradient-11" x1="-17610.02" y1="2221.61" x2="-18076.71" y2="2221.61" xlink:href="#linear-gradient"/>
    <linearGradient id="linear-gradient-12" x1="-17610.02" y1="2221.8" x2="-18076.71" y2="2221.8" xlink:href="#linear-gradient"/>
    <linearGradient id="linear-gradient-13" x1="-17610.02" y1="2221.61" x2="-18076.71" y2="2221.61" xlink:href="#linear-gradient"/>
    <linearGradient id="linear-gradient-14" x1="-17610.02" y1="2221.75" x2="-18076.71" y2="2221.75" xlink:href="#linear-gradient"/>
    <linearGradient id="linear-gradient-15" x1="-17610.02" y1="2221.61" x2="-18076.71" y2="2221.61" xlink:href="#linear-gradient"/>
    <linearGradient id="linear-gradient-16" x1="-17610.02" y1="2221.8" x2="-18076.71" y2="2221.8" xlink:href="#linear-gradient"/>
    <linearGradient id="linear-gradient-17" x1="-17610.02" y1="2221.61" x2="-18076.71" y2="2221.61" xlink:href="#linear-gradient"/>
  </defs>
  <g>
    <g>
      <g class="cls-24">
        <rect class="cls-4" x="232.41" y="16.96" width="112.42" height="220.98"/>
      </g>
      <g class="cls-17">
        <rect class="cls-27" x="87.28" width="190.68" height="156.58"/>
      </g>
      <g class="cls-8">
        <rect class="cls-32" x="87.43" y="111.46" width="209.23" height="164.06"/>
      </g>
      <g class="cls-30">
        <path class="cls-14" d="M216.05,27.22c36.06,0,49.81,24.01,56.7,53.02,1.89,1.04,3.62,2,5.2,2.9-2.42-18.11-9.19-54.43-26.01-73.17C240.62,3.9,229.33,0,216.05,0c-14.36,0-26.39,4.56-38.66,11.49-8.59,4.85-16.94,10.21-25.5,15.15-4.51,2.6-9.09,5.1-13.65,7.61-4.1,2.26-8.2,4.53-12.22,6.9-12.13,7.16-22.1,15.3-29.28,27.73-5.83,10.11-8.29,20.39-9.08,31.45-.18,2.55-.27,5.14-.3,7.77-.06,6.67,.13,13.37,.26,20.06,.31-4.73,.92-9.32,1.96-13.81,1.44-6.23,3.71-12.27,7.17-18.26,7.18-12.43,17.14-20.57,29.28-27.73,4.02-2.37,8.11-4.64,12.22-6.9,4.57-2.51,9.15-5.01,13.65-7.61,8.56-4.94,16.91-10.3,25.5-15.15,12.27-6.93,24.3-11.49,38.66-11.49"/>
      </g>
      <g class="cls-29">
        <path class="cls-12" d="M311.78,193.03c-18.03,31.23-45.7,31.13-74.27,22.6-1.85,1.12-3.54,2.14-5.11,3.06,16.9,6.96,51.73,19.26,76.37,14.06,10.92-6.78,19.94-14.6,26.58-26.1,7.18-12.43,9.25-25.13,9.38-39.22,.09-9.86-.37-19.78-.37-29.66,0-5.2,.13-10.42,.24-15.63,.1-4.68,.18-9.36,.13-14.03-.13-14.09-2.2-26.79-9.38-39.22-5.83-10.11-13.51-17.38-22.69-23.59-2.12-1.43-4.31-2.81-6.58-4.15-5.75-3.39-11.64-6.57-17.5-9.81,3.94,2.63,7.61,5.45,10.98,8.6,4.68,4.36,8.77,9.35,12.23,15.33,7.18,12.43,9.25,25.13,9.38,39.22,.04,4.67-.04,9.35-.13,14.03-.11,5.21-.24,10.42-.24,15.63,0,9.88,.46,19.8,.37,29.66-.13,14.09-2.2,26.79-9.38,39.22"/>
      </g>
      <g class="cls-6">
        <path class="cls-14" d="M120.32,193.03c-18.03-31.23-4.11-55.14,17.56-75.62-.04-2.16-.08-4.13-.09-5.95-14.48,11.15-42.55,35.17-50.36,59.11,.41,12.84,2.68,24.57,9.32,36.07,7.18,12.43,17.14,20.57,29.28,27.73,8.49,5.01,17.31,9.57,25.87,14.51,4.51,2.6,8.96,5.32,13.42,8.02,4.01,2.42,8.02,4.83,12.08,7.13,12.27,6.93,24.3,11.49,38.66,11.49,11.67,0,21.8-3.01,31.77-7.86,2.3-1.12,4.59-2.33,6.88-3.63,5.81-3.28,11.51-6.79,17.24-10.25-4.25,2.1-8.53,3.86-12.94,5.21-6.12,1.87-12.49,2.92-19.39,2.92-14.36,0-26.39-4.56-38.66-11.49-4.06-2.29-8.08-4.7-12.08-7.13-4.46-2.7-8.91-5.42-13.42-8.02-8.56-4.94-17.38-9.5-25.87-14.51-12.13-7.16-22.1-15.3-29.28-27.73"/>
      </g>
      <g>
        <g class="cls-9">
          <path class="cls-11" d="M196.21,247.68c-53.88-31.94-23.87-45.19-23.87-45.19-40.65-23-34.18-13.63-34.18-64.73,0-8.22-.17-14.87-.28-20.35-21.67,20.47-35.59,44.39-17.56,75.62,7.18,12.43,17.14,20.57,29.28,27.73,8.49,5.01,17.31,9.57,25.87,14.51,4.51,2.6,8.96,5.32,13.42,8.02,2.44,1.48,4.88,2.95,7.33,4.39"/>
        </g>
        <g class="cls-22">
          <path class="cls-15" d="M321.17,99.98c-.72,62.64-27.2,43.27-27.2,43.27,.41,46.7,5.28,36.42-38.97,61.97-7.12,4.11-12.79,7.58-17.48,10.41,28.57,8.53,56.24,8.63,74.27-22.6,7.18-12.43,9.25-25.13,9.38-39.22,.09-9.86-.37-19.78-.37-29.66,0-5.2,.13-10.42,.24-15.63,.06-2.85,.11-5.7,.13-8.54"/>
        </g>
        <g class="cls-19">
          <path class="cls-13" d="M130.78,65.62c54.6-30.69,51.07,1.92,51.07,1.92,40.24-23.71,28.9-22.78,73.15,2.76,7.12,4.11,12.96,7.29,17.76,9.93-6.89-29.01-20.64-53.02-56.7-53.02-14.36,0-26.39,4.56-38.66,11.49-8.59,4.85-16.94,10.21-25.5,15.15-4.51,2.6-9.09,5.1-13.65,7.61-2.5,1.37-4.99,2.75-7.46,4.16"/>
        </g>
      </g>
    </g>
    <g>
      <path class="cls-16" d="M179,156.35c0,1.14,.42,2.12,1.25,2.94,.84,.81,1.8,1.22,2.9,1.22s2.12-.41,2.94-1.22c.81-.81,1.22-1.79,1.22-2.94v-35.76c0-1.14-.42-2.12-1.25-2.94-.84-.81-1.8-1.22-2.9-1.22s-2.12,.41-2.94,1.22c-.82,.82-1.22,1.79-1.22,2.94v35.76Z"/>
      <path class="cls-16" d="M191.47,145.46c0,2.2,.43,4.28,1.29,6.24,.86,1.96,2.03,3.67,3.53,5.15,1.49,1.47,3.22,2.64,5.18,3.5,1.96,.86,4.06,1.29,6.3,1.29,1.67,0,3.28-.26,4.82-.79,1.54-.53,2.96-1.25,4.26-2.18,1.3-.92,2.45-2,3.46-3.23,1.01-1.23,1.83-2.55,2.44-3.96,.22-.44,.33-.97,.33-1.58,0-1.01-.36-1.95-1.09-2.8-.73-.86-1.73-1.29-3-1.29-.79,0-1.53,.16-2.21,.49-.68,.33-1.2,.98-1.55,1.95-.62,1.45-1.59,2.66-2.94,3.63-1.34,.97-2.85,1.45-4.52,1.45-1.1,0-2.13-.21-3.1-.63-.97-.42-1.82-.98-2.54-1.68-.72-.7-1.3-1.53-1.71-2.47-.42-.94-.63-1.97-.63-3.07v-14.05c0-1.1,.21-2.12,.63-3.07,.42-.95,.99-1.77,1.71-2.47,.73-.7,1.57-1.26,2.54-1.68,.97-.42,2-.63,3.1-.63,1.72,0,3.22,.48,4.52,1.45,1.3,.97,2.25,2.15,2.87,3.56,.35,.84,.88,1.46,1.58,1.88,.7,.42,1.45,.63,2.24,.63,1.28,0,2.28-.43,3-1.29,.73-.86,1.09-1.79,1.09-2.8,0-.35-.03-.71-.1-1.09-.07-.37-.21-.74-.43-1.09-1.28-2.82-3.23-5.11-5.87-6.9-2.64-1.78-5.61-2.67-8.91-2.67-2.24,0-4.35,.42-6.33,1.25-1.98,.84-3.71,1.99-5.18,3.46-1.47,1.47-2.64,3.19-3.5,5.15-.86,1.96-1.29,4.06-1.29,6.3v14.05Z"/>
      <path class="cls-16" d="M226.94,145.59c-.77,.79-1.15,1.78-1.15,2.97,0,.62,.15,1.28,.46,1.98,1.06,2.33,2.38,4.18,3.96,5.54,1.58,1.36,3.15,2.39,4.72,3.07,1.56,.68,2.98,1.12,4.26,1.32,1.28,.2,2.13,.3,2.57,.3,2.29,0,4.44-.3,6.47-.89,2.02-.59,3.79-1.47,5.31-2.64,1.52-1.16,2.71-2.63,3.6-4.39,.88-1.76,1.32-3.8,1.32-6.14s-.44-4.29-1.32-6c-.88-1.72-2.07-3.16-3.56-4.32-1.5-1.16-3.23-2.05-5.21-2.64-1.98-.59-4.09-.89-6.33-.89-1.85,0-3.41-.32-4.69-.96-1.28-.64-1.91-1.7-1.91-3.2,0-1.1,.48-2.08,1.45-2.94,.97-.86,2.66-1.29,5.08-1.29,1.28,0,2.32,.28,3.13,.82,.81,.55,1.54,1.14,2.18,1.78,.64,.64,1.29,1.23,1.95,1.78,.66,.55,1.47,.82,2.44,.82,.62,0,1.18-.13,1.68-.4,.51-.26,.93-.59,1.29-.99,.35-.4,.63-.84,.83-1.32,.2-.48,.3-.95,.3-1.39,0-.92-.22-1.72-.66-2.38-1.01-1.76-2.26-3.11-3.73-4.06-1.47-.95-2.89-1.64-4.26-2.08-1.36-.44-2.54-.7-3.53-.79-.99-.09-1.51-.13-1.55-.13-2.24,0-4.28,.29-6.1,.86-1.83,.57-3.39,1.4-4.69,2.47-1.3,1.08-2.3,2.4-3,3.96-.7,1.56-1.06,3.31-1.06,5.25,0,2.11,.37,3.95,1.12,5.51s1.78,2.85,3.1,3.86c1.32,1.01,2.89,1.77,4.72,2.28,1.83,.51,3.79,.76,5.91,.76,1.06,0,2.07,.11,3.03,.33,.97,.22,1.83,.56,2.57,1.02,.75,.46,1.34,1.04,1.78,1.75,.44,.7,.66,1.54,.66,2.51s-.23,1.81-.69,2.54-1.07,1.32-1.81,1.78c-.75,.46-1.61,.81-2.57,1.06-.97,.24-1.96,.36-2.97,.36-1.94,0-3.59-.45-4.95-1.35-1.36-.9-2.35-1.99-2.97-3.27-.44-.97-1.02-1.78-1.75-2.44-.73-.66-1.57-.99-2.54-.99-1.14,0-2.1,.4-2.87,1.19Z"/>
    </g>
  </g>
  <g>
    <g>
      <path class="cls-34" d="M0,384.22c0,3.13,.61,6.09,1.83,8.87,1.22,2.79,2.89,5.23,5.02,7.32,2.13,2.1,4.58,3.76,7.37,4.98s5.77,1.83,8.97,1.83c2.38,0,4.66-.38,6.85-1.13,2.19-.75,4.21-1.78,6.06-3.1,1.85-1.31,3.49-2.85,4.93-4.6,1.44-1.75,2.6-3.63,3.47-5.63,.31-.63,.47-1.38,.47-2.25,0-1.44-.52-2.77-1.55-3.99-1.03-1.22-2.46-1.83-4.27-1.83-1.13,0-2.18,.23-3.14,.7-.97,.47-1.71,1.39-2.21,2.77-.88,2.07-2.27,3.79-4.18,5.16-1.91,1.38-4.05,2.07-6.43,2.07-1.56,0-3.04-.3-4.41-.89-1.38-.59-2.58-1.39-3.62-2.4-1.03-1-1.85-2.17-2.44-3.52-.59-1.35-.89-2.8-.89-4.37v-20c0-1.56,.3-3.02,.89-4.37,.59-1.34,1.41-2.52,2.44-3.52,1.03-1,2.24-1.8,3.62-2.4,1.38-.59,2.85-.89,4.41-.89,2.44,0,4.58,.69,6.43,2.07,1.85,1.38,3.21,3.07,4.08,5.07,.5,1.19,1.25,2.08,2.25,2.68,1,.6,2.07,.89,3.19,.89,1.82,0,3.24-.61,4.27-1.83,1.03-1.22,1.55-2.55,1.55-3.99,0-.5-.04-1.02-.14-1.55-.09-.53-.3-1.05-.61-1.55-1.82-4-4.6-7.28-8.36-9.81-3.75-2.54-7.98-3.8-12.68-3.8-3.19,0-6.2,.59-9.01,1.78-2.82,1.19-5.27,2.83-7.37,4.93-2.1,2.1-3.76,4.54-4.98,7.32-1.22,2.79-1.83,5.78-1.83,8.97v20Z"/>
      <path class="cls-28" d="M49.86,399.62c0,1.63,.58,3.02,1.74,4.18,1.16,1.16,2.55,1.74,4.18,1.74s2.94-.58,4.13-1.74c1.19-1.16,1.78-2.55,1.78-4.18v-10.7h11.45c.5,0,1.03,.34,1.6,1.03l11.74,13.8c1.25,1.25,2.72,1.88,4.41,1.88s3.1-.59,4.23-1.78c1.13-1.19,1.69-2.6,1.69-4.23,0-.69-.14-1.42-.42-2.21-.28-.78-.58-1.33-.89-1.64-.5-.63-1.19-1.44-2.06-2.44-.75-.87-1.72-1.99-2.91-3.33-1.19-1.34-2.6-3.02-4.23-5.02,3.13-2,5.54-4.65,7.23-7.93,1.69-3.29,2.54-6.93,2.54-10.94,0-3.19-.6-6.16-1.78-8.92-1.19-2.75-2.83-5.16-4.93-7.23-2.1-2.07-4.54-3.69-7.33-4.88-2.79-1.19-5.77-1.78-8.97-1.78h-17.28c-1.63,0-3.02,.58-4.18,1.74-1.16,1.16-1.74,2.55-1.74,4.18v50.42Zm23.19-44.6c1.56,0,3.04,.3,4.41,.89,1.38,.59,2.56,1.39,3.57,2.39,1,1,1.8,2.18,2.39,3.52,.59,1.35,.89,2.77,.89,4.27s-.3,2.93-.89,4.27c-.6,1.35-1.41,2.52-2.44,3.52-1.03,1-2.22,1.78-3.57,2.35-1.35,.56-2.8,.85-4.37,.85h-11.36v-22.06h11.36Z"/>
      <path class="cls-18" d="M102.25,399.34c0,1.63,.58,3.02,1.74,4.18,1.16,1.16,2.55,1.74,4.18,1.74h34.46c1.63,0,3.01-.58,4.13-1.74,1.13-1.16,1.69-2.55,1.69-4.18s-.56-3-1.69-4.13c-1.13-1.13-2.5-1.69-4.13-1.69h-28.64v-12.49h18.59c1.63,0,3.01-.58,4.13-1.74,1.13-1.16,1.69-2.55,1.69-4.18s-.56-3-1.69-4.13c-1.13-1.13-2.5-1.69-4.13-1.69h-18.59v-14.27h28.64c1.63,0,3.01-.58,4.13-1.74,1.13-1.16,1.69-2.52,1.69-4.08s-.56-3.02-1.69-4.18c-1.13-1.16-2.5-1.74-4.13-1.74h-34.46c-1.69,0-3.1,.58-4.23,1.74-1.13,1.16-1.69,2.55-1.69,4.18v50.14Z"/>
      <path class="cls-10" d="M152.96,397.46c-.31,.63-.47,1.41-.47,2.35,0,1.38,.53,2.69,1.6,3.94,1.06,1.25,2.47,1.88,4.23,1.88,2.5,0,4.32-1.19,5.45-3.57l5.44-12.96h21.88l5.35,12.96c.5,1,1.2,1.85,2.11,2.54,.91,.69,1.99,1.03,3.24,1.03,1.82,0,3.25-.62,4.32-1.88,1.06-1.25,1.6-2.57,1.6-3.94,0-.25-.06-.61-.19-1.08-.12-.47-.25-.86-.37-1.17l-21.69-51.08c-.44-.94-1.14-1.77-2.11-2.49-.97-.72-2.08-1.08-3.33-1.08-2.38,0-4.16,1.19-5.35,3.57l-21.69,50.99Zm33.05-20.19h-12.02c.31-.75,.64-1.47,.99-2.16,.34-.69,.74-1.52,1.17-2.49,.44-.97,.95-2.17,1.55-3.62,.59-1.44,1.36-3.25,2.3-5.45l6.01,13.71Z"/>
      <path class="cls-35" d="M210.32,355.02v44.69c0,1.63,.59,3.02,1.78,4.18,1.19,1.16,2.57,1.74,4.13,1.74s3.02-.58,4.18-1.74c1.16-1.16,1.74-2.55,1.74-4.18v-44.69h11.36c1.69,0,3.1-.58,4.23-1.74,1.13-1.16,1.69-2.52,1.69-4.08s-.57-3.02-1.69-4.18c-1.13-1.16-2.54-1.74-4.23-1.74h-34.46c-1.63,0-3.01,.58-4.13,1.74-1.13,1.16-1.69,2.55-1.69,4.18s.56,3,1.69,4.13c1.13,1.13,2.5,1.69,4.13,1.69h11.27Z"/>
      <path class="cls-36" d="M243.56,399.72c0,1.63,.59,3.02,1.78,4.18,1.19,1.16,2.56,1.74,4.13,1.74s3.02-.58,4.18-1.74c1.16-1.16,1.74-2.55,1.74-4.18v-50.89c0-1.63-.6-3.02-1.78-4.18-1.19-1.16-2.57-1.74-4.13-1.74s-3.02,.58-4.18,1.74c-1.16,1.16-1.74,2.55-1.74,4.18v50.89Z"/>
      <path class="cls-5" d="M282.25,402.06c1.19,2.38,2.97,3.57,5.35,3.57,1.13,0,2.17-.31,3.14-.94,.97-.62,1.74-1.5,2.3-2.63l21.69-50.61c.38-.75,.56-1.53,.56-2.35,0-1.5-.53-2.86-1.6-4.08-1.06-1.22-2.5-1.83-4.32-1.83-1.25,0-2.33,.33-3.24,.99-.91,.66-1.61,1.52-2.11,2.58-2.19,5.32-4.65,11.1-7.37,17.32-2.72,6.23-5.74,13.16-9.06,20.8l-16.24-38.12c-.5-1.13-1.25-2-2.26-2.63-1-.63-2.06-.94-3.19-.94-1.75,0-3.16,.61-4.23,1.83-1.07,1.22-1.6,2.58-1.6,4.08,0,.88,.16,1.63,.47,2.25l21.69,50.7Z"/>
      <path class="cls-3" d="M319.71,399.72c0,1.63,.59,3.02,1.78,4.18,1.19,1.16,2.56,1.74,4.13,1.74s3.02-.58,4.18-1.74c1.16-1.16,1.74-2.55,1.74-4.18v-50.89c0-1.63-.59-3.02-1.78-4.18-1.19-1.16-2.57-1.74-4.13-1.74s-3.02,.58-4.18,1.74c-1.16,1.16-1.74,2.55-1.74,4.18v50.89Z"/>
      <path class="cls-20" d="M353.23,355.02v44.69c0,1.63,.59,3.02,1.78,4.18,1.19,1.16,2.56,1.74,4.13,1.74s3.02-.58,4.18-1.74,1.74-2.55,1.74-4.18v-44.69h11.36c1.69,0,3.1-.58,4.23-1.74,1.13-1.16,1.69-2.52,1.69-4.08s-.56-3.02-1.69-4.18c-1.13-1.16-2.54-1.74-4.23-1.74h-34.46c-1.63,0-3,.58-4.13,1.74-1.13,1.16-1.69,2.55-1.69,4.18s.57,3,1.69,4.13c1.13,1.13,2.5,1.69,4.13,1.69h11.27Z"/>
      <path class="cls-2" d="M385.81,365.63c0,2.63,.42,5.15,1.27,7.56,.85,2.41,2.03,4.59,3.57,6.53,1.53,1.94,3.35,3.6,5.45,4.98,2.1,1.38,4.43,2.38,6.99,3v12.02c0,1.63,.58,3.02,1.74,4.18,1.16,1.16,2.55,1.74,4.18,1.74s3.01-.58,4.13-1.74c1.13-1.16,1.69-2.55,1.69-4.18v-12.02c2.5-.62,4.82-1.63,6.95-3,2.13-1.38,3.96-3.04,5.49-4.98,1.53-1.94,2.72-4.12,3.57-6.53,.85-2.41,1.27-4.93,1.27-7.56v-16.81c0-1.63-.6-3.02-1.78-4.18-1.19-1.16-2.57-1.74-4.13-1.74s-3.04,.58-4.23,1.74c-1.19,1.16-1.78,2.55-1.78,4.18v16.81c0,1.5-.3,2.93-.89,4.27-.59,1.35-1.39,2.52-2.39,3.52-1,1-2.18,1.8-3.52,2.39-1.35,.6-2.8,.89-4.37,.89s-3.04-.3-4.41-.89c-1.38-.59-2.58-1.39-3.61-2.39-1.03-1-1.85-2.17-2.44-3.52-.6-1.34-.89-2.77-.89-4.27v-16.81c0-1.63-.6-3.02-1.78-4.18-1.19-1.16-2.57-1.74-4.13-1.74s-3.02,.58-4.18,1.74c-1.16,1.16-1.74,2.55-1.74,4.18v16.81Z"/>
    </g>
    <g>
      <path class="cls-21" d="M141.45,328c0,.35,.12,.64,.36,.87,.24,.24,.51,.36,.83,.36,.33,0,.61-.12,.84-.36,.23-.24,.34-.53,.34-.87v-18.9c0-.34-.12-.64-.36-.87-.24-.24-.51-.36-.83-.36-.33,0-.61,.12-.84,.36-.23,.24-.34,.53-.34,.87v18.9Z"/>
      <path class="cls-21" d="M145.9,328c0,.35,.12,.64,.36,.87,.24,.24,.51,.36,.83,.36,.33,0,.61-.12,.84-.36,.23-.24,.34-.53,.34-.87v-12.59c0-.71,.13-1.39,.39-2.02,.26-.64,.62-1.19,1.08-1.65,.46-.46,.99-.84,1.6-1.12,.61-.28,1.27-.42,1.98-.42s1.34,.14,1.96,.42c.62,.28,1.16,.65,1.62,1.12,.46,.46,.82,1.01,1.09,1.65,.27,.64,.41,1.31,.41,2.02v12.59c0,.35,.12,.64,.36,.87,.24,.24,.52,.36,.83,.36,.33,0,.61-.12,.84-.36,.23-.24,.34-.53,.34-.87v-12.59c0-1.06-.2-2.05-.59-2.98-.39-.93-.93-1.74-1.6-2.43-.67-.69-1.46-1.24-2.37-1.65-.9-.41-1.86-.61-2.88-.61s-1.98,.21-2.88,.61c-.9,.41-1.69,.96-2.35,1.65-.66,.69-1.19,1.5-1.59,2.43s-.59,1.92-.59,2.98v12.59Z"/>
      <path class="cls-21" d="M166.89,310.33v17.67c0,.35,.12,.64,.36,.87,.24,.24,.51,.36,.83,.36,.33,0,.61-.12,.84-.36,.23-.24,.34-.53,.34-.87v-17.67h5.08c.33,0,.61-.12,.84-.37,.23-.25,.34-.53,.34-.86,0-.34-.12-.64-.34-.87-.23-.24-.51-.36-.84-.36h-12.49c-.33,0-.61,.12-.84,.37-.23,.25-.34,.53-.34,.86,0,.35,.11,.64,.34,.87,.23,.24,.51,.36,.84,.36h5.04Z"/>
      <path class="cls-21" d="M177.35,328c0,.35,.12,.64,.36,.87,.24,.24,.51,.36,.83,.36h12.49c.33,0,.61-.12,.84-.37,.23-.25,.34-.53,.34-.86,0-.34-.11-.64-.34-.87-.23-.24-.51-.36-.84-.36h-11.3v-6.67h6.63c.33,0,.61-.12,.84-.37,.23-.25,.34-.53,.34-.86,0-.34-.11-.64-.34-.87-.23-.24-.51-.36-.84-.36h-6.63v-7.31h11.3c.33,0,.61-.12,.84-.37,.23-.25,.34-.53,.34-.86,0-.34-.11-.64-.34-.87-.23-.24-.51-.36-.84-.36h-12.49c-.33,0-.61,.12-.84,.36-.23,.24-.34,.53-.34,.87v18.9Z"/>
      <path class="cls-21" d="M194.41,322.24c0,1.06,.2,2.05,.59,2.98,.39,.93,.93,1.74,1.6,2.44,.67,.7,1.46,1.25,2.37,1.65,.9,.4,1.86,.6,2.88,.6s1.98-.2,2.88-.6c.9-.4,1.69-.95,2.35-1.65,.66-.7,1.19-1.52,1.59-2.44,.39-.93,.59-1.92,.59-2.98v-2.82c0-.34-.11-.64-.34-.87-.23-.24-.51-.36-.84-.36h-3.58c-.33,0-.61,.13-.84,.37-.23,.25-.34,.53-.34,.86,0,.35,.11,.64,.34,.87,.23,.24,.51,.36,.84,.36h2.4v1.59c0,.71-.13,1.39-.39,2.02-.26,.64-.62,1.19-1.07,1.65-.46,.46-.99,.84-1.6,1.12-.61,.28-1.27,.42-1.98,.42s-1.34-.14-1.96-.42c-.62-.28-1.16-.65-1.62-1.12-.46-.46-.82-1.01-1.09-1.65-.27-.64-.4-1.31-.4-2.02v-7.38c0-.71,.13-1.39,.39-2.02,.26-.64,.62-1.19,1.08-1.65,.46-.46,1-.84,1.62-1.12s1.29-.42,1.99-.42c1.06,0,2.01,.32,2.85,.96,.84,.64,1.46,1.44,1.85,2.41,.1,.24,.26,.42,.45,.53,.2,.12,.4,.18,.61,.18,.37,0,.66-.13,.87-.39,.21-.26,.31-.54,.31-.84,0-.17-.03-.34-.09-.52-.27-.71-.64-1.36-1.11-1.94-.47-.58-1-1.08-1.59-1.51-.59-.42-1.24-.75-1.95-.99-.71-.24-1.44-.36-2.21-.36-1.04,0-2.01,.2-2.91,.6-.9,.4-1.69,.95-2.35,1.65-.67,.7-1.19,1.52-1.59,2.44-.39,.93-.59,1.92-.59,2.98v7.38Z"/>
      <path class="cls-21" d="M211.57,328c0,.35,.11,.64,.34,.87,.23,.24,.51,.36,.84,.36,.31,0,.59-.12,.83-.36,.24-.24,.36-.53,.36-.87v-4.92h5.11c.25,0,.49,.06,.72,.19,.23,.13,.42,.29,.59,.48l4.24,5.08c.27,.28,.57,.42,.9,.42s.61-.12,.84-.37c.23-.25,.34-.55,.34-.89,0-.3-.09-.57-.28-.81l-4.08-4.92c1.22-.63,2.22-1.54,2.97-2.73,.76-1.2,1.14-2.55,1.14-4.06,0-1.06-.2-2.04-.59-2.96-.4-.92-.92-1.72-1.59-2.41-.66-.69-1.45-1.24-2.35-1.63-.9-.4-1.86-.6-2.88-.6h-6.26c-.31,0-.58,.12-.82,.36-.24,.24-.36,.53-.36,.87v18.9Zm7.44-17.67c.71,0,1.37,.14,1.98,.4,.61,.27,1.15,.64,1.6,1.1,.46,.46,.82,1.01,1.07,1.63,.26,.63,.39,1.29,.39,2.01s-.13,1.38-.4,2.01c-.27,.63-.63,1.17-1.09,1.63-.46,.46-.99,.83-1.6,1.1-.61,.27-1.26,.41-1.95,.41h-5.08v-10.29h5.08Z"/>
      <path class="cls-21" d="M228.41,327.55c-.06,.17-.09,.34-.09,.52,0,.28,.1,.55,.31,.81,.21,.26,.49,.39,.84,.39,.23,0,.44-.06,.64-.19,.2-.13,.35-.31,.45-.55l2.21-5.37h9.15l2.21,5.37c.21,.5,.57,.74,1.09,.74,.35,0,.63-.13,.84-.39,.21-.26,.31-.53,.31-.81,0-.17-.03-.35-.09-.52l-7.85-19.06c-.12-.3-.33-.52-.62-.65-.17-.07-.32-.1-.47-.1-.52,0-.88,.25-1.09,.74l-7.85,19.06Zm12.49-6.86h-7.13l3.58-8.64,3.55,8.64Z"/>
      <path class="cls-21" d="M248.06,310.33v17.67c0,.35,.12,.64,.36,.87,.24,.24,.51,.36,.83,.36,.33,0,.61-.12,.84-.36,.23-.24,.34-.53,.34-.87v-17.67h5.08c.33,0,.61-.12,.84-.37s.34-.53,.34-.86c0-.34-.12-.64-.34-.87-.23-.24-.51-.36-.84-.36h-12.49c-.33,0-.61,.12-.84,.37-.23,.25-.34,.53-.34,.86,0,.35,.11,.64,.34,.87,.23,.24,.51,.36,.84,.36h5.04Z"/>
      <path class="cls-21" d="M258.53,328c0,.35,.12,.64,.36,.87,.24,.24,.51,.36,.83,.36h12.49c.33,0,.61-.12,.84-.37,.23-.25,.34-.53,.34-.86,0-.34-.11-.64-.34-.87-.23-.24-.51-.36-.84-.36h-11.3v-6.67h6.63c.33,0,.61-.12,.84-.37,.23-.25,.34-.53,.34-.86,0-.34-.11-.64-.34-.87-.23-.24-.51-.36-.84-.36h-6.63v-7.31h11.3c.33,0,.61-.12,.84-.37,.23-.25,.34-.53,.34-.86,0-.34-.11-.64-.34-.87-.23-.24-.51-.36-.84-.36h-12.49c-.33,0-.61,.12-.84,.36-.23,.24-.34,.53-.34,.87v18.9Z"/>
      <path class="cls-21" d="M275.81,328c0,.35,.12,.64,.36,.87,.24,.24,.51,.36,.82,.36h6.26c1.02,0,1.98-.2,2.88-.6,.9-.4,1.69-.94,2.35-1.63,.66-.69,1.19-1.49,1.59-2.41,.39-.92,.59-1.9,.59-2.96v-6.15c0-1.06-.2-2.04-.59-2.96-.4-.92-.92-1.72-1.59-2.41-.66-.69-1.45-1.24-2.37-1.63-.91-.4-1.88-.6-2.9-.6h-6.23c-.33,0-.61,.12-.84,.36-.23,.24-.34,.53-.34,.87v18.9Zm7.41-17.67c.71,0,1.37,.14,1.99,.4,.62,.27,1.16,.64,1.62,1.1,.46,.46,.82,1.01,1.07,1.63,.26,.63,.39,1.29,.39,2.01v6.15c0,.71-.13,1.38-.39,2.01-.26,.63-.62,1.17-1.07,1.63-.46,.46-.99,.83-1.6,1.1-.61,.27-1.27,.41-1.98,.41h-5.08v-16.44h5.04Z"/>
    </g>
    <g>
      <path class="cls-21" d="M18.34,441.56c1.55,0,2.8-.42,3.76-1.27,1.1-1,1.66-2.4,1.66-4.2v-8.15l-2.13,1.11v6.78c0,2.5-1.17,3.76-3.5,3.76H7.45c-2.33,0-3.5-1.25-3.5-3.76v-5.03l-2.13,1.11v4.17c0,1.68,.47,3.01,1.4,3.99,.93,.99,2.19,1.48,3.76,1.48h11.37Zm-6.81-16.14c0-.85-.42-1.27-1.27-1.27s-1.27,.42-1.27,1.27c0,.89,.43,1.34,1.27,1.34s1.27-.45,1.27-1.34Zm3.63,0c0-.85-.41-1.27-1.24-1.27-.87,0-1.3,.42-1.3,1.27,0,.89,.43,1.34,1.3,1.34s1.24-.45,1.24-1.34Z"/>
      <path class="cls-21" d="M36.23,441.56v-1.97h-1.12c-2.33,0-3.5-1.21-3.5-3.63v-14.93l-2.13,1.11v13.88c0,1.53,.4,2.79,1.21,3.79,.98,1.17,2.37,1.75,4.17,1.75h1.37Z"/>
      <path class="cls-21" d="M40.21,435.96c0,2.42-1.17,3.63-3.5,3.63h-1.11v1.97h1.37c1.91,0,3.34-.64,4.3-1.91,.98,1.27,2.46,1.91,4.46,1.91,1.63,0,2.96-.56,3.98-1.69,1.17-1.27,1.75-3.04,1.75-5.32,0-1.99-.46-3.61-1.37-4.84-1.06-1.44-2.58-2.16-4.55-2.16-1.53,0-2.76,.43-3.69,1.27-1.08,1-1.62,2.4-1.62,4.2v2.93Zm2.13-2.74c0-2.48,1.06-3.72,3.18-3.72,1.21,0,2.15,.45,2.82,1.34,.67,.89,1,2.12,1,3.69s-.32,2.83-.96,3.72c-.63,.89-1.51,1.34-2.61,1.34-2.29,0-3.44-1.17-3.44-3.5v-2.86Z"/>
      <path class="cls-21" d="M67.3,439.58v-6.56c0-1.59-.43-2.86-1.27-3.82-.98-1.1-2.39-1.66-4.23-1.66s-3.21,.56-4.27,1.69c-1.19,1.25-1.78,3.02-1.78,5.32,0,1.95,.48,3.51,1.43,4.68,1.17,1.38,2.93,2.12,5.28,2.23l2.71,.1c0,.68-.22,1.36-.67,2.05-.45,.69-1,1.2-1.66,1.54-.66,.38-1.42,.57-2.29,.57-1.08,0-2.18-.3-3.28-.89v1.88c1.16,.59,2.36,.89,3.6,.89,.59,0,1.14-.07,1.66-.22,1.4-.34,2.54-1.04,3.42-2.12,.88-1.07,1.33-2.31,1.35-3.71h3.37v-1.97h-3.37Zm-2.13,0c-.83,0-1.71-.03-2.64-.1-3.12-.15-4.68-1.8-4.68-4.97,0-1.59,.34-2.83,1.03-3.71,.69-.88,1.66-1.32,2.91-1.32,2.25,0,3.37,1.25,3.37,3.76v6.33Z"/>
      <path class="cls-21" d="M76.69,435.96v-14.93l-2.13,1.11v13.69c0,2.5-1.21,3.76-3.63,3.76h-.89v1.97h1.12c1.95,0,3.43-.67,4.42-2,.96,1.34,2.41,2,4.36,2h1.37v-1.97h-1.11c-2.33,0-3.5-1.21-3.5-3.63Z"/>
      <path class="cls-21" d="M103.37,439.58h-7.7c-.42,0-.85-.03-1.27-.1,1.65-1.21,3.47-3.2,5.44-5.98v-1.24c-2.25-3.14-4.86-4.71-7.83-4.71s-5.59,1.55-7.8,4.65v1.3c1.97,2.78,3.8,4.78,5.47,5.98-.44,.06-.88,.1-1.3,.1h-7.7v1.97h7.83c1.15,0,2.32-.24,3.53-.73,1.19,.49,2.36,.73,3.5,.73h7.86l-.03-1.97Zm-11.46-10.09h.09c2.29,0,4.29,1.12,5.98,3.34-2.27,2.99-4.27,4.93-5.98,5.83-1.74-.89-3.72-2.82-5.95-5.79,1.74-2.25,3.69-3.38,5.86-3.38Z"/>
      <path class="cls-21" d="M119.25,435.96v-1.08c0-2.12-.46-3.82-1.37-5.09-1.04-1.49-2.56-2.23-4.55-2.23-1.74,0-3.13,.57-4.17,1.72-1.19,1.29-1.78,3.16-1.78,5.6v1.08c0,2.42-1.17,3.63-3.5,3.63h-1.11v1.97h1.37c1.93,0,3.39-.66,4.36-1.97,1.04,1.74,2.65,2.61,4.84,2.61s3.78-.88,4.84-2.64c.95,1.34,2.4,2,4.33,2h1.37v-1.97h-1.08c-2.35,0-3.53-1.21-3.53-3.63Zm-9.74-1.12c0-3.56,1.27-5.35,3.82-5.35s3.79,1.78,3.79,5.35c0,1.66-.34,2.97-1.02,3.93-.68,.97-1.6,1.45-2.77,1.45-2.55,0-3.82-1.79-3.82-5.38Z"/>
      <path class="cls-21" d="M124.34,441.56c1.63,0,2.95-.48,3.95-1.43,1.06-1.04,1.59-2.46,1.59-4.27v-14.83l-2.13,1.11v13.69c0,2.5-1.21,3.76-3.63,3.76h-.89v1.97h1.12Z"/>
      <path class="cls-21" d="M137.74,441.56v-20.53l-2.13,1.11v19.42h2.13Z"/>
      <path class="cls-21" d="M160.44,435.96v-9.93l-2.13,1.11v1.72c-.93-.81-2.09-1.21-3.47-1.21-1.53,0-2.81,.54-3.85,1.62-1.19,1.23-1.78,2.86-1.78,4.9,0,1.74,.44,3.19,1.34,4.36,1.06,1.38,2.5,2.07,4.33,2.07,1.61,0,2.97-.57,4.07-1.72,.89,1.78,2.47,2.67,4.74,2.67h1.37v-1.97h-1.08c-2.36,0-3.53-1.21-3.53-3.63Zm-2.13,.06c0,.23,.02,.54,.06,.92-.91,1.21-2.06,1.81-3.44,1.81-1.08,0-1.96-.41-2.63-1.24-.67-.83-1-1.93-1-3.31s.33-2.47,1-3.33c.67-.86,1.53-1.29,2.59-1.29,1.34,0,2.47,.56,3.41,1.69v4.74Zm-2.9-13.78c0-.85-.41-1.27-1.24-1.27-.87,0-1.3,.42-1.3,1.27,0,.89,.43,1.34,1.3,1.34s1.24-.45,1.24-1.34Zm3.63,0c0-.85-.41-1.27-1.24-1.27-.87,0-1.31,.42-1.31,1.27,0,.89,.44,1.34,1.31,1.34s1.24-.45,1.24-1.34Z"/>
      <path class="cls-21" d="M171.17,435.96v-8.02l-2.13,1.11v6.91c0,2.42-1.17,3.63-3.5,3.63h-1.12v1.97h1.37c1.89,0,3.33-.65,4.33-1.94,.95,1.29,2.39,1.94,4.3,1.94h1.37v-1.97h-1.12c-2.33,0-3.5-1.21-3.5-3.63Zm-5,10.25c0,.87,.42,1.3,1.27,1.3s1.27-.43,1.27-1.3-.42-1.31-1.27-1.31-1.27,.43-1.27,1.31Zm3.63,0c0,.87,.42,1.3,1.27,1.3s1.27-.43,1.27-1.3-.43-1.31-1.27-1.31-1.27,.43-1.27,1.31Z"/>
      <path class="cls-21" d="M181.9,435.96v-8.02l-2.13,1.11v6.91c0,2.42-1.17,3.63-3.5,3.63h-1.12v1.97h1.37c1.89,0,3.33-.65,4.33-1.94,.95,1.29,2.39,1.94,4.3,1.94h1.37v-1.97h-1.12c-2.33,0-3.5-1.21-3.5-3.63Zm-.19-13.56c0-.85-.41-1.27-1.24-1.27-.87,0-1.3,.43-1.3,1.27,0,.89,.43,1.34,1.3,1.34s1.24-.45,1.24-1.34Z"/>
      <path class="cls-21" d="M200.87,434.08c0-1.78-.45-3.26-1.34-4.42-1.06-1.4-2.56-2.1-4.49-2.1-1.7,0-3.07,.54-4.11,1.62-1.14,1.21-1.72,2.84-1.72,4.9s.84,3.96,2.51,5.51h-5.86v1.97h7.19c.72,0,1.38-.07,1.97-.22,.59,.15,1.25,.22,1.98,.22h7.19v-1.97h-5.83c1.66-1.53,2.48-3.36,2.48-5.51Zm-5.76,5.22l-.06,.03-.13-.03c-1.08-.38-1.96-1.07-2.64-2.05-.68-.99-1.02-2.06-1.02-3.23,0-1.38,.34-2.48,1.02-3.29,.68-.82,1.6-1.23,2.77-1.23s2.1,.41,2.79,1.23c.69,.82,1.04,1.93,1.04,3.33,0,1.15-.35,2.21-1.04,3.2-.69,.99-1.58,1.67-2.66,2.05h-.06Zm-.6-16.81c0-.85-.41-1.27-1.24-1.27-.87,0-1.31,.43-1.31,1.27,0,.89,.44,1.34,1.31,1.34s1.24-.45,1.24-1.34Zm3.63,0c0-.85-.41-1.27-1.24-1.27-.87,0-1.3,.43-1.3,1.27,0,.89,.43,1.34,1.3,1.34s1.24-.45,1.24-1.34Z"/>
      <path class="cls-21" d="M210.32,435.96v-8.02l-2.13,1.11v6.91c0,2.42-1.17,3.63-3.5,3.63h-1.11v1.97h1.37c1.89,0,3.33-.65,4.33-1.94,.95,1.29,2.39,1.94,4.3,1.94h1.37v-1.97h-1.11c-2.33,0-3.5-1.21-3.5-3.63Zm-2.26-13.43c0-.87-.42-1.3-1.27-1.3s-1.27,.43-1.27,1.3,.43,1.31,1.27,1.31,1.27-.43,1.27-1.31Zm3.63,0c0-.87-.42-1.3-1.27-1.3s-1.27,.43-1.27,1.3,.42,1.31,1.27,1.31,1.27-.43,1.27-1.31Z"/>
      <path class="cls-21" d="M215.42,441.56c1.64,0,2.95-.48,3.95-1.43,1.06-1.04,1.59-2.46,1.59-4.27v-14.83l-2.13,1.11v13.69c0,2.5-1.21,3.76-3.63,3.76h-.89v1.97h1.11Z"/>
      <path class="cls-21" d="M250.08,436.05v-15.03l-2.1,1.11v17.7c0,1.63-.48,2.96-1.43,3.98-1.13,1.23-2.71,1.85-4.74,1.85-1.76,0-3.21-.56-4.36-1.69-1.21-1.19-1.82-2.72-1.82-4.58s.52-3.5,1.56-5.03l-2.1,.48c-.93,1.27-1.4,2.83-1.4,4.68,0,2.04,.58,3.79,1.75,5.25,1.49,1.89,3.61,2.83,6.37,2.83,2.23,0,4.08-.58,5.54-1.75,1.64-1.29,2.54-3.07,2.71-5.32,.91,.68,2.05,1.02,3.41,1.02h1.37v-1.97h-1.12c-2.42,0-3.63-1.18-3.63-3.53Z"/>
      <path class="cls-21" d="M258.8,435.96c0,2.42-1.17,3.63-3.5,3.63h-1.12v1.97h1.37c1.91,0,3.34-.64,4.3-1.91,.97,1.27,2.46,1.91,4.46,1.91,1.63,0,2.96-.56,3.98-1.69,1.16-1.27,1.75-3.04,1.75-5.32,0-1.99-.46-3.61-1.37-4.84-1.06-1.44-2.58-2.16-4.55-2.16-1.53,0-2.76,.43-3.69,1.27-1.08,1-1.62,2.4-1.62,4.2v2.93Zm2.13-2.74c0-2.48,1.06-3.72,3.18-3.72,1.21,0,2.15,.45,2.82,1.34,.67,.89,1,2.12,1,3.69s-.32,2.83-.95,3.72c-.64,.89-1.51,1.34-2.61,1.34-2.29,0-3.44-1.17-3.44-3.5v-2.86Z"/>
      <path class="cls-21" d="M282.04,441.56v-1.97h-1.11c-2.33,0-3.5-1.21-3.5-3.63v-14.93l-2.13,1.11v13.88c0,1.53,.4,2.79,1.21,3.79,.98,1.17,2.37,1.75,4.17,1.75h1.37Z"/>
      <path class="cls-21" d="M294.81,435.96v-.45c0-2.38-.87-4.23-2.61-5.57-1.36-1.04-3.06-1.56-5.09-1.56-.24,0-.46,.01-.67,.03l6.53-7.39h-2.2l-7.23,8.02v2.1c1.13-.4,2.26-.6,3.41-.6,1.53,0,2.8,.36,3.82,1.08,1.27,.87,1.91,2.17,1.91,3.92v.32c0,2.48-1.16,3.72-3.47,3.72h-7.8v1.97h8.02c1.93,0,3.38-.65,4.33-1.94,.96,1.29,2.39,1.94,4.3,1.94h1.05v-1.97h-.8c-2.33,0-3.5-1.21-3.5-3.63Z"/>
      <path class="cls-21" d="M305.22,435.96v-8.02l-2.13,1.11v6.91c0,2.42-1.17,3.63-3.5,3.63h-1.11v1.97h1.37c1.89,0,3.33-.65,4.33-1.94,.95,1.29,2.39,1.94,4.3,1.94h1.37v-1.97h-1.11c-2.33,0-3.5-1.21-3.5-3.63Zm-2.26-13.43c0-.87-.43-1.3-1.27-1.3s-1.27,.43-1.27,1.3,.42,1.31,1.27,1.31,1.27-.43,1.27-1.31Zm3.63,0c0-.87-.42-1.3-1.27-1.3s-1.27,.43-1.27,1.3,.43,1.31,1.27,1.31,1.27-.43,1.27-1.31Z"/>
      <path class="cls-21" d="M325.68,435.96v-1.08c0-2.12-.46-3.82-1.37-5.09-1.04-1.49-2.56-2.23-4.55-2.23-1.74,0-3.13,.57-4.17,1.72-1.19,1.29-1.78,3.16-1.78,5.6v1.08c0,2.42-1.17,3.63-3.5,3.63h-1.11v1.97h1.37c1.93,0,3.39-.66,4.36-1.97,1.04,1.74,2.65,2.61,4.84,2.61s3.78-.88,4.84-2.64c.95,1.34,2.4,2,4.33,2h1.37v-1.97h-1.08c-2.35,0-3.53-1.21-3.53-3.63Zm-9.74-1.12c0-3.56,1.27-5.35,3.82-5.35s3.79,1.78,3.79,5.35c0,1.66-.34,2.97-1.02,3.93-.68,.97-1.6,1.45-2.77,1.45-2.55,0-3.82-1.79-3.82-5.38Z"/>
      <path class="cls-21" d="M330.78,441.56c1.63,0,2.95-.48,3.95-1.43,1.06-1.04,1.59-2.46,1.59-4.27v-14.83l-2.13,1.11v13.69c0,2.5-1.21,3.76-3.63,3.76h-.89v1.97h1.11Z"/>
      <path class="cls-21" d="M344.18,441.56v-20.53l-2.13,1.11v19.42h2.13Z"/>
      <path class="cls-21" d="M370.7,449.9c-1.46,1.08-3.41,1.62-5.83,1.62h-.06c-1.72,0-3.11-.46-4.17-1.37-1.13-.98-1.69-2.23-1.69-3.76,0-1.25,.4-2.3,1.21-3.15,1.06-1.13,2.62-1.69,4.68-1.69h5.57v-1.97h-5.63c-1.57,0-2.82-.48-3.76-1.43-.98-.98-1.46-2.28-1.46-3.92,0-1.4,.4-2.54,1.21-3.42,.81-.88,1.87-1.32,3.18-1.32,1.99,0,3.64,.91,4.93,2.74v-2.1c-1.25-1.72-2.96-2.58-5.12-2.58-1.59,.02-2.96,.53-4.11,1.53-1.46,1.25-2.2,2.95-2.2,5.09,0,2.97,1.08,5.07,3.25,6.3-1.17,.53-2.09,1.33-2.77,2.39s-1.02,2.25-1.02,3.57c0,1.8,.61,3.36,1.85,4.68,1.48,1.59,3.5,2.39,6.05,2.39,2.19,0,4.15-.55,5.89-1.66v-1.94Z"/>
      <path class="cls-21" d="M377.29,441.56v-20.53l-2.13,1.11v19.42h2.13Z"/>
      <path class="cls-21" d="M387.82,441.56c1.68,0,2.87-.62,3.6-1.85,.98,1.23,2.39,1.85,4.24,1.85h1.21v-1.97h-.99c-2.42,0-3.64-1.25-3.66-3.76-.06-3.54-1.78-6.29-5.16-8.25l-1.05,1.75c2.74,1.53,4.11,3.85,4.11,6.97,0,1.21-.2,2.06-.59,2.55-.39,.49-1.08,.73-2.05,.73h-5.98l-1.02,1.97h7.36Z"/>
      <path class="cls-21" d="M397.6,441.56c1.59,0,2.86-.46,3.82-1.37,1.04-1,1.56-2.39,1.56-4.17v-8.09l-2.13,1.11v6.91c0,2.42-1.17,3.63-3.5,3.63h-1.11v1.97h1.37Zm4.11,4.62c0-.85-.41-1.27-1.24-1.27-.87,0-1.31,.43-1.31,1.27,0,.89,.44,1.34,1.31,1.34s1.24-.45,1.24-1.34Z"/>
      <path class="cls-21" d="M420.32,435.83c0,2.5-1.21,3.76-3.63,3.76h-2.23v-14.42l-2.1,1.11v13.31h-4.87l-1.02,1.97h10.44c1.63,0,2.94-.48,3.92-1.43,1.06-1.04,1.59-2.46,1.59-4.27v-14.83l-2.1,1.11v13.69Zm-5.32,8.85c-.44-.28-.9-.41-1.37-.41-.61,0-1.14,.22-1.59,.65s-.67,.95-.67,1.54c0,.38,.11,.76,.32,1.15h-.83l-.61,1.15h4.93l.6-1.15h-2.8c-.3-.36-.45-.72-.45-1.08,0-.3,.12-.56,.35-.78,.23-.22,.52-.33,.86-.33,.4,0,.82,.16,1.24,.48v-1.21Z"/>
      <path class="cls-21" d="M430.29,441.56v-20.53l-2.13,1.11v19.42h2.13Z"/>
    </g>
  </g>
</svg>