<svg xmlns="http://www.w3.org/2000/svg" version="1.1" xmlns:xlink="http://www.w3.org/1999/xlink" width="512" height="512" x="0" y="0" viewBox="0 0 512 512" style="enable-background:new 0 0 512 512" xml:space="preserve"><g><path d="M186.92 301.558H69.627c-10.969 0-20.292 8.972-20.193 19.938.096 10.646 8.616 19.274 19.217 19.56l-8.778-.003c-11.097 0-20.058 9.146-19.752 20.311.295 10.761 9.396 19.201 20.162 19.201h6.497l-.105.046c-11.097 0-20.058 9.146-19.752 20.311.295 10.761 9.396 19.201 20.163 19.201H77.53c-10.663.19-19.267 8.82-19.4 19.495-.138 11.004 9.189 20.008 20.196 20.008h31.001M301.716 325.045h-50.289c-12.018-36.197-41.566-48.155-64.507-58.437M144.327 459.627h58.326c18.984 0 35.523-10.429 44.227-25.864h54.836M459.802 433.763h24.026c11.417 0 20.672-9.253 20.672-20.668v-67.382c0-11.415-9.255-20.668-20.672-20.668H459.81M77.53 420.124h56.099M133.629 341.054H68.65M66.78 380.566h66.849" style="stroke-linecap: round; stroke-linejoin: round; stroke-miterlimit: 10;" fill="none" stroke="#DA9C28" stroke-width="15px" stroke-linecap="round" stroke-linejoin="round" stroke-miterlimit="10" data-original="#000000" opacity="1"></path><path d="M325.206 210.442v50.091c-36.203 12.016-48.163 41.559-58.446 64.497M301.716 325.029v117.275c0 10.967 8.973 20.289 19.942 20.19 10.647-.096 19.277-8.615 19.563-19.214l-.003 8.777c0 11.095 9.148 20.054 20.314 19.749 10.763-.295 19.204-9.394 19.204-20.159v-6.496l.046.105c0 11.095 9.148 20.054 20.314 19.748 10.763-.295 19.204-9.394 19.204-20.159v-10.443c.19 10.662 8.822 19.264 19.499 19.397 11.006.137 20.011-9.188 20.011-20.193V309.299c0-18.981-10.431-35.518-25.868-44.22v-54.638M433.942 52.386V28.168c0-11.415-9.255-20.668-20.672-20.668h-67.392c-11.417 0-20.672 9.254-20.672 20.668v24.204M420.3 434.402v-56.089M341.218 378.313v64.968M380.736 445.151v-66.838M52.325 78.237H28.172C16.755 78.237 7.5 87.49 7.5 98.905v67.382c0 11.415 9.255 20.668 20.672 20.668h24.146" style="stroke-linecap: round; stroke-linejoin: round; stroke-miterlimit: 10;" fill="none" stroke="#DA9C28" stroke-width="15px" stroke-linecap="round" stroke-linejoin="round" stroke-miterlimit="10" data-original="#000000" opacity="1"></path><path d="M325.08 210.442h117.294c10.969 0 20.292-8.972 20.193-19.938-.096-10.646-8.616-19.274-19.217-19.56l8.778.003c11.097 0 20.058-9.146 19.752-20.311-.295-10.761-9.396-19.201-20.163-19.201h-6.497l.105-.046c11.097 0 20.058-9.146 19.752-20.311-.295-10.761-9.396-19.201-20.163-19.201H434.47c10.663-.19 19.266-8.82 19.4-19.495.138-11.004-9.189-20.008-20.196-20.008H407.79M210.411 186.955h50.161c12.018 36.197 41.566 48.155 64.507 58.437M372.79 52.373h-63.443c-18.985 0-35.523 10.429-44.227 25.864h-54.709M434.47 91.876h-56.099M378.371 170.946h64.979M445.22 131.434h-66.849M91.827 77.598v56.089M170.909 133.687V68.719M131.391 66.849v66.838" style="stroke-linecap: round; stroke-linejoin: round; stroke-miterlimit: 10;" fill="none" stroke="#DA9C28" stroke-width="15px" stroke-linecap="round" stroke-linejoin="round" stroke-miterlimit="10" data-original="#000000" opacity="1"></path><path d="m186.92 301.558.001-50.091c36.203-12.016 48.163-41.559 58.446-64.497M210.411 186.971V69.696c0-10.967-8.973-20.289-19.942-20.19-10.647.096-19.277 8.614-19.563 19.214l.003-8.777c0-11.095-9.148-20.054-20.314-19.749-10.763.295-19.204 9.394-19.204 20.159v6.496l-.046-.105c0-11.095-9.148-20.054-20.314-19.748-10.763.295-19.204 9.395-19.204 20.159v10.443c-.19-10.662-8.822-19.263-19.499-19.397-11.006-.137-20.011 9.188-20.011 20.193V202.701c0 18.982 10.431 35.518 25.868 44.22v54.638M78.326 459.627c-.047 0-.093-.007-.141-.007v24.212c0 11.415 9.255 20.668 20.672 20.668h67.392c11.417 0 20.672-9.254 20.672-20.668v-24.204" style="stroke-linecap: round; stroke-linejoin: round; stroke-miterlimit: 10;" fill="none" stroke="#DA9C28" stroke-width="15px" stroke-linecap="round" stroke-linejoin="round" stroke-miterlimit="10" data-original="#000000" opacity="1"></path></g></svg>