<svg xmlns="http://www.w3.org/2000/svg" version="1.1" xmlns:xlink="http://www.w3.org/1999/xlink" width="512" height="512" x="0" y="0" viewBox="0 0 512 512" style="enable-background:new 0 0 512 512" xml:space="preserve"><g><path d="M371.135 80.553H117.304c-4.143 0-7.5 3.357-7.5 7.5s3.358 7.5 7.5 7.5h253.831c4.143 0 7.5-3.357 7.5-7.5s-3.357-7.5-7.5-7.5zM159.501 326.92h-42.2c-4.143 0-7.5 3.357-7.5 7.5s3.357 7.5 7.5 7.5h42.2c4.143 0 7.5-3.357 7.5-7.5s-3.357-7.5-7.5-7.5z" fill="#DA9C28" opacity="1" data-original="#000000"></path><path d="M510.306 95.042c-1.763-2.518-4.658-4.015-7.805-4.015l-.083.001c-24.456.354-49.343 1.465-74.086 3.289V38.79c0-21.389-17.424-38.79-38.84-38.79H38.85C17.428 0 0 17.401 0 38.79c0 4.143 3.357 7.5 7.5 7.5h55.191v17.96c0 4.143 3.357 7.5 7.5 7.5s7.5-3.357 7.5-7.5V38.79A38.562 38.562 0 0 0 69.509 15h319.983c13.146 0 23.84 10.672 23.84 23.79v79.49a2666.503 2666.503 0 0 0-9.71-7.646c-3.357-2.633-8.163-2.662-11.725-.042a1273.34 1273.34 0 0 0-25.141 19.238H117.3c-4.143 0-7.5 3.357-7.5 7.5s3.357 7.5 7.5 7.5h230.703a1289.918 1289.918 0 0 0-40.33 34.27H117.3c-4.143 0-7.5 3.357-7.5 7.5s3.357 7.5 7.5 7.5h173.735c-1.664 1.526-3.344 3.038-4.998 4.571-2.731 2.566-3.803 6.489-2.73 9.986a1208.05 1208.05 0 0 0 5.351 17.063c-4.591-1.617-8.8-3.067-14.907-5.146-3.984-1.359-8.39.056-10.987 3.553-1.032 1.407-2.051 2.831-3.079 4.243H117.3c-4.143 0-7.5 3.357-7.5 7.5s3.357 7.5 7.5 7.5h131.63a1313.243 1313.243 0 0 0-23.402 34.28H117.3c-4.143 0-7.5 3.357-7.5 7.5s3.357 7.5 7.5 7.5h98.463a1291.458 1291.458 0 0 0-15.415 24.665 9.906 9.906 0 0 0-1.135 7.402c.183.734.378 1.468.562 2.202h-8.108c-4.143 0-7.5 3.357-7.5 7.5s3.357 7.5 7.5 7.5h11.963a1383.529 1383.529 0 0 0 11.55 41.322 1150.583 1150.583 0 0 0-32.668 51.025 7.501 7.501 0 0 0 12.844 7.75 1135.001 1135.001 0 0 1 32.506-50.751c21.428-1.643 40.388-2.664 57.875-3.116a9.572 9.572 0 0 0 6.83-3.137 1185.649 1185.649 0 0 1 41.287-43.094h37.276c4.143 0 7.5-3.357 7.5-7.5s-3.357-7.5-7.5-7.5h-21.885a1161.81 1161.81 0 0 1 13.909-13.122c3.165-2.897 4.01-7.579 2.055-11.383a1743.258 1743.258 0 0 1-4.98-9.765h8.004c1.773.509 3.665 1.057 5.779 1.671a9.506 9.506 0 0 0 9.973-3.053 1145.537 1145.537 0 0 1 29.346-33.664V416c0 4.143 3.357 7.5 7.5 7.5s7.5-3.357 7.5-7.5V241.388c12.842-13.64 25.997-26.984 39.42-39.917 3.132-2.978 3.881-7.693 1.824-11.465a2739.941 2739.941 0 0 1-6.235-11.501c3.819.999 7.558 2.011 12.646 3.409 5.038 1.381 10.31-1.584 11.741-6.566a1153.135 1153.135 0 0 1 23.664-71.559 9.463 9.463 0 0 0-1.085-8.747zM16.214 31.29C19.371 21.836 28.325 15 38.85 15c10.519 0 19.464 6.837 22.62 16.29H16.214zm458.628 134.76c-6.778-1.841-11.516-3.064-19.657-5.101-3.686-.92-7.578.432-9.931 3.441-2.33 2.983-2.697 7.049-.935 10.359a2231.47 2231.47 0 0 0 10.087 18.76 1171.202 1171.202 0 0 0-38.798 39.504c-.13.126-.252.259-.372.395a1167.729 1167.729 0 0 0-40.283 45.297 7.451 7.451 0 0 0-3.822-1.055h-.791c-6.263-1.788-11.228-3.147-19.148-5.263-3.61-.964-7.487.292-9.875 3.201-2.384 2.904-2.859 6.942-1.213 10.289l.002.002 1.271 2.578c.049.099.093.2.146.296a1199.369 1199.369 0 0 0 8.45 16.817 1189.88 1189.88 0 0 0-24.363 23.397 1200.768 1200.768 0 0 0-42.585 44.25c-13.692.39-28.291 1.124-44.228 2.217 51.609-73.372 111.719-140.316 179.386-199.675a7.5 7.5 0 0 0-9.893-11.275c-68.72 60.281-129.748 128.284-182.122 202.828a1373.907 1373.907 0 0 1-11.862-44.074 1294.92 1294.92 0 0 1 58.326-87.198c7.652 2.617 12.45 4.306 21.055 7.396 3.164 1.136 6.614.515 9.247-1.579.252-.189.494-.392.719-.611.019-.018.04-.031.058-.049l.017-.019a7.53 7.53 0 0 0 .533-.596c2.274-2.605 3.039-6.129 1.955-9.414a1200.68 1200.68 0 0 1-7.588-23.712 1272.483 1272.483 0 0 1 99.022-82.439c5.98 4.701 9.826 7.755 16.634 13.199 2.28 1.824 5.179 2.45 7.967 1.835.303-.059.6-.134.889-.228.108-.035.213-.079.32-.117a7.69 7.69 0 0 0 .477-.196c.199-.083.401-.148.596-.245 3.416-1.689 5.569-5.212 5.484-8.971-.192-8.643-.262-13.607-.273-21.051a1247.47 1247.47 0 0 1 64.822-3.074 1171.427 1171.427 0 0 0-19.724 59.881z" fill="#DA9C28" opacity="1" data-original="#000000"></path><path d="M452.191 465.712h-23.859v-17.738c0-4.143-3.357-7.5-7.5-7.5s-7.5 3.357-7.5 7.5v17.738h-280.45a7.499 7.499 0 0 0-7.5 7.5c0 13.116-10.696 23.787-23.844 23.788-13.149-.001-23.847-10.673-23.847-23.79V96c0-4.143-3.357-7.5-7.5-7.5a7.499 7.499 0 0 0-7.5 7.5v377.21c0 21.385 17.422 38.784 38.84 38.79h319.315c21.42 0 38.846-17.4 38.846-38.788a7.5 7.5 0 0 0-7.501-7.5zM420.846 497H132.2a38.608 38.608 0 0 0 7.454-16.288h303.824c-3.157 9.453-12.11 16.288-22.632 16.288z" fill="#DA9C28" opacity="1" data-original="#000000"></path></g></svg>