<?xml version="1.0" encoding="UTF-8"?>
<svg id="Layer_1" data-name="Layer 1" xmlns="http://www.w3.org/2000/svg" viewBox="0 0 367.27 456.28">
  <defs>
    <style>
      .cls-1 {
        fill: #7db238;
      }
    </style>
  </defs>
  <rect class="cls-1" x="41.29" y="146.86" width="278.59" height="13"/>
  <path class="cls-1" d="M355.08,423.33c.39-4.43,2.71-5.83,5.51-6.35h1.25c1.7-.14,3.49-.11,5.07-.31v-.2c.1-.01,.19-.01,.3-.03v-29.61c-1.31-.03-2.68,.03-4,.01-2.77-.39-4.75-.91-6.07-1.66-1.06-.91-1.79-2.28-1.89-4.51-.08-2.03,.31-3.45,1.01-4.46,2.31-2.9,7-2.14,10.68-2.54v-.3c.1-.01,.19-.01,.27-.03v-29.31c-9.37-.9-12.21-2.26-12.08-6.45,.11-3.07,1.13-4.75,2.61-5.7,2.52-1.4,6.2-.95,9.19-1.28v-29.52c-9.21-.73-12.21-2.18-12.09-6.39,.24-8.3,7.13-6.64,12.09-7.17v-29.52c-9.12-.67-12.23-2.15-12.09-6.39,.24-8.28,7.13-6.65,12.08-7.21v-29.5c-9.06-.58-12.23-2.12-12.09-6.42,.29-8.27,7.18-6.61,12.23-7.21v-29.43c-5.14-.42-11.86,.87-12.1-6.53-.27-8.2,7.14-6.54,12.08-7.15v-29.18c-9.47-1.12-12.12-2.62-12.28-6.85-.16-4.37,2.42-5.92,12.24-7.32v-29.01c-9.17-.73-12.5-2.49-12.17-6.88,.6-7.83,7.11-6.42,12.27-7.11v-29.33c-5.32,.1-11.79,.83-12.12-6.34-.38-8.16,6.99-6.68,12.06-7.47V.05h-30.42c-.58,5.1,1.32,11.91-6.49,12.12-8.32,.2-6.16-7-7.06-12.05h-28.35c-.76,9.59-2,11.84-6.5,12.16-4.61,.31-5.75-1.46-7.83-12.2h-27.93c-1.06,4.99,1.12,11.68-6.83,12.17-4.49,.27-5.64-1.79-7.21-12.14h-28.23c-.92,9.95-1.93,12.05-6.38,12.12-8.7,.12-6.32-7.23-7.56-12.17h-28.01c-1.32,10.19-2.46,12.13-7,12.23-4.69,.08-6.04-2.15-7.28-12.14h-28.22c-1.05,10.12-2,12.08-6.42,12.1-8.69,.07-6.23-7.28-7.4-12.23h-28.42c-.34,5.11,1.06,11.52-6.11,12.1-8.77,.71-6.73-7.13-7.93-12.12h-27.97c-1.16,4.98,1.09,12.28-7.14,12.18-8.13-.11-5.77-7.38-6.85-12.17H.18V28.74c9.1,.76,12.23,2.31,12.06,6.62-.3,8.12-6.98,6.88-12.2,7.4v28.99c9.63,1.18,12.13,2.6,12.29,6.91,.16,4.39-2.56,6.05-12.21,7.34v28.9c9.53,1.06,12.52,2.65,12.14,7-.67,7.72-7.06,6.47-12.27,6.92v29.35c5.18,.52,12.23-.87,12.14,6.96-.08,7.68-7.17,6.19-12.09,6.76v29.32c5.19,.69,12.31-.84,12.09,7.11-.2,7.43-6.87,6.19-12.06,6.57v29.46c5.14,.56,11.95-.88,12.06,6.64,.11,7.82-6.81,6.53-12.04,6.98v29.51c5.18,.49,11.95-.88,12.05,6.64,.11,7.86-6.92,6.41-12.04,6.94v29.7c5.34,.07,11.93-.97,12.04,6.47,.04,2.84-.88,4.43-2.3,5.37-2.5,1.4-6.36,.99-9.4,1.33v.2c-.11,.01-.22,.01-.33,.03v29.29c9.59,1.16,12.47,2.67,12.17,6.87-.2,2.84-1.21,4.42-2.61,5.33-2.5,1.44-6.19,1.02-9.21,1.32v.24c-.11,.01-.23,.01-.34,.03v29.71H5.13c5.44,.83,7.55,2.52,7.43,5.97-.29,8.27-7.22,6.57-12.05,7.17v26.14H27.96c.64-5.05-1.17-11.57,6.21-12.05,8.62-.57,6.51,6.99,7.62,12.09h28.16c.79-5.14-.8-11.55,6.85-12.18,4.65-.38,6.05,2.12,7.32,12.08h28.2c1.03-10.05,2.04-12.08,6.45-12.08,8.62,0,6.2,7.33,7.38,12.18h28.18c.97-9.94,2.22-12.12,6.87-12.24,4.54-.11,5.81,1.94,7.41,12.25h28c1.07-5.07-1.05-12.36,7.21-12.12,7.78,.23,5.92,7.02,6.64,12.08h28.53c.61-5.07-1.14-11.57,6.23-12.05,8.66-.57,6.42,7.06,7.6,12.08h28.03c1.36-10.16,2.52-12.13,7-12.23,4.68-.11,6.05,2.16,7.3,12.13h28.22c1.03-10.06,2.01-12.06,6.43-12.08,8.64-.03,6.23,7.3,7.4,12.16h30.07v-25.92c-9.72-1.2-12.58-2.73-12.2-7m-10.09,16.6c-7.34-11.41-23.64-10.38-30.82,1.37-2.76,4.53-7.45,4.49-10.28-.1-7.59-12.31-24.14-12.35-31.8-.1-3.02,4.81-7.47,4.75-10.57-.18-7.52-11.97-24.08-11.95-31.56,.01-3.06,4.9-7.55,4.98-10.51,.19-7.56-12.25-24.23-12.24-31.82,.01-2.88,4.66-7.45,4.72-10.31,.14-7.79-12.52-24.36-12.47-32.08,.11-2.65,4.32-7.43,4.38-10.02,.11-7.82-12.85-24.38-12.76-32.26,.18-2.39,3.93-7.38,3.93-9.82,0-7.97-12.92-24.37-13.03-32.31-.22-2.69,4.34-7.38,4.32-10.06-.04-7.72-12.59-24.53-12.74-31.96-.04-1.84,3.13-3.73,3.49-7.87,2.34,1.31-1.56,2.01-3.01,3.17-3.73,13.95-8.68,13.84-24.64-.27-33.41-2.62-1.63-3.1-6.39-1.09-8.66,.12-.12,.27-.22,.41-.34,.22-.18,.42-.38,.68-.52,14.43-7.22,13.54-27.35-.11-33.73-3.06-1.43-2.87-7-.12-9.18,.12-.1,.22-.2,.35-.29,2.38-1.43,4.31-3.11,5.86-4.96l.08-.08c.58-.71,1.12-1.43,1.58-2.18,3.28-5.02,3.88-10.77,1.67-16.01h-.38c-1.6-3.78-4.57-7.26-8.93-9.93-3.39-2.05-3.48-7.72-.15-9.76,14.02-8.61,14.02-24.71,.01-33.39-3.33-2.07-3.26-7.74,.12-9.78,13.74-8.27,13.83-24.91,.18-33.15-3.63-2.19-3.66-7.87-.05-10.02,13.48-8,13.65-24.91,.33-32.9-3.98-2.38-4.08-7.94-.18-10.25,13.42-7.91,13.45-24.89,.05-32.92-3.94-2.37-3.89-7.87,.1-10.23,13.14-7.75,13.22-24.87,.16-32.68-4.24-2.54-4.24-7.93,.01-10.46,13.04-7.77,12.96-24.87-.16-32.72-4.03-2.41-4.08-7.87-.11-10.23,13.18-7.85,13.37-24.9,.35-32.69q-3.29-1.97-2.64-7.18c3.2-1.24,4.99-.16,6.83,2.92,7.33,12.32,24.18,12.12,31.71-.2,2.8-4.57,7.45-4.54,10.29,.05,7.72,12.48,24.36,12.35,32.07-.26,2.62-4.28,7.43-4.28,10.02,.01,7.74,12.82,24.4,12.7,32.24-.22,2.39-3.96,7.36-3.96,9.81,.01,8.08,13.14,24.3,13.06,32.54-.18,2.35-3.77,7.26-3.78,9.56-.04,8.3,13.45,24.23,13.34,32.73-.22,2.09-3.33,7.28-3.36,9.36-.05,8.69,13.82,24.07,13.76,32.96-.11,1.99-3.1,7.43-3.32,9.06-.05,7.07,14.22,27.33,13.25,33.32-.16,1.43-3.21,7.13-2.79,9.06,.31,8.61,13.82,24.04,13.65,33.17,.04,1.31-1.96,5.24-2.15,8.24-3.26,1.39,5.02,.53,7.09-2.79,9.03-12.32,7.23-12.12,24.38,.12,31.86,4.9,2.99,4.94,8.04,.08,10.97-12.47,7.55-12.43,24.67,.08,32.2,4.57,2.75,4.66,8.02,.18,10.7-12.8,7.67-12.81,24.83-.03,32.46,4.56,2.72,4.5,7.93-.12,10.72-12.74,7.67-12.61,24.85,.26,32.43,4.24,2.5,4.24,7.93,0,10.47-13.07,7.81-12.99,24.93,.15,32.67,3.98,2.35,4.05,7.89,.12,10.24-13.41,8.04-13.41,24.95,0,32.92,3.94,2.34,3.88,7.85-.14,10.25-13.33,7.97-13.18,24.86,.29,32.91,3.62,2.16,3.62,7.83-.01,10.01-13.65,8.2-13.59,24.83,.15,33.15,3.4,2.07,3.47,7.71,.12,9.76-1.71,1.02-3.21,2.19-4.49,3.47-9.32,8.99-7.82,22.3,4.51,29.95,3.21,1.99,3.2,7.32,.12,9.53-.11,.07-.19,.16-.3,.23-1.06,.63-2,1.33-2.9,2.07-.15,.12-.29,.26-.45,.38-.61,.53-1.18,1.09-1.71,1.66-.33,.34-.63,.68-.91,1.03-.15,.18-.29,.37-.42,.56-1.07,1.4-2,2.87-2.64,4.41h.2c-3.09,8.01-.15,17.43,8.85,22.87,1.25,.76,2.14,2.11,3.78,3.79-5.77,1.37-8.88,1.02-11.97-3.75"/>
  <path class="cls-1" d="M66.92,64.81c2.39,0,4.28-1.97,4.28-4.46s-1.89-4.38-4.28-4.38-4.46,1.99-4.46,4.38c.01,2.56,2,4.46,4.46,4.46"/>
  <path class="cls-1" d="M62.31,111.19h16.67v-21.2c0-11.72-5.86-18.48-17.67-18.48-13.69,0-20.63,9.4-20.63,20.47,0,11.71,5.78,19.22,21.62,19.22m-1.66-33.67c6.84,0,10.89,3.88,10.89,13.79v13.86h-8.17c-10.55,0-15.01-4.54-15.01-13.95,0-8.24,4.62-13.69,12.29-13.69"/>
  <path class="cls-1" d="M54.72,64.81c2.39,0,4.38-1.97,4.38-4.46s-1.99-4.38-4.38-4.38-4.38,1.99-4.38,4.38c0,2.56,1.89,4.46,4.38,4.46"/>
  <path class="cls-1" d="M305.26,123.56c0-2.56-2.07-4.46-4.54-4.46s-4.46,1.99-4.46,4.46,1.99,4.46,4.46,4.46,4.54-1.99,4.54-4.46"/>
  <path class="cls-1" d="M298.49,72.08c-3.63,0-7.1,.24-9.82,.67v5.94c3.06-.41,5.86-.57,9.17-.57,13.53,0,18.07,6.11,18.07,18.56,0,2.72-.24,5.62-.57,8.5H124.29c-.49-19.39-9.07-29.05-26.4-34.41l-1.9,6.43c14.61,4.46,20.55,12.88,20.79,27.97h-26.49v6.02h231.77c.99-5.94,1.32-11.14,1.32-15.09,.04-15.69-6.73-24.03-24.89-24.03"/>
  <path class="cls-1" d="M318.07,313.23c.52-.2,.94-.65,.95-1.37,.14-5.39,.14-10.77-.01-16.17-.03-.76-.49-1.22-1.06-1.4-.05-.24-.16-.5-.39-.73-2.58-2.64-5.15-5.26-7.77-7.89-.54-.54-1.21-.54-1.74-.26-.01,0-.03-.01-.04-.01-7.13-.07-14.25-.14-21.39-.22-.61,0-1.01,.29-1.24,.68-.01,.01-.03,.01-.04,.03-2.34,2.3-4.66,4.6-6.91,6.99-2.42-2.48-4.83-4.94-7.28-7.38-.54-.54-1.21-.54-1.74-.26-.01,0-.03-.01-.04-.01-7.13-.07-14.25-.15-21.39-.22-.61,0-1.01,.29-1.25,.69-.01,.01-.03,.01-.04,.03-2.46,2.42-4.94,4.84-7.29,7.37-2.35-2.41-4.72-4.81-7.1-7.21-.54-.54-1.21-.54-1.74-.26-.01,0-.03-.01-.04-.01-7.13-.07-14.25-.14-21.38-.22-.61-.01-1.01,.29-1.25,.68-.01,.01-.03,.01-.04,.03-2.34,2.3-4.66,4.61-6.91,6.99-2.42-2.48-4.83-4.94-7.28-7.38-.54-.54-1.21-.54-1.74-.26-.01,0-.03-.01-.04-.01-7.13-.07-14.27-.15-21.39-.22-.61,0-1.01,.29-1.24,.68-.01,.01-.03,.01-.04,.03-2.39,2.35-4.77,4.71-7.07,7.14-2.37-2.42-4.73-4.83-7.11-7.23-.54-.54-1.21-.54-1.74-.26-.01,0-.03-.01-.04-.01-7.13-.07-14.25-.15-21.39-.22-.61,0-1.01,.29-1.24,.68-.01,.01-.03,.01-.04,.03-2.34,2.3-4.66,4.61-6.91,6.99-2.42-2.48-4.83-4.94-7.28-7.38-.56-.56-1.21-.54-1.74-.26h-.04c-7.13-.08-14.27-.15-21.39-.22-.61-.01-1.01,.29-1.24,.68-.01,.01-.03,.01-.04,.03-2.38,2.34-4.76,4.69-7.06,7.13-2.43-2.49-4.87-4.98-7.33-7.44-.54-.54-1.21-.54-1.74-.26h-.04c-7.13-.07-14.27-.15-21.39-.22-.61-.01-1.01,.29-1.24,.68-.01,.01-.03,.01-.04,.03-2.64,2.6-5.29,5.15-7.81,7.87-.18,.19-.3,.41-.35,.63-.41,.23-.72,.64-.71,1.26,.15,5.39,.15,10.77,.01,16.17,0,.22,.04,.41,.11,.58-.16,.48-.1,1.01,.38,1.46,2.52,2.38,5.09,4.71,7.72,6.96,.07,.05,.15,.08,.22,.12-2.43,2.39-4.9,4.76-7.21,7.28-.16,.18-.26,.35-.33,.54-.44,.29-.78,.73-.72,1.26,.15,1.46,.15,2.9,.01,4.35-.08,.83,.76,1.55,1.55,1.55,.9,0,1.47-.71,1.55-1.55,.12-1.29,.1-2.57-.01-3.86,.05-.04,.1-.05,.15-.11,2.5-2.72,5.17-5.29,7.81-7.87,.2-.2,.31-.42,.38-.64,6.51,.27,13.04,.34,19.57,.22,.05,.05,.07,.12,.12,.19,2.58,2.6,5.15,5.21,7.72,7.83,.14,1.43,.15,2.84,.01,4.26-.08,.83,.76,1.55,1.55,1.55,.9,0,1.47-.71,1.55-1.55,.12-1.26,.08-2.53-.01-3.81,.05-.04,.1-.05,.15-.11,2.5-2.72,5.17-5.29,7.81-7.87,.2-.19,.31-.42,.38-.64,6.51,.27,13.04,.34,19.57,.22,.05,.07,.07,.12,.12,.19,2.52,2.53,5.03,5.09,7.53,7.64,0,.03-.01,.04-.01,.07,.15,1.46,.15,2.9,.01,4.35-.08,.83,.78,1.55,1.55,1.55,.9,0,1.47-.71,1.55-1.55,.12-1.24,.08-2.45-.01-3.67,.04-.04,.1-.05,.15-.11,2.5-2.72,5.15-5.29,7.79-7.87,.2-.2,.31-.42,.38-.64,6.53,.27,13.04,.34,19.57,.22,.05,.07,.07,.12,.12,.19,2.52,2.53,5.02,5.07,7.52,7.63,.14,1.4,.15,2.8,.01,4.22-.08,.83,.76,1.55,1.55,1.55,.9,0,1.47-.71,1.55-1.55,.12-1.26,.08-2.52-.01-3.78,.05-.04,.1-.05,.15-.11,2.5-2.72,5.17-5.29,7.81-7.87,.2-.19,.31-.42,.38-.64,6.51,.27,13.04,.34,19.57,.22,.05,.07,.07,.12,.12,.19,2.52,2.53,5.02,5.09,7.52,7.64,0,.01-.01,.03,0,.05,.15,1.46,.15,2.9,.01,4.35-.08,.83,.78,1.55,1.55,1.55,.91,0,1.47-.71,1.55-1.55,.12-1.22,.08-2.43-.01-3.66,.05-.04,.11-.05,.15-.11,2.5-2.72,5.15-5.29,7.81-7.87,.2-.2,.31-.42,.38-.64,6.53,.27,13.04,.34,19.57,.22,.05,.07,.07,.12,.12,.19,2.58,2.6,5.15,5.21,7.71,7.83,.11,1.32,.14,2.62,.01,3.93-.08,.83,.78,1.55,1.55,1.55,.91,0,1.47-.71,1.55-1.55,.12-1.32,.1-2.62-.01-3.94,.04-.04,.1-.05,.15-.11,2.5-2.72,5.17-5.29,7.79-7.87,.2-.2,.31-.41,.38-.64,6.51,.27,13.04,.34,19.57,.22,.05,.05,.07,.12,.12,.18,2.53,2.54,5.05,5.1,7.55,7.67,0,.07-.04,.12-.03,.19,.15,1.44,.15,2.9,.01,4.35-.08,.83,.76,1.55,1.55,1.55,.91,0,1.47-.71,1.55-1.55,.12-1.28,.08-2.54-.01-3.82,.05-.04,.1-.05,.15-.11,2.5-2.72,5.15-5.29,7.81-7.87,.2-.2,.31-.42,.38-.64,6.53,.27,13.04,.34,19.57,.22,.05,.05,.07,.12,.12,.18,2.6,2.61,5.18,5.25,7.77,7.89,.18,.18,.35,.3,.54,.37,.1,1.26,.14,2.52,.01,3.79-.08,.83,.76,1.55,1.55,1.55,.9,0,1.47-.71,1.55-1.55,.14-1.46,.14-2.9-.01-4.35-.07-.65-.49-1.13-1.07-1.35-.07-.22-.18-.45-.38-.65-2.3-2.35-4.61-4.69-6.92-7.03l6.99-7.34c.09-.07,.16-.2,.23-.34m-263.27,5.49h-.01s-.05-.1-.11-.14c-2.5-2.15-4.94-4.35-7.34-6.62,.01-.07,.04-.12,.05-.19,.14-5.25,.12-10.5-.01-15.76,.05-.04,.11-.05,.15-.11,2.43-2.65,5.03-5.15,7.6-7.67,6.89,.07,13.79,.14,20.68,.2,.07,0,.12-.03,.19-.04,2.39,2.41,4.76,4.81,7.13,7.23,0,.01-.01,.03-.01,.05,.15,5.33,.15,10.66,.01,15.99-2.31,2.43-4.62,4.85-6.94,7.29-7.14,.15-14.26,.07-21.39-.25m30.29,8.79c-2.15-2.2-4.31-4.39-6.49-6.58,1.97-2.07,3.94-4.13,5.92-6.2,2.23,2.09,4.49,4.15,6.81,6.15,.07,.05,.15,.08,.22,.12-2.19,2.13-4.37,4.28-6.46,6.51m8.54-8.7h0c-.05-.04-.07-.1-.12-.14-2.5-2.15-4.94-4.35-7.34-6.62,.01-.07,.04-.12,.04-.2,.14-5.25,.12-10.5-.01-15.76,.05-.04,.11-.05,.15-.11,2.43-2.65,5.03-5.15,7.6-7.68,6.89,.07,13.79,.14,20.68,.2,.07,0,.12-.03,.19-.04,2.34,2.35,4.65,4.72,6.98,7.09-.01,.1-.05,.18-.05,.29,.15,5.37,.15,10.74,.01,16.11-2.24,2.37-4.49,4.72-6.75,7.07-7.11,.19-14.24,.11-21.38-.2m30.24,8.73c-2.14-2.18-4.28-4.37-6.43-6.53,1.93-2.03,3.85-4.04,5.78-6.05,2.22,2.07,4.45,4.11,6.76,6.08,.07,.07,.15,.08,.22,.12-2.15,2.09-4.27,4.2-6.32,6.38m8.4-8.55h-.01s-.05-.1-.11-.14c-2.5-2.15-4.95-4.35-7.34-6.61,.01-.07,.04-.12,.04-.2,.14-5.25,.12-10.51-.01-15.76,.04-.04,.1-.05,.15-.11,2.43-2.65,5.03-5.15,7.6-7.68,6.89,.07,13.79,.14,20.68,.2,.07,0,.12-.03,.19-.04,2.33,2.34,4.64,4.68,6.94,7.04,0,.01-.01,.01,0,.03,.15,5.39,.15,10.77,.01,16.17,0,.08,.03,.15,.04,.22l-6.79,7.11c-7.14,.16-14.27,.08-21.39-.23m30.07,8.57c-2.08-2.14-4.18-4.26-6.27-6.38,1.97-2.08,3.96-4.15,5.93-6.23,2.16,2.01,4.35,4.01,6.6,5.94,.07,.05,.15,.08,.22,.12-2.19,2.15-4.37,4.3-6.47,6.54m8.57-8.72s-.01,0,0,0c-.05-.04-.07-.1-.12-.14-2.5-2.15-4.94-4.35-7.34-6.61,.01-.07,.04-.12,.05-.2,.14-5.25,.12-10.5-.01-15.76,.05-.04,.11-.05,.15-.11,2.45-2.65,5.03-5.15,7.6-7.68,6.89,.07,13.79,.14,20.68,.2,.07,0,.12-.03,.18-.04,2.34,2.35,4.66,4.72,6.98,7.09-.01,.1-.05,.18-.05,.3,.15,5.37,.15,10.74,.01,16.11-2.24,2.35-4.49,4.72-6.75,7.07-7.13,.16-14.25,.1-21.38-.23m30.23,8.73c-2.14-2.18-4.28-4.37-6.43-6.53,1.92-2.01,3.85-4.04,5.78-6.07,2.22,2.07,4.45,4.11,6.75,6.08,.07,.07,.15,.08,.22,.12-2.13,2.11-4.26,4.22-6.31,6.39m8.4-8.57s-.01,.01,0,0c-.05-.04-.07-.1-.12-.14-2.5-2.15-4.95-4.35-7.34-6.61,.01-.07,.04-.12,.04-.19,.14-5.26,.12-10.51-.01-15.76,.05-.04,.1-.05,.15-.11,2.45-2.65,5.03-5.15,7.6-7.67,6.89,.07,13.79,.14,20.68,.2,.07,0,.12-.03,.19-.04,2.39,2.39,4.76,4.81,7.13,7.23,.14,5.25,.15,10.5,.01,15.75,0,.1,.04,.18,.05,.26l-6.99,7.33c-7.14,.15-14.26,.07-21.39-.26m30.05,8.55c-2.08-2.12-4.16-4.24-6.26-6.35,2.05-2.15,4.11-4.3,6.16-6.46,2.16,2.01,4.34,4,6.57,5.92,.07,.05,.15,.08,.22,.12-2.27,2.23-4.53,4.45-6.69,6.77m8.77-8.93h0c-.05-.04-.07-.1-.12-.14-2.5-2.15-4.95-4.35-7.34-6.61,.01-.07,.04-.12,.04-.2,.14-5.25,.12-10.5-.01-15.76,.05-.04,.1-.05,.15-.11,2.45-2.65,5.03-5.15,7.6-7.67,6.89,.07,13.79,.14,20.68,.2,.07,0,.12-.03,.18-.03,2.34,2.35,4.66,4.72,6.98,7.09-.01,.1-.05,.18-.05,.3,.15,5.37,.15,10.74,.01,16.13-2.24,2.35-4.5,4.72-6.75,7.07-7.11,.12-14.24,.04-21.36-.27m30.23,8.72c-2.14-2.19-4.27-4.37-6.43-6.53l5.78-6.07c2.2,2.07,4.45,4.11,6.75,6.08,.07,.05,.15,.08,.22,.12-2.14,2.11-4.26,4.22-6.31,6.39m37.02-15.88c-2.41,2.52-4.81,5.05-7.22,7.57-7.13,.15-14.25,.08-21.38-.24h-.01c-.04-.05-.05-.1-.11-.14-2.5-2.15-4.94-4.37-7.34-6.62,.01-.07,.04-.12,.04-.2,.14-5.25,.12-10.5-.01-15.76,.05-.04,.11-.05,.15-.11,2.45-2.65,5.03-5.15,7.6-7.67,6.89,.07,13.79,.14,20.68,.2,.07,0,.12-.03,.19-.04,2.41,2.42,4.79,4.85,7.17,7.29,.18,.18,.35,.3,.54,.37,.14,5.05,.14,10.09,.01,15.12-.11,.08-.22,.12-.31,.23"/>
  <path class="cls-1" d="M316.97,363.93c-4.8-3.77-9.6-7.53-14.4-11.3-.16-.12-.34-.18-.5-.19-.26-.1-.56-.08-.83,.14-4.84,3.88-9.67,7.75-14.51,11.63-.29,.22-.33,.5-.23,.75-.08,.23-.03,.5,.23,.73,3.96,3.35,7.85,6.77,11.67,10.27-3.84,2.6-7.71,5.13-11.91,7.1-.39,.19-.44,.54-.33,.87h-10.82c-.04-.16-.14-.34-.34-.46-3.94-2.34-7.83-4.77-11.65-7.29,4.18-3.32,8.25-6.77,12.21-10.36,.44-.39,.26-.92-.11-1.18-.04-.11-.11-.22-.23-.31-4.8-3.77-9.6-7.53-14.4-11.3-.16-.12-.33-.18-.5-.19-.26-.1-.56-.08-.83,.14-4.83,3.88-9.67,7.75-14.51,11.63-.27,.22-.33,.5-.23,.75-.08,.23-.03,.5,.23,.73,3.96,3.35,7.85,6.77,11.67,10.27-3.84,2.6-7.71,5.13-11.91,7.11-.23,.11-.35,.27-.39,.46h-8.66c.18-.34,.15-.79-.27-1.03-3.94-2.34-7.83-4.76-11.65-7.29,4.18-3.32,8.25-6.77,12.21-10.36,.44-.39,.26-.92-.11-1.2-.04-.11-.12-.22-.24-.31-4.8-3.77-9.6-7.53-14.4-11.3-.16-.12-.34-.18-.5-.18-.26-.1-.56-.08-.83,.14-4.83,3.88-9.67,7.75-14.51,11.63-.29,.23-.33,.5-.23,.75-.08,.24-.03,.52,.23,.73,3.96,3.35,7.85,6.77,11.67,10.27-3.84,2.6-7.71,5.13-11.91,7.11-.48,.22-.49,.69-.29,1.03h-7.25c-.01-.23-.1-.46-.35-.61-3.94-2.34-7.83-4.77-11.65-7.29,4.18-3.32,8.25-6.77,12.21-10.36,.44-.39,.26-.92-.11-1.2-.04-.11-.11-.22-.23-.31-4.8-3.77-9.6-7.53-14.4-11.29-.16-.12-.34-.18-.5-.19-.26-.1-.56-.08-.83,.14-4.84,3.88-9.67,7.75-14.51,11.63-.27,.22-.31,.5-.23,.75-.08,.24-.03,.52,.23,.73,3.96,3.35,7.85,6.77,11.67,10.27-3.84,2.6-7.71,5.13-11.91,7.11-.3,.14-.38,.37-.37,.61h-9.89c-.01-.23-.1-.45-.35-.6-3.94-2.34-7.83-4.77-11.65-7.29,4.18-3.32,8.25-6.77,12.21-10.36,.44-.39,.26-.92-.11-1.2-.04-.11-.11-.22-.23-.31-4.8-3.77-9.6-7.53-14.4-11.29-.16-.12-.34-.18-.5-.19-.26-.1-.56-.08-.83,.14-4.83,3.88-9.67,7.75-14.51,11.63-.27,.22-.33,.5-.23,.75-.08,.24-.03,.52,.23,.73,3.96,3.35,7.85,6.77,11.67,10.27-3.84,2.6-7.71,5.13-11.91,7.11-.3,.14-.37,.37-.37,.6h-10.97c-.05-.07-.05-.15-.15-.19-3.94-2.34-7.83-4.77-11.65-7.29,4.19-3.32,8.25-6.77,12.21-10.36,.44-.39,.26-.92-.11-1.2-.04-.11-.12-.22-.23-.31-4.8-3.77-9.6-7.53-14.4-11.3-.16-.12-.34-.18-.5-.18-.26-.1-.56-.08-.83,.14-4.84,3.88-9.67,7.75-14.51,11.63-.27,.22-.33,.5-.23,.75-.08,.24-.03,.52,.23,.73,3.96,3.35,7.85,6.77,11.67,10.28-3.84,2.6-7.71,5.13-11.91,7.11-.1,.04-.11,.12-.16,.19h-8.84c.04-.29,0-.58-.33-.78-3.94-2.34-7.83-4.77-11.65-7.29,4.19-3.33,8.25-6.79,12.21-10.36,.44-.39,.26-.92-.11-1.18-.04-.11-.12-.22-.24-.33-4.8-3.77-9.6-7.53-14.4-11.29-.16-.12-.34-.18-.5-.19-.26-.1-.56-.08-.83,.14-4.84,3.88-9.67,7.75-14.51,11.63-.27,.22-.33,.5-.23,.75-.08,.23-.03,.5,.23,.73,3.96,3.35,7.85,6.77,11.67,10.28-3.84,2.6-7.71,5.13-11.91,7.1-.37,.18-.41,.48-.34,.78h-2.43c-2.34,0-2.34,3.63,0,3.63,71.04,.03,142.08,.04,213.13,.07,20.13,0,40.25,.01,60.37,.01,1.79,0,2.2-2.12,1.25-3.11,.48-.27,.71-1.02,.08-1.39-3.94-2.34-7.83-4.76-11.65-7.29,4.18-3.33,8.25-6.79,12.21-10.36,.44-.39,.26-.92-.11-1.18-.03-.11-.1-.22-.22-.3m-28.63,1.03c.39-.31,.79-.63,1.18-.95,0,.67,.03,1.35,.07,2.01-.42-.35-.84-.72-1.25-1.06m2.96,2.54h0c-.15-1.55-.2-3.09-.18-4.64,0-.05-.01-.1-.01-.15,.34-.27,.68-.54,1.02-.82,0,2.15,.05,4.3,.15,6.45-.33-.27-.65-.57-.98-.84m2.67,2.31v-.08c-.18-2.95-.24-5.9-.22-8.85,0-.08-.01-.16-.04-.23,.42-.34,.83-.67,1.25-1.01,.08,3.75,.15,7.52,.23,11.27-.41-.37-.82-.73-1.22-1.1m2.76,2.46c.05-.11,.1-.24,.1-.39-.08-4.42-.18-8.84-.26-13.25,0-.1-.01-.16-.04-.23,.37-.3,.73-.58,1.1-.88,.1,5.21,.12,10.43,.08,15.65-.33-.31-.65-.6-.98-.9m-50.15-6.92c.39-.31,.78-.63,1.17-.94,0,.67,.03,1.33,.07,2.01-.41-.37-.82-.72-1.24-1.07m2.96,2.54h0c-.15-1.55-.2-3.09-.18-4.64,0-.05,0-.1-.01-.14,.34-.27,.68-.54,1.02-.82,0,2.15,.05,4.3,.15,6.45-.33-.29-.64-.58-.98-.86m2.67,2.31s.01-.05,0-.08c-.16-2.95-.24-5.9-.22-8.85,0-.08-.01-.16-.04-.23,.42-.34,.83-.67,1.25-1.01,.08,3.75,.15,7.52,.23,11.27-.41-.37-.82-.73-1.22-1.1m2.76,2.46c.07-.11,.1-.23,.1-.39-.1-4.42-.18-8.84-.27-13.26,0-.08-.01-.16-.04-.23,.37-.3,.73-.58,1.1-.88,.1,5.21,.12,10.43,.08,15.65-.31-.29-.64-.58-.97-.88m-47.99-7.91c.39-.31,.78-.63,1.18-.94,.01,.67,.03,1.33,.07,2.01-.42-.37-.83-.72-1.25-1.07m2.96,2.54h0c-.15-1.55-.2-3.09-.18-4.62v-.15c.34-.27,.68-.54,1.01-.82,0,2.15,.05,4.3,.15,6.45-.33-.29-.65-.57-.98-.86m2.67,2.33s.01-.05,0-.08c-.18-2.95-.24-5.9-.22-8.85,0-.08-.01-.16-.04-.23,.42-.34,.84-.67,1.25-1.01,.08,3.77,.15,7.52,.22,11.27-.39-.38-.8-.73-1.21-1.1m2.76,2.46c.07-.11,.1-.23,.1-.39-.1-4.42-.18-8.84-.26-13.26,0-.08-.01-.16-.04-.23,.37-.3,.73-.58,1.1-.88,.11,5.22,.12,10.43,.08,15.65-.33-.3-.65-.6-.98-.88m-46.56-6.91c.39-.31,.79-.63,1.18-.94,0,.67,.03,1.33,.07,2.01-.42-.37-.83-.72-1.25-1.07m2.98,2.54h0c-.15-1.55-.2-3.09-.16-4.62,0-.05,0-.1-.01-.15,.34-.27,.68-.54,1.02-.82,0,2.15,.04,4.3,.15,6.45-.34-.29-.67-.57-.99-.86m2.65,2.31s.01-.05,0-.08c-.18-2.95-.24-5.9-.22-8.85,0-.1-.01-.16-.03-.23,.42-.34,.83-.67,1.25-1.01,.07,3.75,.15,7.52,.22,11.27-.41-.37-.82-.73-1.22-1.1m2.76,2.46c.05-.11,.1-.24,.1-.39-.08-4.42-.18-8.84-.26-13.26,0-.08-.01-.16-.04-.23,.37-.3,.73-.6,1.1-.88,.11,5.22,.14,10.43,.08,15.65-.33-.29-.65-.58-.98-.88m-49.27-7.32c.39-.31,.79-.63,1.18-.94,0,.67,.03,1.33,.07,2.01-.42-.37-.84-.72-1.25-1.07m2.96,2.54h0c-.15-1.55-.2-3.09-.18-4.62,0-.05,0-.1-.01-.15,.34-.27,.68-.54,1.02-.82,0,2.15,.05,4.3,.15,6.45-.33-.29-.65-.57-.98-.86m2.65,2.31v-.08c-.18-2.95-.24-5.9-.22-8.85,0-.1-.01-.16-.04-.23,.42-.34,.83-.67,1.25-1.01,.08,3.75,.15,7.52,.23,11.27-.39-.37-.8-.73-1.22-1.1m2.77,2.46c.05-.11,.1-.24,.1-.39-.08-4.42-.18-8.84-.26-13.26,0-.08-.01-.16-.04-.23,.37-.3,.73-.6,1.1-.88,.1,5.22,.12,10.43,.08,15.65-.34-.29-.65-.58-.98-.88m-50.15-6.92c.39-.31,.79-.63,1.18-.94,0,.67,.03,1.35,.07,2.01-.42-.37-.83-.72-1.25-1.07m2.96,2.54s0-.01,0,0c-.15-1.55-.2-3.09-.16-4.64,0-.05,0-.1-.01-.15,.34-.27,.68-.54,1.02-.82,0,2.15,.05,4.3,.15,6.45-.34-.27-.67-.56-.99-.84m2.67,2.31v-.08c-.18-2.95-.24-5.9-.22-8.85,0-.1-.01-.16-.03-.23,.42-.34,.83-.67,1.25-1.01l.22,11.27c-.41-.37-.82-.73-1.22-1.1m2.76,2.46c.07-.11,.1-.24,.1-.39l-.27-13.26c0-.08-.01-.16-.04-.23,.37-.3,.73-.6,1.1-.88,.1,5.22,.12,10.44,.08,15.65-.31-.29-.64-.58-.97-.88m-47.99-7.91c.39-.31,.79-.63,1.18-.94,0,.67,.03,1.35,.07,2.01-.42-.35-.84-.72-1.25-1.07m2.96,2.54h0c-.15-1.55-.2-3.09-.18-4.64,0-.05,0-.1-.01-.15,.34-.27,.68-.54,1.01-.82,0,2.15,.05,4.3,.15,6.45-.31-.27-.64-.56-.97-.84m2.67,2.33v-.08c-.18-2.95-.24-5.9-.22-8.85,0-.08-.01-.16-.03-.23,.42-.34,.83-.67,1.25-1.01,.07,3.75,.15,7.51,.22,11.27-.41-.37-.82-.73-1.22-1.1m2.76,2.46c.07-.11,.1-.23,.1-.39l-.26-13.26c0-.08-.01-.16-.04-.23,.37-.3,.73-.58,1.1-.88,.1,5.22,.12,10.43,.08,15.65-.34-.3-.65-.6-.98-.88m-7.86,11.56h-.35c.12-.07,.24-.12,.35-.18v.18Zm2.71,0h-1.28v-.94c.45-.24,.9-.48,1.33-.73-.01,.56-.03,1.12-.05,1.67m1.6,0c.04-.87,.05-1.74,.04-2.62,.39-.24,.79-.49,1.2-.73-.08,1.1,.03,2.2,.08,3.3,0,.03,.01,.03,.03,.05-.45,0-.9,0-1.35,0m2.91,0s.03-.03,.01-.05c-.07-1.31-.24-2.68,0-3.97,.03-.15,.01-.29-.03-.41,.38-.24,.76-.49,1.13-.75-.01,1.62,.14,3.24,.07,4.85,0,.14,.08,.2,.12,.31h-1.31Zm2.67,.01c.05-.11,.14-.18,.15-.31,.1-1.93-.15-3.86-.04-5.81,0-.05,0-.11-.01-.15,.41-.27,.8-.54,1.21-.82-.04,2.19-.1,4.37-.19,6.54-.01,.24,.08,.41,.2,.53h-1.32Zm1.33-8.64c-.08-.04-.18-.05-.27-.05-.04-.05-.08-.11-.14-.16-.14-.12-.27-.24-.41-.37v-.1c.07-5.97,.04-11.95-.08-17.92,0-.11-.03-.22-.07-.3,.34-.27,.67-.53,1.01-.8,.01,6.57,.07,13.14-.04,19.7m15.45-10.35c-.39,.37-.8,.72-1.2,1.07,.01-.41,.04-.8,.04-1.21-.01-.27-.03-.54-.05-.82,.41,.31,.8,.64,1.21,.95m-2.96-2.33v.08c.08,.69,.16,1.4,.19,2.11,.01,.69-.1,1.39-.04,2.09,.01,.16,.07,.3,.15,.41-.24,.2-.48,.41-.72,.63-.14-1.96-.24-3.92-.33-5.89,.26,.19,.5,.38,.75,.57m-2.39-1.88c.08,2.68,.22,5.34,.44,8.02,.01,.15,.05,.29,.12,.38-.38,.33-.76,.65-1.13,.97-.26-3.39-.41-6.77-.45-10.17,.34,.26,.68,.53,1.02,.8m-2.65-2.08c.03,4.11,.19,8.21,.52,12.29,.01,.14,.05,.26,.11,.35-.3,.24-.6,.5-.9,.75-.23-4.71-.44-9.4-.63-14.1l.9,.71Zm-5.05,25.28h-1.24c.14-.12,.24-.3,.24-.53,.38-9.63,.24-19.28,.27-28.91,0-.07,0-.12-.01-.18,.04-.03,.08-.07,.12-.1l.48,.38c-.03,.08-.04,.16-.04,.27,.33,9.66,.78,19.37,.16,29.02-.01,.01,.01,.03,.01,.04m2.5-27.28c.2,5.36,.45,10.72,.71,16.07,.01,.19,.07,.35,.18,.48-.5,.41-.99,.8-1.5,1.21,.03-6.19-.22-12.39-.42-18.56,.34,.26,.68,.53,1.03,.8m-.94,27.28s.03-.03,.03-.05c.14-2.19,.22-4.38,.26-6.57l.99,.64v.14c.03,1.73,.05,3.47,.08,5.21,0,.34,.19,.52,.42,.64h-1.78Zm2.56,0c.23-.12,.41-.3,.41-.64l-.07-4.3c.22,.14,.44,.27,.65,.41,.14,1.46,.23,2.91,.26,4.37,0,.07,.05,.1,.07,.16-.45,.01-.88,0-1.32,0m2.79,.01c.01-.07,.07-.1,.07-.16-.03-1.1-.08-2.19-.16-3.28,.33,.2,.67,.41,.99,.63-.03,.08-.04,.15-.04,.24,.03,.84,.04,1.67,.05,2.52,0,.03,.03,.03,.03,.05h-.94Zm3.49,0h-.98s.01-.03,.01-.05c-.01-.6-.03-1.18-.04-1.78,.33,.2,.67,.41,1.01,.6v1.24h0Zm1.41,0v-.38l.61,.38h-.61Zm16.88,0h-2.03c.68-.37,1.36-.69,2.03-1.07v1.07Zm1.43,0v-1.9c.48-.29,.95-.58,1.41-.87-.07,.92,.01,1.85,.07,2.77h-1.48Zm3.07,0c-.08-1.14-.19-2.33,.03-3.44,.03-.15,.01-.29-.01-.41,.38-.24,.76-.49,1.13-.75-.01,1.54,.11,3.06,.07,4.6h-1.21Zm3.81,0h-.98c.07-1.84-.14-3.69-.04-5.54,0-.05,0-.11-.01-.15,.41-.27,.82-.54,1.21-.82-.03,2.16-.1,4.34-.18,6.5m.22-8.06c-.08-.04-.18-.07-.27-.07-.04-.05-.08-.11-.14-.15-.14-.12-.27-.24-.41-.37,0-.04,.01-.07,.01-.1,.07-5.97,.04-11.95-.08-17.92,0-.11-.03-.22-.07-.3,.34-.26,.67-.53,1.01-.8-.01,6.55,.04,13.14-.05,19.7m15.44-10.36c-.39,.37-.8,.72-1.21,1.07,.01-.41,.05-.8,.04-1.21-.01-.27-.03-.54-.05-.82,.42,.33,.83,.64,1.22,.95m-2.96-2.33v.1c.08,.69,.16,1.4,.19,2.11,.01,.69-.1,1.39-.03,2.08,.01,.16,.07,.3,.15,.41-.23,.2-.48,.41-.72,.63-.14-1.96-.24-3.92-.33-5.89,.24,.19,.49,.38,.73,.57m-2.39-1.88c.08,2.68,.22,5.34,.42,8.02,.01,.15,.05,.29,.12,.39-.38,.33-.75,.64-1.13,.97-.24-3.39-.39-6.79-.45-10.19,.35,.27,.69,.54,1.03,.8m-2.65-2.08c.03,4.11,.19,8.21,.52,12.31,.01,.14,.05,.26,.11,.35l-.9,.75c-.23-4.71-.44-9.4-.63-14.1l.9,.69Zm-5.05,24.71h-.98c.38-9.61,.24-19.26,.27-28.87,0-.07-.01-.12-.01-.18,.04-.03,.08-.07,.12-.1,.16,.12,.33,.24,.48,.37-.03,.08-.04,.18-.04,.29,.3,9.48,.72,19.01,.16,28.49m2.5-26.71c.2,5.36,.45,10.72,.71,16.07,.01,.19,.07,.35,.18,.48-.49,.41-.99,.8-1.5,1.21,.03-6.19-.22-12.39-.42-18.56l1.03,.8Zm-.52,26.71h-.38c.12-2.01,.2-4.04,.24-6.05l.99,.64s-.01,.1-.01,.14c.03,1.74,.05,3.47,.1,5.21,0,.03,.03,.04,.03,.07h-.97Zm2.52,0s.03-.04,.03-.07c-.03-1.43-.04-2.86-.07-4.28,.22,.14,.44,.27,.64,.41,.14,1.31,.2,2.62,.23,3.94h-.83Zm4.15,0h-1.7c-.03-.95-.07-1.9-.14-2.86,.61,.38,1.22,.76,1.85,1.14v1.71h-.01Zm1.41,0v-.84c.46,.29,.94,.56,1.4,.84h-1.4Zm20.79,.01h-2.8c.95-.49,1.92-.97,2.84-1.5,0,.5-.01,.99-.04,1.5m1.62,0c.04-.82,.05-1.63,.04-2.45,.39-.24,.8-.49,1.2-.73-.08,1.06,.03,2.12,.08,3.18h-1.32Zm2.91,0c-.07-1.26-.24-2.6,.01-3.85,.03-.15,.01-.29-.03-.41,.38-.24,.76-.49,1.13-.75-.01,1.63,.14,3.25,.07,4.87,0,.05,.05,.08,.05,.14h-1.24Zm3.92,0h-1.18c.01-.05,.07-.08,.07-.14,.08-1.93-.15-3.86-.04-5.81v-.15c.41-.27,.8-.54,1.21-.82-.04,2.19-.11,4.37-.19,6.54-.01,.16,.08,.26,.14,.37m.08-8.47c-.08-.04-.18-.07-.27-.07-.04-.05-.08-.11-.14-.16-.14-.12-.27-.24-.39-.37,0-.03,.01-.07,.01-.1,.07-5.97,.04-11.95-.08-17.92,0-.11-.03-.22-.07-.3,.34-.27,.67-.53,1.01-.8-.03,6.57,.03,13.15-.07,19.72m15.45-10.36c-.41,.35-.8,.72-1.21,1.07,.03-.39,.05-.8,.04-1.21,0-.27-.03-.54-.05-.82,.41,.31,.8,.64,1.22,.95m-2.98-2.33v.1c.08,.69,.18,1.4,.19,2.11,.01,.69-.1,1.39-.03,2.08,.01,.16,.07,.3,.15,.41-.23,.2-.48,.42-.72,.63-.14-1.96-.24-3.92-.33-5.89,.24,.19,.49,.38,.73,.57m-2.39-1.88c.08,2.68,.22,5.36,.42,8.02,.01,.15,.07,.29,.14,.39-.38,.33-.76,.64-1.14,.97-.24-3.39-.39-6.79-.45-10.19,.35,.27,.69,.54,1.03,.8m-2.65-2.08c.03,4.11,.19,8.21,.52,12.31,.01,.14,.05,.26,.11,.35-.3,.24-.6,.5-.9,.75-.22-4.71-.44-9.4-.61-14.1,.3,.23,.6,.46,.88,.69m-5.06,25.12h-1.14c.07-.11,.16-.2,.18-.37,.38-9.63,.24-19.28,.27-28.93,0-.07-.01-.12-.01-.18,.04-.03,.08-.07,.12-.1,.16,.12,.31,.24,.48,.37-.03,.08-.04,.18-.04,.27,.31,9.64,.75,19.31,.15,28.93m2.52-27.12c.22,5.36,.45,10.72,.71,16.07,.01,.19,.08,.35,.18,.48-.49,.41-.99,.8-1.5,1.21,.03-6.19-.22-12.39-.42-18.58l1.03,.82Zm-.91,27.12c.14-2.15,.22-4.3,.26-6.46,.33,.22,.67,.44,.99,.64-.01,.04-.01,.1-.01,.14,.03,1.74,.05,3.47,.08,5.21,0,.2,.11,.34,.22,.48h-1.54Zm2.73,0c.11-.12,.19-.26,.19-.48-.03-1.43-.05-2.86-.07-4.28,.22,.14,.44,.27,.64,.41,.15,1.46,.23,2.9,.26,4.35h-1.02Zm3.94,0h-1.31c-.03-1.09-.08-2.18-.16-3.28,.49,.31,.98,.61,1.47,.91v2.37Zm1.41,0v-1.48c.82,.5,1.65,.99,2.46,1.48h-2.46Zm20.3,.01h-2.83c.97-.49,1.93-.98,2.87-1.51,0,.5-.03,1.01-.04,1.51m1.6,0c.04-.82,.05-1.65,.04-2.46,.39-.24,.8-.49,1.2-.73-.08,1.06,.03,2.14,.08,3.2h-1.32Zm2.91,0c-.07-1.28-.24-2.61,.01-3.86,.03-.15,.01-.29-.03-.41,.38-.24,.76-.49,1.13-.75-.01,1.63,.14,3.25,.07,4.87,0,.07,.05,.1,.05,.15h-1.24Zm3.93,0h-1.2c.01-.05,.07-.08,.07-.15,.1-1.93-.15-3.86-.04-5.81,0-.05,0-.11-.01-.15,.41-.27,.8-.54,1.21-.82-.04,2.19-.1,4.37-.19,6.54,.01,.16,.1,.27,.16,.38m.07-8.49c-.08-.04-.18-.07-.27-.07-.04-.05-.08-.11-.14-.16-.14-.12-.27-.24-.41-.37,.01-.03,.01-.07,.01-.1,.07-5.97,.04-11.95-.08-17.92,0-.11-.03-.22-.07-.3,.33-.27,.67-.53,.99-.8,.01,6.57,.05,13.15-.04,19.72m15.45-10.36c-.39,.35-.8,.72-1.21,1.07,.01-.39,.05-.8,.04-1.21-.01-.27-.03-.54-.05-.82,.41,.31,.82,.64,1.22,.95m-2.96-2.33v.1c.08,.69,.18,1.4,.19,2.11,.03,.69-.1,1.39-.04,2.08,.01,.16,.07,.3,.15,.41-.23,.2-.48,.42-.72,.63-.14-1.96-.24-3.92-.33-5.89,.26,.19,.5,.38,.75,.57m-2.39-1.88c.08,2.68,.22,5.36,.42,8.02,.01,.15,.05,.29,.14,.39l-1.14,.97c-.24-3.39-.39-6.79-.45-10.19,.35,.27,.69,.54,1.03,.8m-2.65-2.08c.03,4.11,.2,8.21,.53,12.31,.01,.14,.05,.26,.11,.35-.3,.24-.6,.5-.9,.75-.22-4.71-.44-9.4-.63-14.1,.29,.23,.58,.46,.88,.69m-5.07,25.13h-1.14c.07-.11,.16-.2,.18-.38,.38-9.63,.26-19.28,.27-28.93,0-.07,0-.12-.03-.18,.04-.03,.08-.07,.12-.1,.16,.12,.31,.24,.48,.37-.03,.08-.04,.18-.04,.27,.33,9.64,.76,19.32,.16,28.94m2.52-27.13c.22,5.36,.45,10.72,.71,16.07,.01,.19,.08,.35,.18,.48-.5,.41-.99,.8-1.5,1.21,.03-6.19-.22-12.39-.42-18.58l1.03,.82Zm-.91,27.13c.14-2.15,.22-4.31,.26-6.46,.33,.22,.67,.44,.99,.64-.01,.04-.01,.1-.01,.14,.03,1.74,.05,3.47,.08,5.21,0,.22,.11,.35,.22,.48h-1.54m2.75,0c.11-.12,.2-.27,.2-.48-.03-1.43-.05-2.86-.07-4.28,.22,.14,.44,.27,.65,.41,.15,1.46,.23,2.91,.26,4.37h-1.05Zm4.32-.01h-1.67c-.03-1.09-.08-2.19-.16-3.28,.61,.39,1.22,.76,1.85,1.14v2.13h-.01Zm1.41,0v-1.26c.69,.42,1.4,.84,2.09,1.26h-2.09Zm14.48,0h-.88c.3-.15,.6-.29,.88-.44v.44Zm2.73,0h-1.32v-1.2c.45-.24,.88-.49,1.33-.73,0,.61-.01,1.22-.05,1.84,0,.05,.04,.07,.04,.1m1.54,0s.04-.05,.05-.1c.05-.92,.07-1.86,.04-2.79,.39-.24,.79-.49,1.2-.73-.08,1.1,.03,2.2,.08,3.3,.01,.14,.1,.2,.15,.31h-1.52Zm2.86,0c.04-.1,.12-.18,.12-.31-.07-1.31-.26-2.68,0-3.97,.03-.15,.01-.29-.01-.41,.38-.24,.76-.49,1.13-.75-.01,1.62,.14,3.25,.07,4.85-.01,.26,.08,.45,.22,.57h-1.52Zm19.54-19.24c-.39,.35-.8,.72-1.21,1.07,.01-.41,.05-.8,.04-1.21,0-.27-.03-.54-.05-.82,.42,.31,.83,.63,1.22,.95m-2.96-2.33v.08c.08,.71,.18,1.4,.19,2.11,.01,.69-.1,1.39-.03,2.08,.01,.16,.07,.3,.15,.41-.24,.2-.48,.41-.72,.63-.14-1.96-.24-3.92-.33-5.89l.73,.58Zm-2.39-1.88c.08,2.68,.22,5.34,.42,8.02,.01,.15,.05,.29,.14,.39-.38,.33-.76,.65-1.13,.97-.26-3.39-.41-6.79-.45-10.17,.34,.26,.68,.52,1.02,.79m-2.65-2.08c.01,4.11,.19,8.2,.52,12.31,.01,.14,.05,.24,.11,.35-.3,.24-.6,.5-.9,.75-.23-4.71-.44-9.4-.63-14.1l.9,.69Zm-2.54-2c.2,5.36,.45,10.72,.71,16.07,.01,.19,.07,.35,.18,.48-.5,.41-.99,.8-1.5,1.21,.03-6.19-.2-12.39-.42-18.56,.34,.26,.68,.53,1.03,.8m-4.83-1.07c0,6.57,.04,13.14-.05,19.71-.08-.04-.18-.07-.27-.07-.04-.05-.08-.11-.14-.16-.14-.12-.27-.24-.39-.37v-.1c.07-5.97,.04-11.94-.08-17.92,0-.11-.03-.2-.07-.3,.34-.26,.67-.53,1.01-.79m2.42,28.63h-3.94c.15-.12,.26-.31,.27-.57,.1-1.93-.15-3.86-.04-5.81v-.15c.41-.27,.8-.54,1.21-.82-.04,2.18-.1,4.37-.19,6.55-.04,1.03,1.56,1.03,1.6,0,.38-9.63,.26-19.28,.27-28.93,0-.07-.01-.12-.01-.18,.04-.04,.08-.07,.12-.1l.48,.37c-.03,.08-.04,.18-.04,.27,.33,9.66,.76,19.37,.16,29.03-.01,.14,.07,.2,.11,.31m1.33,0c.05-.11,.15-.18,.15-.31,.14-2.19,.22-4.39,.27-6.58,.33,.22,.67,.44,.99,.65,0,.04-.01,.08-.01,.14,.03,1.74,.05,3.47,.08,5.21,.03,1.03,1.63,1.03,1.62,0-.03-1.43-.05-2.86-.08-4.3,.22,.14,.44,.27,.65,.41,.14,1.46,.23,2.91,.26,4.37,0,.19,.11,.3,.19,.42h-4.12Zm5.37,0c.08-.12,.18-.23,.18-.42-.03-1.09-.08-2.19-.16-3.28,.33,.2,.67,.42,.99,.63-.03,.07-.04,.15-.04,.24,.01,.84,.04,1.69,.05,2.53,0,.14,.1,.22,.15,.31h-1.17Zm3.6-.01h-1.09c.05-.1,.14-.18,.14-.31l-.04-1.78c.33,.2,.67,.41,1.01,.61v1.48h-.01Zm1.41,0v-.64c.35,.2,.71,.42,1.06,.64h-1.06Zm16.88,0h-2.53c.84-.44,1.7-.86,2.53-1.33v1.33Zm1.43,0v-2.16c.48-.29,.95-.57,1.41-.87-.07,1.01,.01,2.03,.08,3.03h-1.5Zm3.09,0c-.07-1.22-.22-2.5,.01-3.7,.03-.15,.01-.29-.01-.41,.38-.24,.76-.49,1.13-.75-.01,1.62,.14,3.24,.07,4.85h-1.2Zm3.89,0h-1.06c.08-1.93-.15-3.86-.04-5.79v-.15c.41-.27,.82-.54,1.21-.82-.04,2.18-.1,4.37-.19,6.54-.01,.1,.05,.15,.08,.22m.12-8.32c-.08-.04-.18-.07-.27-.07-.04-.05-.08-.11-.14-.16-.14-.12-.27-.24-.39-.37,0-.03,.01-.07,.01-.1,.07-5.97,.04-11.94-.08-17.92,0-.11-.03-.22-.07-.3,.34-.27,.67-.53,1.01-.8-.03,6.57,.03,13.14-.07,19.72m15.45-10.36c-.39,.35-.8,.72-1.21,1.07,.03-.41,.05-.8,.04-1.21-.01-.27-.03-.54-.05-.82l1.22,.95Zm-2.96-2.33v.08c.08,.69,.16,1.4,.19,2.11,.03,.69-.1,1.39-.03,2.08,.01,.16,.07,.3,.15,.41-.23,.2-.48,.41-.72,.63-.14-1.96-.24-3.92-.33-5.89,.23,.2,.48,.39,.73,.58m-2.41-1.88c.08,2.68,.23,5.34,.42,8.02,.01,.15,.07,.29,.14,.38-.38,.33-.75,.65-1.13,.97-.26-3.39-.41-6.79-.45-10.17,.34,.27,.69,.54,1.02,.8m-2.64-2.08c.01,4.11,.19,8.2,.52,12.29,.01,.14,.05,.26,.11,.35-.3,.24-.6,.5-.9,.75-.23-4.69-.44-9.4-.63-14.1l.9,.71Zm-5.07,24.97h-1.07c.03-.08,.1-.12,.11-.22,.38-9.63,.26-19.28,.27-28.91,0-.07,0-.12-.01-.18,.04-.03,.08-.07,.12-.1l.48,.37c-.03,.08-.04,.18-.04,.27,.31,9.57,.73,19.2,.15,28.76m2.52-26.97c.2,5.36,.44,10.72,.71,16.07,.01,.19,.07,.35,.18,.48-.49,.41-.99,.8-1.5,1.21,.03-6.19-.22-12.39-.42-18.56,.34,.26,.68,.53,1.03,.8m-.9,26.97c.12-2.11,.2-4.2,.26-6.31l.99,.65s-.01,.08-.01,.14c.03,1.74,.05,3.47,.08,5.21,0,.15,.1,.22,.15,.33h-1.47Zm2.79-.01c.05-.11,.14-.18,.14-.33-.03-1.43-.05-2.86-.07-4.3,.22,.14,.44,.27,.65,.41,.14,1.4,.22,2.8,.24,4.2h-.97Zm4.26,.03h-1.69c-.03-1.03-.07-2.08-.15-3.13,.61,.38,1.22,.76,1.85,1.14v1.99h-.01Zm1.41,0v-1.1c.61,.37,1.22,.73,1.84,1.1h-1.84Zm20.79,0h-3.3c1.13-.57,2.26-1.13,3.35-1.77,0,.6-.01,1.18-.04,1.77m1.6,0c.04-.91,.07-1.81,.04-2.72,.39-.24,.8-.49,1.2-.73-.08,1.1,.03,2.2,.08,3.3,0,.07,.05,.1,.07,.15h-1.39Zm2.87,0c.01-.05,.05-.08,.05-.15-.07-1.31-.26-2.68,0-3.97,.03-.15,.01-.29-.03-.41,.38-.24,.76-.49,1.13-.75-.01,1.62,.15,3.24,.07,4.85,0,.18,.08,.29,.16,.41h-1.39Zm4.11-28.44c0,6.57,.04,13.14-.05,19.71-.08-.04-.18-.05-.27-.05-.04-.05-.08-.11-.14-.16-.14-.12-.27-.24-.41-.37,0-.03,.01-.05,.01-.1,.07-5.97,.04-11.94-.08-17.92,0-.11-.01-.22-.05-.3,.33-.27,.65-.53,.99-.8m-1.44,28.45c.08-.12,.19-.22,.19-.41,.1-1.93-.15-3.86-.04-5.81,0-.05,0-.11-.01-.15,.41-.27,.8-.54,1.21-.82-.04,2.19-.1,4.37-.19,6.55-.01,.31,.15,.5,.35,.63h-1.51Zm3.79,0h-1.43c.22-.12,.39-.31,.41-.63,.38-9.63,.24-19.28,.27-28.93,0-.07,0-.12-.01-.18,.04-.03,.08-.07,.12-.1l.48,.38c-.03,.08-.04,.18-.04,.27,.33,9.66,.78,19.37,.16,29.02-.01,.08,.04,.1,.04,.15m9.67-1.74c.97,.58,1.93,1.17,2.9,1.75h-2.9v-1.75Zm-1.43-.88v2.62h-1.4c.03-.08,.11-.14,.11-.26-.03-1.09-.08-2.19-.16-3.28,.48,.31,.97,.61,1.46,.91m-3.74,1.89l-.07-4.3c.22,.14,.44,.27,.64,.41,.15,1.46,.23,2.91,.26,4.37,0,.11,.08,.16,.12,.26h-1.62c.34-.04,.67-.27,.67-.73m-1.69-5.33s-.01,.08-.01,.14c.03,1.74,.05,3.47,.08,5.21,0,.46,.34,.69,.69,.73h-2.09c.01-.05,.07-.08,.08-.15,.14-2.19,.22-4.38,.26-6.57l.99,.64Zm-.95-3.56c.03-6.19-.22-12.39-.42-18.56,.34,.27,.69,.54,1.03,.82,.22,5.36,.45,10.72,.71,16.07,.01,.19,.08,.35,.18,.48-.5,.39-.99,.8-1.5,1.2m2.9-2.34c-.23-4.71-.44-9.4-.63-14.1l.88,.69c.03,4.11,.2,8.21,.53,12.29,.01,.14,.05,.26,.11,.35-.3,.26-.6,.52-.9,.76m2.34-1.96c-.24-3.39-.39-6.77-.45-10.17,.34,.27,.68,.53,1.02,.8,.08,2.68,.22,5.34,.42,8.02,.01,.15,.07,.27,.12,.38-.35,.33-.73,.65-1.12,.97m2.56-2.19c-.14-1.96-.24-3.92-.33-5.89,.24,.19,.49,.38,.73,.58v.08c.08,.69,.16,1.4,.19,2.11,.01,.71-.1,1.39-.04,2.09,.01,.16,.07,.3,.15,.41-.23,.2-.46,.41-.71,.61m2.18-1.9c.01-.41,.05-.8,.04-1.21,0-.27-.03-.54-.05-.82,.41,.33,.82,.64,1.22,.95-.41,.37-.8,.72-1.21,1.07"/>
  <path class="cls-1" d="M86.78,183.78c-8.77-.04-17.56-.08-26.33-.12-.87,0-1.41,.49-1.63,1.12-.38,.29-.65,.73-.67,1.35-.42,12.92-.65,25.84-.71,38.76-4.45,.24-8.91,.42-13.37,.39-.9,0-1.44,.53-1.66,1.18-1.03,1.01-.67,3.21,1.17,3.14,4.18-.16,8.34-.15,12.51,.01,.88,.04,1.43-.46,1.65-1.1,.49-.03,.99-.01,1.5-.04,1.28-.08,1.84-1.21,1.71-2.19,.07-.18,.12-.38,.12-.6,.05-12.8,.3-25.59,.71-38.38,7.57,.04,15.15,.07,22.72,.11-.11,13.29,.01,26.57,.38,39.86,.04,1.65,1.86,2.12,2.91,1.43,.07,0,.12,.03,.2,.03,4.49-.22,8.98-.34,13.48-.35,1.31,0,1.86-1.14,1.7-2.15,.05-.18,.12-.34,.12-.54,.26-12.72,.34-25.43,.27-38.15,7.49-.15,14.97-.18,22.47-.07,.19,13.11,.38,26.21,.57,39.3,.01,1.01,.71,1.56,1.48,1.7,.2,.19,.49,.3,.82,.35,.24,.12,.52,.2,.84,.22,1.74,.01,3.45-.12,5.19-.15,2.27-.01,4.54-.08,6.83,.01,.38,.01,.67-.1,.92-.23,.75-.04,1.48-.03,2.23-.07,1.28-.08,1.82-1.21,1.7-2.19,.07-.19,.12-.38,.12-.61,.05-12.8,.3-25.59,.71-38.38,7.57,.03,15.15,.07,22.72,.11-.11,13.29,.03,26.57,.39,39.85,.04,1.65,1.86,2.12,2.91,1.43,.07,0,.12,.04,.2,.03,4.49-.22,8.98-.34,13.48-.35,1.31,0,1.86-1.14,1.7-2.15,.05-.18,.12-.34,.12-.54,.27-12.72,.34-25.43,.27-38.15,7.49-.15,14.97-.19,22.47-.07,.19,13.1,.38,26.21,.58,39.3,.01,1.01,.71,1.56,1.48,1.7,.29,.26,.67,.42,1.17,.41,4.18-.16,8.34-.15,12.5,.01,.88,.04,1.43-.46,1.65-1.1,.37-.03,.73,0,1.1-.03,1.28-.08,1.84-1.21,1.7-2.19,.07-.19,.12-.38,.12-.61,.05-12.8,.3-25.59,.71-38.38,7.57,.03,15.15,.07,22.72,.1-.11,13.29,.01,26.57,.39,39.86,.04,1.65,1.86,2.12,2.91,1.43,.07,0,.12,.04,.19,.03,4.49-.22,8.99-.34,13.48-.35,1.32,0,1.86-1.14,1.7-2.15,.05-.18,.12-.34,.12-.54,.27-12.72,.34-25.43,.27-38.15,7.48-.15,14.97-.18,22.47-.07,.19,13.11,.38,26.21,.58,39.3,.01,1.01,.71,1.56,1.48,1.7,.29,.24,.65,.42,1.16,.41,5.86-.22,11.75-.22,17.6,.01,2.34,.1,2.34-3.55,0-3.64-5.54-.22-11.1-.22-16.63-.04l-.56-38.61c-.01-.75-.41-1.24-.92-1.51-.19-.69-.73-1.26-1.66-1.28-8.54-.15-17.07-.12-25.61,.08-1.56,.04-2.05,1.66-1.54,2.72,.08,12.72-.01,25.43-.27,38.15-3.73,.04-7.45,.11-11.18,.29-.33-12.61-.45-25.23-.35-37.85,0-.14-.04-.23-.07-.34,.91-1.01,.49-3.09-1.29-3.1-8.77-.04-17.56-.08-26.33-.12-.87,0-1.4,.49-1.63,1.12-.38,.29-.65,.73-.67,1.35-.42,12.92-.65,25.84-.71,38.76-4.16,.23-8.34,.38-12.5,.37-.19-12.65-.37-25.29-.56-37.93-.01-.75-.41-1.24-.92-1.51-.19-.69-.73-1.26-1.66-1.29-8.53-.15-17.07-.12-25.61,.08-1.56,.04-2.05,1.66-1.54,2.72,.08,12.72-.01,25.44-.27,38.16-3.73,.04-7.45,.11-11.18,.29-.33-12.61-.45-25.23-.35-37.85,0-.14-.05-.23-.07-.34,.91-1.01,.49-3.09-1.28-3.1-8.77-.04-17.56-.08-26.33-.12-.87,0-1.4,.49-1.63,1.12-.38,.3-.65,.73-.67,1.35-.42,12.92-.65,25.84-.71,38.76-2.73,.15-5.45,.19-8.19,.24-1.56,0-3.14-.07-4.71,0l-.57-38.62c-.01-.75-.41-1.24-.92-1.51-.19-.69-.73-1.26-1.66-1.28-8.53-.15-17.07-.12-25.59,.08-1.56,.04-2.07,1.66-1.54,2.72,.08,12.72-.01,25.44-.27,38.16-3.73,.04-7.45,.11-11.18,.29-.33-12.61-.45-25.23-.34-37.85,0-.14-.05-.22-.07-.34,.88-.96,.46-3.04-1.32-3.04"/>
  <path class="cls-1" d="M215.07,242.45c-.08-.08-.16-.16-.27-.24-4.46-3.28-8.89-6.58-13.3-9.93-.71-.53-1.4-.42-1.9,.01-.37,.03-.73,.15-1.07,.42-4.03,3.17-8.04,6.32-12.06,9.49-.35,.27-.54,.58-.6,.91-.48,.27-.82,.78-.82,1.48-.05,7.44-.12,14.88-.18,22.32-.01,.99,.65,1.56,1.4,1.71,.24,.57,.78,1.03,1.59,1.05,8.34,.14,16.67,.1,25-.11,.75-.03,1.25-.41,1.52-.92,.8-.11,1.52-.68,1.5-1.74-.18-7.6-.05-15.2,.39-22.81,.04-.9-.52-1.46-1.2-1.65m-2.87,23.5c-7.9,.19-15.8,.22-23.7,.1,.05-7.02,.11-14.02,.16-21.04,.12-.07,.24-.14,.37-.23,3.75-2.95,7.52-5.92,11.27-8.87,4.07,3.07,8.16,6.13,12.27,9.14-.38,6.98-.5,13.94-.37,20.9"/>
  <path class="cls-1" d="M259.68,242.45c-.08-.08-.16-.16-.27-.24-4.46-3.28-8.89-6.58-13.3-9.93-.71-.53-1.4-.42-1.9,.01-.37,.03-.73,.15-1.07,.42-4.03,3.17-8.04,6.32-12.06,9.49-.35,.27-.54,.58-.61,.91-.48,.27-.82,.78-.82,1.48-.05,7.44-.12,14.88-.18,22.32-.01,.99,.65,1.56,1.4,1.71,.24,.57,.78,1.03,1.59,1.05,8.34,.14,16.66,.1,25-.11,.75-.03,1.25-.41,1.52-.92,.8-.11,1.52-.68,1.5-1.74-.18-7.6-.05-15.2,.39-22.81,.05-.9-.5-1.46-1.18-1.65m-2.87,23.5c-7.9,.19-15.8,.22-23.7,.1,.05-7.02,.11-14.02,.16-21.04,.12-.07,.24-.14,.37-.23,3.75-2.95,7.52-5.92,11.27-8.87,4.07,3.07,8.16,6.13,12.27,9.14-.38,6.98-.5,13.94-.37,20.9"/>
  <path class="cls-1" d="M301.17,243.52c-.08-.08-.16-.16-.27-.24-4.46-3.28-8.89-6.58-13.3-9.93-.71-.53-1.4-.41-1.9,.01-.37,.03-.73,.15-1.07,.42-4.03,3.17-8.04,6.32-12.06,9.49-.35,.27-.54,.58-.61,.91-.48,.29-.82,.78-.82,1.48-.05,7.44-.12,14.88-.18,22.33-.01,.99,.65,1.56,1.4,1.71,.24,.58,.78,1.03,1.59,1.03,8.34,.14,16.66,.1,25-.11,.75-.01,1.25-.41,1.52-.91,.8-.11,1.52-.68,1.5-1.74-.18-7.6-.05-15.2,.39-22.81,.05-.91-.5-1.47-1.18-1.66m-2.87,23.5c-7.9,.19-15.8,.22-23.7,.1,.05-7.02,.11-14.02,.16-21.04,.12-.05,.24-.14,.37-.22,3.75-2.96,7.52-5.92,11.27-8.87,4.07,3.07,8.16,6.13,12.27,9.15-.38,6.95-.5,13.91-.37,20.87"/>
  <path class="cls-1" d="M127.34,242.45c-.08-.08-.16-.16-.27-.24-4.46-3.28-8.89-6.58-13.3-9.93-.71-.53-1.4-.42-1.9,.01-.37,.03-.73,.15-1.07,.42-4.03,3.17-8.04,6.32-12.06,9.49-.35,.27-.54,.58-.6,.91-.48,.27-.82,.78-.82,1.48-.05,7.44-.12,14.88-.18,22.32-.01,.99,.65,1.56,1.4,1.71,.24,.57,.78,1.03,1.59,1.05,8.34,.14,16.66,.1,25-.11,.75-.03,1.25-.41,1.52-.92,.8-.11,1.52-.68,1.5-1.74-.18-7.6-.05-15.2,.39-22.81,.04-.9-.5-1.46-1.2-1.65m-2.87,23.5c-7.9,.19-15.8,.22-23.7,.1,.05-7.02,.11-14.02,.16-21.04,.12-.07,.24-.14,.37-.23,3.75-2.95,7.52-5.92,11.27-8.87,4.07,3.07,8.16,6.13,12.27,9.14-.38,6.98-.5,13.94-.37,20.9"/>
  <path class="cls-1" d="M88.14,242.62c-.08-.08-.16-.16-.27-.24-4.46-3.28-8.89-6.58-13.3-9.93-.71-.53-1.4-.42-1.9,.01-.37,.03-.73,.15-1.07,.42-4.03,3.17-8.04,6.32-12.06,9.49-.35,.27-.54,.58-.61,.91-.48,.27-.82,.78-.82,1.48-.05,7.44-.12,14.88-.18,22.32-.01,.99,.65,1.56,1.4,1.71,.24,.57,.78,1.03,1.59,1.05,8.34,.14,16.66,.1,25-.11,.75-.03,1.25-.41,1.52-.92,.8-.11,1.52-.68,1.5-1.74-.18-7.6-.05-15.2,.39-22.81,.05-.91-.5-1.46-1.18-1.65m-2.87,23.5c-7.9,.19-15.8,.22-23.7,.1,.05-7.02,.11-14.02,.16-21.04,.12-.07,.24-.14,.35-.23,3.75-2.96,7.52-5.92,11.27-8.87,4.07,3.07,8.15,6.13,12.27,9.14-.37,6.98-.49,13.94-.35,20.9"/>
  <path class="cls-1" d="M172.67,242.45c-.08-.08-.16-.16-.27-.24-4.46-3.28-8.89-6.58-13.3-9.93-.71-.53-1.4-.42-1.9,.01-.37,.03-.73,.15-1.07,.42-4.03,3.17-8.05,6.32-12.06,9.49-.35,.27-.54,.58-.61,.91-.48,.27-.82,.78-.82,1.48-.05,7.44-.12,14.88-.18,22.32,0,.99,.65,1.56,1.4,1.71,.24,.57,.78,1.03,1.59,1.05,8.34,.14,16.66,.1,25-.11,.75-.03,1.25-.41,1.52-.92,.8-.11,1.52-.68,1.5-1.74-.18-7.6-.05-15.2,.39-22.81,.05-.9-.49-1.46-1.18-1.65m-2.86,23.5c-7.9,.19-15.8,.22-23.7,.1,.05-7.02,.11-14.02,.16-21.04,.12-.07,.24-.14,.37-.23,3.75-2.95,7.52-5.92,11.27-8.87,4.07,3.07,8.16,6.13,12.27,9.14-.39,6.98-.52,13.94-.37,20.9"/>
  <path class="cls-1" d="M317.77,276.58c-71.04-.01-142.08-.04-213.11-.05-20.13,0-40.25-.01-60.37-.01-2.34,0-2.35,3.63,0,3.63,71.04,.03,142.08,.04,213.11,.07,20.13,0,40.24,.01,60.37,.01,2.34,0,2.34-3.64,0-3.64"/>
  <path class="cls-1" d="M317.57,341.38c-71.04-.01-142.08-.04-213.11-.07-20.13,0-40.25-.01-60.37-.01-2.34,0-2.35,3.63,0,3.64,71.04,.01,142.07,.04,213.11,.05,20.13,.01,40.24,.01,60.37,.01,2.34,.01,2.34-3.63,0-3.63"/>
</svg>