<svg xmlns="http://www.w3.org/2000/svg" version="1.1" xmlns:xlink="http://www.w3.org/1999/xlink" width="512" height="512" x="0" y="0" viewBox="0 0 512 512" style="enable-background:new 0 0 512 512" xml:space="preserve" class=""><g><path d="M27.8 93.18v14.46c0 5.48 4.44 9.92 9.91 9.92h33.03c2.74 0 4.96 2.22 4.96 4.95v16.89c0 2.46 1.99 4.45 4.45 4.45 1.05 0 2.07-.37 2.87-1.05l28.52-24.07a4.95 4.95 0 0 1 3.2-1.17h71.34c5.48 0 9.91-4.44 9.91-9.92V17.41c0-5.47-4.43-9.91-9.91-9.91H37.71c-5.47 0-9.91 4.44-9.91 9.91v40.77M414.54 7.5h59.75c5.47 0 9.91 4.44 9.91 9.91v90.23c0 5.48-4.44 9.92-9.91 9.92h-28.84c-1.17 0-2.31.41-3.2 1.17l-28.52 24.07c-.8.68-1.82 1.05-2.87 1.05-2.46 0-4.45-1.99-4.45-4.45v-16.89c0-2.73-2.22-4.95-4.96-4.95H317.5c-2.73 0-4.95 2.22-4.95 4.95v16.89c0 2.46-2 4.45-4.45 4.45a4.46 4.46 0 0 1-2.88-1.05l-28.52-24.07a4.903 4.903 0 0 0-3.19-1.17h-28.85c-5.47 0-9.91-4.44-9.91-9.92V17.41c0-5.47 4.44-9.91 9.91-9.91h134.88" style="stroke-linecap: round; stroke-linejoin: round; stroke-miterlimit: 10;" fill="none" stroke="#DA9C28" stroke-width="15px" stroke-linecap="round" stroke-linejoin="round" stroke-miterlimit="10" data-original="#000000" opacity="1" class=""></path><path d="M329.637 89.048c18.011-12.24 41.669-12.24 59.68 0M333.807 35.373v14.802M385.146 35.373v14.802M82.056 89.048c18.011-12.24 41.669-12.24 59.68 0M86.226 35.373v14.802M137.565 35.373v14.802M79.372 271.657h0a22.622 22.622 0 0 0 19.991.01h0a45.936 45.936 0 0 0 25.42-36.686l.981-9.872c2.144-21.572-14.786-40.301-36.441-40.312h0c-21.654-.011-38.565 18.7-36.4 40.274l.991 9.873a46.055 46.055 0 0 0 25.458 36.713zM39.88 349.11v94.878c0 4.45-1.79 8.47-4.7 11.4-2.9 2.93-6.92 4.75-11.36 4.79-8.99.07-16.32-7.2-16.32-16.19V329.21c0-17.87 12.8-33.18 30.38-36.36l31.05-5.6c3.53 9.45 11.97 14.17 20.41 14.17s16.88-4.72 20.41-14.17l31.05 5.6c17.59 3.18 30.38 18.49 30.38 36.36v71.42" style="stroke-linecap: round; stroke-linejoin: round; stroke-miterlimit: 10;" fill="none" stroke="#DA9C28" stroke-width="15px" stroke-linecap="round" stroke-linejoin="round" stroke-miterlimit="10" data-original="#000000" opacity="1" class=""></path><path d="M171.18 435.63v8.358c0 8.95-7.26 16.19-16.19 16.19h-.13c-8.89-.07-16.06-7.3-16.06-16.19V349.11M89.342 446.384V504.5M109.751 287.252l-2.33-19.025M68.932 287.252l2.379-19.427M472.117 349.106v94.883c0 8.892 7.171 16.12 16.063 16.191h0c8.992.071 16.32-7.198 16.32-16.191V329.21c0-17.874-12.795-33.184-30.385-36.357l-31.047-5.601h0c-7.048 18.892-33.77 18.892-40.818 0h0l-31.047 5.601a36.905 36.905 0 0 0-9.984 3.319M373.308 504.5v-47.244M422.659 446.384V504.5M443.068 287.252l-2.379-19.431M402.249 287.252l2.38-19.431M412.689 271.657h0a22.622 22.622 0 0 0 19.991.01h0a45.936 45.936 0 0 0 25.42-36.686l.981-9.872c2.144-21.572-14.786-40.301-36.441-40.312h0c-21.654-.011-38.565 18.7-36.4 40.274l.991 9.873a46.06 46.06 0 0 0 25.458 36.713zM287.731 271.657h0a22.622 22.622 0 0 0 19.991.01h0a45.936 45.936 0 0 0 25.42-36.686l.981-9.872c2.144-21.572-14.786-40.301-36.441-40.312h0c-21.654-.011-38.565 18.7-36.4 40.274l.991 9.873a46.06 46.06 0 0 0 25.458 36.713z" style="stroke-linecap: round; stroke-linejoin: round; stroke-miterlimit: 10;" fill="none" stroke="#DA9C28" stroke-width="15px" stroke-linecap="round" stroke-linejoin="round" stroke-miterlimit="10" data-original="#000000" opacity="1" class=""></path><path d="M248.24 349.11v94.878c0 4.45-1.79 8.47-4.7 11.4-2.9 2.93-6.92 4.75-11.36 4.79-8.99.07-16.32-7.2-16.32-16.19V329.21c0-17.87 12.79-33.18 30.38-36.36l31.05-5.6c3.53 9.45 11.97 14.17 20.41 14.17s16.88-4.72 20.41-14.17l31.05 5.6c17.59 3.18 30.38 18.49 30.38 36.36v15.41" style="stroke-linecap: round; stroke-linejoin: round; stroke-miterlimit: 10;" fill="none" stroke="#DA9C28" stroke-width="15px" stroke-linecap="round" stroke-linejoin="round" stroke-miterlimit="10" data-original="#000000" opacity="1" class=""></path><path d="M379.54 379.62v64.368c0 8.95-7.26 16.19-16.19 16.19h-.13c-8.89-.07-16.06-7.3-16.06-16.19V349.11M297.701 446.384V504.5M318.11 287.252l-2.38-19.431M277.291 287.252l2.466-20.139M472.117 443.989V504.5M248.24 443.988V504.5M347.16 443.988V504.5M138.8 443.988V504.5M39.88 443.988V504.5" style="stroke-linecap: round; stroke-linejoin: round; stroke-miterlimit: 10;" fill="none" stroke="#DA9C28" stroke-width="15px" stroke-linecap="round" stroke-linejoin="round" stroke-miterlimit="10" data-original="#000000" opacity="1" class=""></path></g></svg>