<svg xmlns="http://www.w3.org/2000/svg" version="1.1" xmlns:xlink="http://www.w3.org/1999/xlink" width="512" height="512" x="0" y="0" viewBox="0 0 500 500" style="enable-background:new 0 0 512 512" xml:space="preserve" class=""><g><path d="M333.5 373.9c-3.2-2.8-3.6-7.6-.8-10.8s7.6-3.6 10.8-.8l16.3 14.1c21.5-22.5 57.3-22.9 79.3-.9 21.6 21.7 21.6 56.8 0 78.4-21.7 21.6-56.8 21.6-78.4 0-17.1-17.1-21.2-43.5-9.8-65zm-52.7-197.5 12 21.7 24.5 4.7c5.7 1.1 8.6 8.3 3.7 13.2l-16.6 17.7 3.1 24.8c.7 5.7-5.2 10.8-11.4 7.6l-22-10.3-22.6 10.6c-5.5 2.5-11.5-2.1-10.8-7.8l3.1-24.8-17-18.2c-4.1-4.4-1.7-11.6 4.1-12.7l24.5-4.7 12.1-21.8c2.8-5.4 10.5-5.2 13.3 0zm.4 32.3-7.1-12.9-7.1 12.8c-1.1 1.9-3 3.4-5.3 3.9l-14.5 2.8 9.5 10.2c1.8 1.6 2.8 4.1 2.5 6.7l-1.8 14.6 13.3-6.2c2-.9 4.3-1 6.5 0l13.3 6.2-1.8-14.6h.1c-.3-2.2.4-4.4 2-6.1l10.1-10.7-14.5-2.8c-2.1-.5-4.1-1.8-5.2-3.9zm-42.7 114.8h71.2c6.6-53.2 42.9-47.3 42.9-101.6 0-43.4-35.2-78.6-78.6-78.6s-78.6 35.2-78.6 78.6c.1 54.1 36.5 47.9 43.1 101.6zm86.3 2c15.4 7.8 12.8 33.6-6.1 36 2.1 10.2-4 21.3-15.7 22.9-5.8 13.5-15.3 26.8-29 26.8s-23.2-13.3-29-26.8c-11.7-1.5-17.7-12.7-15.7-22.9-18.9-2.4-21.5-28.3-6.1-36-5.9-48-43.1-42.8-43.1-103.6 0-51.8 42-93.9 93.9-93.9 51.8 0 93.9 42 93.9 93.9 0 60.9-37.1 56.1-43.1 103.6zm-8.9 13.3h-83.6c-3.8 0-4.2 3.6-3.4 5.6.5 1.1 1.6 2 3.4 2h83.6c3.8 0 4.2-3.6 3.4-5.6-.5-1.1-1.6-2-3.4-2zM248 369.2h52.2c3.8 0 4.2-3.6 3.4-5.6-.5-1.1-1.6-2-3.4-2H248c-3.8 0-4.2 3.6-3.4 5.6.5 1.2 1.6 2 3.4 2zm14.1 15.4c2.5 4.6 7.3 11.3 12 11.3s9.4-6.7 12-11.3zm-82.3-93.1c3-3 7.8-3 10.8 0s3 7.8 0 10.8l-24.2 24.2c-3 3-7.8 3-10.8 0s-3-7.8 0-10.8zm212.5 107.1c0-4.2 3.4-7.6 7.6-7.6s7.6 3.4 7.6 7.6v8.5h8.5c4.2 0 7.6 3.4 7.6 7.6s-3.4 7.6-7.6 7.6h-8.5v8.5c0 4.2-3.4 7.6-7.6 7.6s-7.6-3.4-7.6-7.6v-8.5h-8.5c-4.2 0-7.6-3.4-7.6-7.6s3.4-7.6 7.6-7.6h8.5zm36-12.2c-15.7-15.7-41.1-15.7-56.8 0s-15.7 41.1 0 56.8 41.1 15.7 56.8 0 15.7-41.2 0-56.8zM409.8 69.1c0-4.2 3.4-7.7 7.7-7.7 4.2 0 7.6 3.4 7.6 7.7v8.5h8.5c4.2 0 7.7 3.4 7.7 7.6s-3.4 7.7-7.7 7.7h-8.5v8.5c0 4.2-3.4 7.6-7.6 7.6s-7.7-3.4-7.7-7.6v-8.5h-8.5c-4.2 0-7.6-3.4-7.6-7.7 0-4.2 3.4-7.6 7.6-7.6h8.5zM74.9 212.5c0-4.2 3.4-7.6 7.7-7.6 4.2 0 7.6 3.4 7.6 7.6v8.5h8.5c4.2 0 7.7 3.4 7.7 7.6s-3.4 7.6-7.7 7.6h-8.5v8.5c0 4.2-3.4 7.6-7.6 7.6s-7.7-3.4-7.7-7.6v-8.5h-8.5c-4.2 0-7.6-3.4-7.6-7.6s3.4-7.6 7.6-7.6h8.5zM417.4 29.8c30.6 0 55.4 24.8 55.4 55.4s-24.8 55.4-55.4 55.4c-12.2 0-23.5-3.9-32.6-10.6l-20.9 21c-3 3-7.8 3-10.8 0s-3-7.8 0-10.8l20.7-20.7c-17.3-22-15.4-53.6 4.4-73.4 10.1-10.1 23.9-16.3 39.2-16.3zm28.4 27.1c-15.7-15.7-41.1-15.7-56.8 0s-15.7 41.1 0 56.8 41.1 15.7 56.8 0 15.7-41.1 0-56.8zM82.6 173.3c28.3 0 52 21.3 55.1 49.2h17c4.2 0 7.6 3.4 7.6 7.6s-3.4 7.6-7.6 7.6h-17.4c-4.3 26.5-27.4 46.5-54.7 46.5-30.6 0-55.4-24.8-55.4-55.4s24.7-55.5 55.4-55.5zm28.3 27c-15.7-15.7-41.1-15.7-56.8 0s-15.7 41.1 0 56.8 41.1 15.7 56.8 0 15.7-41.1 0-56.8zm315.2 22.1c4.2 0 7.6 3.4 7.6 7.6s-3.4 7.6-7.6 7.6h-32.6c-4.2 0-7.6-3.4-7.6-7.6s3.4-7.6 7.6-7.6zM161.2 128c-3-3-3-7.8 0-10.8s7.8-3 10.8 0l23 23c3 3 3 7.8 0 10.8s-7.8 3-10.8 0zm105.2-50c0-4.2 3.4-7.6 7.6-7.6s7.6 3.4 7.6 7.6v32.6c0 4.2-3.4 7.6-7.6 7.6s-7.6-3.4-7.6-7.6z" fill="#DA9C28" opacity="1" data-original="#000000"></path></g></svg>