<?xml version="1.0" encoding="UTF-8"?>
<svg id="Objects" xmlns="http://www.w3.org/2000/svg" viewBox="0 0 481.5 495.52">
  <defs>
    <style>
      .cls-1 {
        font-family: Cairo-Bold, Cairo;
        font-size: 34.96px;
        font-weight: 700;
      }

      .cls-1, .cls-2 {
        fill: #094c66;
      }

      .cls-3 {
        fill: #81ccea;
      }
    </style>
  </defs>
  <path class="cls-3" d="M276.14,260.72l-20.21,78.14h-.07s-23.7-34.99-25.65-44.15c1.42-1.67,2.17-2.66,2.17-2.66,0,0,13.71-16.82,21.99-52.62,2.17-9.39,6.23-26.11,11.01-45.68,0-.02,.02-.04,.02-.07,0,0,2.48,43.57,10.74,67.03Z"/>
  <path class="cls-3" d="M276.29,260.14l-20.34,78.63-.09,.09,15.27-97.66c.69,5.86,2.62,12.38,5.15,18.93Z"/>
  <path class="cls-3" d="M148.28,260.72l-20.21,78.14h-.07s-23.7-34.99-25.65-44.15c1.42-1.67,2.17-2.66,2.17-2.66,0,0,13.71-16.82,21.99-52.62,2.17-9.39,6.23-26.11,11.01-45.68,0-.02,.02-.04,.02-.07,0,0,2.48,43.57,10.74,67.03Z"/>
  <path class="cls-3" d="M148.42,260.14l-20.34,78.63-.09,.09,15.27-97.66c.69,5.86,2.62,12.38,5.15,18.93Z"/>
  <g>
    <path class="cls-3" d="M115.97,83.39c-3.32,2.09-6.73,4.38-10.22,6.9,3.49-2.51,6.91-4.81,10.22-6.9Z"/>
    <path class="cls-3" d="M145.01,68.46h0l7.63,18.72-20.61,8.48-7.17-17.55c-2.88,1.58-5.84,3.35-8.88,5.28l8.14,12.36-13.93,9.23-7.96-12.11c-2.17,1.64-4.39,3.37-6.63,5.17-3.24,2.66-6.55,5.48-9.89,8.52,3.33-3.04,6.65-5.86,9.89-8.52l7.03,9.56-10.45,7.74-6.46-8.78c-.33,.29-.66,.58-.98,.89-1.91,1.75-3.91,3.64-5.95,5.66-.75,.74-1.51,1.49-2.27,2.27,.76-.77,1.52-1.53,2.27-2.27l4.61,7.01-10.83,7.19-2.97-4.5c.77-.88,1.55-1.74,2.32-2.58-.77,.84-1.55,1.71-2.32,2.58-11.16,12.65-22.12,28.87-27.07,48.1L0,339.64s1.29,9.14,37.94,.27c36.65-8.88,66.56-47.86,66.56-47.86,0,0,13.71-16.82,21.99-52.62,4.21-18.21,15.49-63.99,25.58-104.56l-.53,.25-5.88-11.63,10.54-5.28c7.86-31.71,14.15-56.77,14.15-56.77,0,0-9.78,.87-25.34,7.01Zm-17.88,39.01l6.46,11.32-11.26,6.49-6.46-11.32,11.26-6.49Zm-20.5,8.87l7.58,10.6-10.54,7.61-7.58-10.6,10.54-7.61Zm-33.8,34.82l-5.89-7.03,7-5.88,5.89,7.03-7,5.88Zm13.96-10.62l-5.37-7.43,7.39-5.39,5.37,7.43-7.39,5.39Zm10.69,17.44l-5.4-7.38,7.39-5.44,5.4,7.38-7.38,5.44Zm20.27-4.4l-7.55-10.63,10.6-7.51,7.56,10.64-10.6,7.51Zm29.06-14.38l-11.3,6.41-6.44-11.34,11.29-6.41,6.45,11.33Zm-4.97-20.84l-7.16-15.15,15.08-7.13,7.16,15.15-15.08,7.13Z"/>
  </g>
  <g>
    <path class="cls-3" d="M324.52,312.91c-.91-.62-1.81-.81-2.75-.58-.93,.23-1.54,.81-1.81,1.74-.28,.94-.1,2.23,.59,3.87,.69,1.64,1.55,2.79,2.55,3.42,.99,.64,2.01,.82,3.02,.54,1.01-.28,1.61-.91,1.81-1.86,.2-.95-.12-2.22-.89-3.82-.78-1.59-1.6-2.7-2.51-3.32Z"/>
    <path class="cls-3" d="M377.8,60.37c2.43,1.32,4.05,1.92,6.38-1,4.79-5.97,13.19-7.37,20.27-3.77,2.47,1.26,3.48,.61,4.93-1.22,12.37-15.52,24.74-31.06,37.11-46.56-23.07,7.16-54.21,20.51-82.74,45.01-.78,.66-1.56,1.33-2.32,2.01l2.32-2.01c4.04,2.09,8.72,4.59,14.05,7.54Z"/>
    <path class="cls-3" d="M411.16,61.28c7.13,9.94,1.74,23.8-10.24,26.87-1.66,.42-3.96,.3-2.77,3.21,.81,1.98-.25,5.07,4.17,4.32,6.99-1.18,13.51,3.68,15.24,10.45,1.79,6.99-1.42,13.89-7.81,16.84-6.48,2.97-14.17,.75-18.1-5.22-2.19-3.31-2.87-7.32-2.05-10.99,0,0,0,0,0,0-4.73-2.49-7.03-3.5-9.31-4.49-1.65,5.59-6.29,10.06-12.34,10.68-4.9,.5-2.86,3.47-3.14,5.79-.41,3.41,1.99,2.62,3.86,2.58,13.54-.3,23.31,12.75,18.7,25.34-.93,2.53-.27,3.38,1.58,4.71,4.42,3.18,7.46,5.4,9.83,7.15,4.18-6.86,11.65-11.5,20.28-11.68,10.63-.23,19.82,6.41,23.33,15.86C458.16,96.25,481.5,0,481.5,0c0,0-11.89,1.17-29.79,6.29-13.44,16.81-26.86,33.65-40.32,50.44-1.29,1.63-1.66,2.53-.23,4.54Z"/>
    <path class="cls-3" d="M395.23,171.7c-.09-3.6,.64-7.03,1.99-10.14-2.31-1.72-5.3-3.91-9.71-7.11-2.07-1.5-3.34-1.9-5.57,.16-6.41,5.89-15.68,6.88-22.49,1.97-3.3-2.38-5.51-4.78-6.99-7.5-4.77-8.77-2.02-19.6,6.54-24.6,3.21-1.88,2.93-3.96,2.78-6.71-.15-2.79-.39-4.92-3.63-6.36-7.1-3.17-10.3-11.35-7.96-18.61,2.41-7.45,9.88-12.05,17.57-10.81,7.61,1.23,13.02,7.58,13.19,15.48,.01,.7-.03,1.39-.11,2.07,3,1.37,5.11,2.21,9.67,4.54,.8-1.76,2-3.33,3.58-4.64,2.5-2.07,2.18-3.99,1.64-6.49-.54-2.46-.82-4.36-4.09-5.22-8.75-2.31-13.82-11.15-11.77-20.04,.64-2.75-.25-3.67-2.48-4.8-1.54-.77-8.99-4.52-15.96-8.06-1.33,1.17-2.63,2.37-3.94,3.58-17.66,16.47-41.8,42.8-50.3,76.81l-51.26,203.63s24.49,8.75,68.54-2.27c44.06-11.02,79.74-58.25,79.74-58.25,0,0,16.38-20.39,26.03-63.57,1.39-6.24,3.46-15.13,5.96-25.83-4.22,3.97-9.87,6.44-16.12,6.58-13.43,.29-24.56-10.39-24.85-23.82Zm-91.72,155.91c-.25-.76-.37-1.15-.6-1.91,1.43-1.54,2.13-2.32,3.48-3.9,.52-.61,.98-1.17,1.37-1.66,.39-.5,.7-.96,.95-1.38,.25-.42,.41-.83,.49-1.2,.08-.38,.06-.77-.05-1.16-.16-.56-.5-.97-1.01-1.23-.51-.27-1.2-.37-2.07-.3-.82,.06-1.59,.18-2.31,.36-.72,.19-1.38,.42-1.97,.72-.51-.85-.76-1.28-1.25-2.14,.26-.14,.58-.28,.97-.42,.38-.14,.8-.28,1.23-.4,.44-.12,.9-.22,1.37-.3,.47-.08,.94-.14,1.42-.17,2.03-.14,3.58,.08,4.72,.71,1.14,.63,1.91,1.54,2.3,2.76,.18,.56,.23,1.15,.13,1.74-.1,.59-.29,1.2-.58,1.81-.3,.61-.66,1.22-1.11,1.84-.45,.62-.93,1.22-1.43,1.82-.52,.63-.78,.94-1.32,1.56,3.12-.28,4.66-.48,7.68-.99,.39,.96,.6,1.44,1.01,2.4-5.22,.91-7.91,1.21-13.41,1.45Zm27.68-6.87c-.25,.77-.7,1.45-1.36,2.02-.66,.57-1.52,1.02-2.58,1.32-1.06,.3-2.11,.4-3.13,.3-1.02-.1-1.99-.39-2.88-.86-.89-.47-1.7-1.12-2.4-1.94-.7-.82-1.27-1.79-1.71-2.92-.44-1.13-.65-2.16-.66-3.11-.01-.95,.16-1.79,.51-2.52,.34-.73,.86-1.34,1.52-1.83,.66-.49,1.47-.85,2.42-1.09,.95-.24,1.85-.3,2.73-.2,.88,.11,1.71,.37,2.5,.8,.79,.43,1.53,1.02,2.22,1.77,.7,.75,1.32,1.65,1.87,2.71,.55,1.06,.92,2.05,1.07,2.99,.16,.94,.12,1.79-.12,2.56Zm5.9-.32c-.55-.85-.82-1.27-1.34-2.13,1.49-.57,2.23-.88,3.68-1.51-2.11-3.19-3.08-4.81-4.87-8.1-1.03,.75-1.55,1.11-2.62,1.83-.39-.76-.59-1.15-.96-1.91,1.25-1.03,1.86-1.55,3.04-2.62,.84-.36,1.26-.55,2.08-.94,2.3,4.21,3.59,6.27,6.42,10.3,1.34-.68,1.99-1.03,3.29-1.75,.6,.8,.9,1.19,1.52,1.98-3.91,2.15-5.96,3.13-10.22,4.85Zm19.51-10.71c-.73-.77-1.09-1.15-1.79-1.93-2.51,1.79-3.82,2.64-6.54,4.23-.46-.59-.69-.88-1.14-1.48,.4-4.88,.52-7.31,.61-12.17,.8-.55,1.19-.84,1.97-1.41,2.28,2.98,3.49,4.43,6.08,7.25,.55-.42,.83-.63,1.37-1.07,.64,.67,.96,1,1.62,1.66-.55,.44-.83,.66-1.4,1.1,.72,.76,1.09,1.13,1.84,1.88-1.02,.79-1.55,1.18-2.61,1.94Z"/>
    <path class="cls-3" d="M349.77,308.38c1.45-.92,2.15-1.39,3.54-2.37-1.4-1.61-2.08-2.43-3.38-4.09-.02,2.58-.05,3.87-.16,6.46Z"/>
  </g>
  <path class="cls-2" d="M46.25,387.23c2.63,.02,5.77,.13,9.42,.34,3.66,.21,6.23,.44,7.73,.68l-.21,34.96-17.52-.1c-4.64-.03-8.3-.54-10.97-1.54-2.67-1-4.64-2.81-5.91-5.42-1.28-2.61-1.9-6.4-1.87-11.37s.66-8.36,1.89-10.86c1.23-2.5,3.21-4.25,5.94-5.24,2.73-.99,6.55-1.47,11.48-1.45h0Zm-9.88,17.6c-.02,2.63,.31,4.63,.98,6.02,.67,1.39,1.71,2.34,3.11,2.87,1.4,.52,3.32,.79,5.76,.81l7.6,.04,.11-18.36c-2.34-.25-4.81-.38-7.38-.4-2.58-.02-4.59,.23-6.02,.74-1.43,.51-2.48,1.4-3.15,2.69-.66,1.29-1,3.15-1.02,5.59h0Zm1.81-32.28l7.25,.04-.05,8.79-7.25-.04,.05-8.79Zm10.69,.06l7.25,.04-.05,8.79-7.25-.04,.05-8.79Zm60.04,42.28l-.05,8.58-39.32-.23,.05-8.58,22.58,.13v-2.53c.05-6.1-1.07-10.45-3.36-13.07-2.28-2.62-5.02-3.93-8.21-3.95l-7.11-.04-.66-7.39c1.46-.32,3.11-.61,4.96-.89,1.85-.27,3.56-.4,5.1-.39,3.75,.02,7.04,.97,9.87,2.84,2.83,1.87,5.01,4.66,6.56,8.38,1.55,3.71,2.31,8.27,2.28,13.66l-.02,3.45,7.32,.04Zm23.45-27.16c4.41,.03,7.6,.97,9.59,2.84,1.98,1.86,2.98,4.81,3.01,8.85l-.14,24.27-35.95-.21,.05-8.58,26.52,.16,.08-13.23c.01-2.02-.41-3.53-1.27-4.55-.86-1.01-2.35-1.53-4.46-1.54-4.32,.12-8.07,.23-11.26,.36l-3.59,.12-.24-6.26c2.44-.64,5.4-1.18,8.87-1.6,3.47-.42,6.41-.63,8.8-.62h0Zm-6.58,41.47l8.65,.05-.05,9.15-8.65-.05,.05-9.15Zm85.27-13.71l-.05,8.58-24.83-.15c-4.64-.03-8.3-.54-10.97-1.54-2.67-1-4.64-2.81-5.91-5.42-1.28-2.61-1.9-6.4-1.87-11.37s.66-8.36,1.89-10.86c1.23-2.5,3.21-4.25,5.94-5.24,2.73-.99,6.55-1.47,11.48-1.45,2.63,.02,5.77,.13,9.42,.34,3.66,.21,6.23,.44,7.73,.68l-.16,26.38,7.32,.04Zm-34.2-9.84c-.02,2.63,.31,4.63,.98,6.02,.67,1.39,1.71,2.34,3.11,2.87,1.4,.52,3.32,.79,5.76,.81l7.6,.04,.11-18.36c-2.34-.25-4.81-.38-7.38-.4-2.58-.02-4.59,.23-6.02,.74-1.43,.51-2.48,1.4-3.15,2.69-.66,1.29-1,3.15-1.02,5.59h0Zm1.81-32.28l7.25,.04-.05,8.79-7.25-.04,.05-8.79Zm10.69,.06l7.25,.04-.05,8.79-7.25-.04,.05-8.79Zm68.55,42.33l-.05,8.58-9.22-.05c-2.35-.01-4.72-.3-7.14-.85-2.41-.55-4.67-1.3-6.78-2.26-2.12,.93-4.36,1.65-6.73,2.18-2.37,.53-4.64,.78-6.79,.77l-10.2-.06,.05-8.58,9.99,.06c1.45,0,3.05-.17,4.79-.53-3.31-3.02-5.82-5.69-7.52-7.99-1.7-2.31-2.54-4.73-2.53-7.26l-.17-6.19c2.21-1.39,5.1-2.64,8.68-3.75,3.57-1.1,7.09-1.65,10.56-1.63,3.42,.02,6.95,.6,10.58,1.75,3.63,1.15,6.59,2.43,8.88,3.85l-.32,6.19c-.02,2.58-.89,4.99-2.61,7.23-1.73,2.24-4.26,4.88-7.61,7.9,1.73,.39,3.35,.58,4.85,.59l9.29,.05Zm-23.05-4.36c3.48-2.14,6.04-4.33,7.67-6.57,1.63-2.24,2.45-4.32,2.46-6.25-3.46-1.19-6.84-1.8-10.12-1.82-3.24-.02-6.55,.55-9.93,1.7-.01,1.97,.82,4.13,2.49,6.49,1.67,2.36,4.15,4.5,7.42,6.45h0Zm49.66-22.71c4.83,.03,8.54,.75,11.14,2.18,2.59,1.42,4.34,3.43,5.24,6.01,.9,2.59,1.34,5.96,1.31,10.14l-.1,17.59-44.25-.26,.05-8.58,10.97,.06c-.64-3.38-.95-6.36-.93-8.94s.29-5.34,.82-8.3c.53-2.95,1.13-5.5,1.8-7.66,1.27-.6,3.15-1.13,5.64-1.58,2.49-.45,5.26-.67,8.31-.65h0Zm-7.42,18.25c0,1.59,.09,3.23,.29,4.89,.2,1.67,.42,3.02,.64,4.05l14.7,.09,.05-9.22c.02-3.28-.61-5.7-1.89-7.26-1.28-1.56-3.75-2.34-7.41-2.37-1.78-.01-3.57,.17-5.35,.53-.68,3.51-1.02,6.61-1.04,9.28h0Zm50.53,9.23l-.05,8.58-16.32-.1,.29-49.24,9.43,.06-.24,40.66,6.89,.04Zm23.45-27.16c4.41,.03,7.6,.97,9.59,2.84,1.98,1.86,2.98,4.81,3.01,8.85l-.14,24.27-35.95-.21,.05-8.58,26.52,.16,.08-13.23c.01-2.02-.41-3.53-1.27-4.55-.86-1.01-2.35-1.53-4.46-1.54-4.32,.12-8.07,.23-11.26,.36l-3.59,.12-.24-6.26c2.44-.64,5.4-1.18,8.87-1.6,3.47-.42,6.41-.63,8.8-.62h0Zm-6.58,41.47l8.65,.05-.05,9.15-8.65-.05,.05-9.15Z"/>
  <g>
    <path class="cls-3" d="M272.85,104.61c-12.98,4.21-25.14,10.21-37.21,16.44-10.67,5.52-20.92,11.76-30.91,18.39-5.94,3.93-11.82,8.01-17.57,12.23-4.76,3.49-9.43,7.12-14.1,10.73-.67,1.85-1.29,3.73-1.85,5.64,3.57-2.65,7.14-5.3,10.76-7.87,6.12-4.33,12.29-8.61,18.57-12.71,5.75-3.75,11.63-7.32,17.55-10.78,6.12-3.59,12.29-7.12,18.59-10.36,6.99-3.59,14.13-6.92,21.28-10.2,5.1-2.33,10.29-4.55,15.53-6.55,4.58-1.73,9.26-3.17,13.91-4.69,.45-1.81,.89-3.58,1.32-5.31-5.29,1.69-10.6,3.32-15.87,5.03Z"/>
    <path class="cls-3" d="M272.08,124.14c-8.61,2.99-16.95,6.66-25.09,10.76-8.37,4.21-16.75,8.47-24.83,13.18-7.92,4.59-15.53,9.69-23.19,14.69-5.7,3.71-11.36,7.54-16.91,11.49-5.21,3.69-10.27,7.56-15.37,11.38l-1.42,5.63c9.14-6.04,18.25-12.14,27.44-18.1,6.14-3.97,12.34-7.88,18.66-11.58,9.23-5.41,18.52-10.74,27.95-15.82,6.45-3.48,13.04-6.7,19.75-9.61,7.5-3.24,15.17-6.06,22.8-9.02,.58-2.34,1.15-4.63,1.72-6.91-3.83,1.31-7.68,2.59-11.51,3.92Z"/>
    <path class="cls-3" d="M292.68,83.66c3.38-13.56,5.55-22.21,5.55-22.21,0,0-9.78,.87-25.34,7.01-5.95,2.37-12.74,5.48-20.15,9.65-2.88,1.58-5.84,3.35-8.88,5.28-4.42,2.79-9.01,5.94-13.75,9.49-2.17,1.64-4.39,3.37-6.63,5.17-3.24,2.66-6.55,5.48-9.89,8.52-.33,.29-.66,.58-.98,.89-1.91,1.75-3.91,3.64-5.95,5.66-3,2.95-6.1,6.19-9.19,9.7-3.68,4.17-7.33,8.74-10.76,13.67,32.57-23.21,67.16-42.22,105.98-52.83Z"/>
    <path class="cls-3" d="M268.57,161.08c-6.5,2.91-13.04,5.79-19.41,9.01-6.52,3.3-12.94,6.83-19.23,10.58-7.85,4.7-15.6,9.58-23.23,14.64-7.65,5.1-15.15,10.47-22.61,15.84-8.61,6.21-17.13,12.54-25.67,18.84-1.2,.88-2.39,1.77-3.59,2.67l-26.95,106.98s1.29,9.14,37.94,.27c36.65-8.88,66.56-47.86,66.56-47.86,0,0,13.71-16.82,21.99-52.62,3.39-14.66,11.36-47.2,19.61-80.5-1.83,.68-3.66,1.35-5.42,2.15Zm-33.6,102.57c-1.32-.41-2.61-.71-3.87-.91-3.88-.62-7.49-.29-10.86,.67-1.62,.46-3.19,1.07-4.7,1.8-1.01,.48-2,1.01-2.96,1.58-.72,.43-1.43,.88-2.12,1.35-1.66,1.12-3.24,2.34-4.75,3.59,1.7,1.48,3.29,2.94,4.75,4.26,.75,.68,1.46,1.32,2.12,1.9,1.12,.98,2.12,1.81,2.96,2.39,.37,.25,.71,.47,1.02,.62,.55-.75,1.5-1.18,2.54-.95,.43,.1,.83,.32,1.15,.62,.34,.32,.59,.74,.7,1.2,.18,.8-.17,1.81-.48,2.12-.07,.07-.14,.13-.22,.19-1.34,1.17-2.9,1.05-4.7,.1-.92-.49-1.91-1.19-2.96-2.05-.68-.56-1.39-1.18-2.12-1.84-1.79-1.62-3.74-3.53-5.88-5.48-.39-.36-.78-.72-1.19-1.07-.41,.36-.8,.72-1.2,1.08-4.71,4.31-8.55,8.39-11.63,9.68-1.61,.68-3.02,.6-4.24-.62-.45-.45-.66-1.32-.48-2.12,.2-.9,.94-1.62,1.84-1.82,1.04-.23,1.99,.21,2.54,.95,.11-.06,.22-.12,.34-.18,2.29-1.32,6.05-5.1,10.51-8.98-3.15-2.62-6.65-5.1-10.51-6.84-2.75-1.24-5.69-2.1-8.83-2.38-2.87-.25-5.9,0-9.11,.9-.27,.08-.54,.15-.81,.24-.1,.03-.17-.11-.08-.16,.23-.13,.53-.3,.89-.47,1.75-.87,4.94-2.12,9.11-2.3,2.6-.11,5.58,.19,8.83,1.25,.38,.12,.76,.25,1.15,.4,3.15,1.19,6.33,3.22,9.35,5.53,1.75-10.59,.9-20.42,.49-25.25,0-.03-.04-.04-.06-.02-3.75,2.36-2.7,8.95-1.91,10.84,.01,.04-.04,.06-.07,.03-4.67-5.52-2.39-11.62-1.43-13.16,.02-.04-.03-.07-.06-.04-4.18,3.4-3.99,7.9-3.77,10.42,0,.04-.05,.05-.07,.02-1.7-3.34-2.22-8.99,3-13.57,.03-.03,0-.07-.03-.06-4.66,1.12-6.54,5.53-6.58,8.82,0,.05,0,.11,0,.17,0,.04-.06,.05-.07,0-.67-2.46-.52-4.46,.08-6.06,1.35-3.62,5-5.2,6.78-5.42,.04,0,.03-.07,0-.07-3.46-.32-5.57,.76-6.77,1.81-.74,.65-1.15,1.3-1.3,1.6-.02,.04-.07,.01-.07-.03,.13-1.33,.64-2.42,1.38-3.3,2.06-2.45,5.91-3.13,8.41-2.08,.04,.02,.06-.02,.04-.06-1.62-2.32-4.84-2.56-6.55-1.75-.03,.01-.07-.03-.04-.06,2.56-2.93,6.77-3,9.01,.4,.02,.02,.05,.02,.06,0,.24-.43,.48-.91,.7-1.42,.52-1.19,.94-2.54,1.17-3.87,0-.04,.06-.04,.06,0,.22,1.32,.64,2.67,1.16,3.85,.23,.51,.46,1,.71,1.44,.01,.02,.05,.02,.06,0,1.28-1.94,3.21-2.75,5.11-2.53,.73,.08,1.45,.32,2.12,.69,.64,.35,1.25,.83,1.78,1.44,.03,.03,0,.07-.04,.06-.48-.23-1.09-.37-1.74-.41-.68-.04-1.41,.04-2.12,.25-1.03,.31-2,.92-2.69,1.9-.02,.03,.01,.07,.04,.06,.78-.33,1.7-.48,2.65-.47,.7,.01,1.42,.11,2.12,.3,1.08,.3,2.11,.82,2.96,1.56,1.1,.96,1.89,2.29,2.06,3.99,0,.04-.05,.06-.07,.03-.2-.38-.8-1.32-1.99-2.12-.74-.5-1.71-.94-2.96-1.17-.63-.12-1.34-.19-2.12-.17-.32,0-.66,.02-1.01,.05-.04,0-.05,.07,0,.07,.3,.04,.64,.11,1.02,.23,.65,.19,1.38,.5,2.12,.95,1.09,.65,2.17,1.59,2.96,2.86,1.11,1.78,1.64,4.22,.76,7.45-.01,.04-.07,.04-.07,0,0-1.13-.21-2.41-.69-3.64-.58-1.5-1.54-2.94-2.96-3.99-.62-.46-1.32-.84-2.12-1.12-.26-.09-.53-.17-.81-.24-.03,0-.06,.04-.03,.06,.3,.26,.58,.53,.84,.81,.92,.94,1.61,1.92,2.12,2.9,1.89,3.64,1.29,7.39,.03,9.86,0,.01-.02,0-.03,.01-.02,0-.05,0-.04-.03,.02-.18,.03-.37,.04-.56,.05-.74,.08-1.6,0-2.53-.14-1.76-.67-3.76-2.12-5.6-.47-.59-1.02-1.17-1.69-1.73-.03-.02-.08,0-.06,.04,.96,1.54,3.24,7.64-1.43,13.16-.03,.03-.08,0-.07-.03,.79-1.89,1.84-8.48-1.91-10.84-.03-.02-.06,0-.06,.02-.41,4.83-1.26,14.66,.49,25.25,1.54-1.18,3.13-2.29,4.73-3.25,.71-.42,1.41-.81,2.12-1.18,.83-.42,1.66-.79,2.49-1.11,.16-.06,.31-.11,.47-.17,1.64-.58,3.21-.98,4.7-1.21,4.44-.7,8.17-.06,10.86,.79,1.86,.59,3.21,1.29,3.95,1.71,.09,.05,.02,.19-.08,.16Z"/>
    <path class="cls-3" d="M269.73,143.31c-9.94,3.53-19.37,8.17-28.71,13.02-5.52,2.86-10.89,6.03-16.31,9.08-3.3,1.86-6.65,3.68-9.87,5.7-6.35,3.99-12.67,8.05-18.95,12.16-5.99,3.9-11.93,7.87-17.84,11.87-4.35,2.95-8.63,6.03-12.96,9.03-1.23,.85-2.47,1.69-3.71,2.54l-2.5,9.9c4.93-3.65,9.87-7.28,14.85-10.84,7.7-5.5,15.49-10.91,23.34-16.2,8.72-5.88,17.41-11.83,26.38-17.33,7.7-4.73,15.71-8.99,23.7-13.24,6.1-3.24,12.34-6.23,18.62-9.1,3.78-1.73,7.72-3.14,11.6-4.66,.43-1.73,.86-3.46,1.29-5.18-2.97,1.1-5.94,2.2-8.93,3.25Z"/>
  </g>
  <text class="cls-1" transform="translate(23.91 477.03) scale(1.12 1)"><tspan x="0" y="0">University of Jeddah</tspan></text>
</svg>