<?xml version="1.0" encoding="UTF-8"?>
<svg id="Layer_1" data-name="Layer 1" xmlns="http://www.w3.org/2000/svg" viewBox="0 0 500.36 448.21">
  <defs>
    <style>
      .cls-1 {
        fill: #da9c28;
      }

      .cls-2 {
        fill: #594a42;
      }
    </style>
  </defs>
  <g>
    <g>
      <path class="cls-1" d="M490.75,86.83c-37.9,4.46-69.58,13.6-104.99,28.32-15.8,6.56-30.86,14.84-46.04,23.52-7.57,4.33-15.59,10.01-23.08,15.17-1.22,.84-3.47,2.51-4.73,3.44-1.26,.92-2.34,1.8-3.47,2.67-2.25,1.76-4.32,3.49-6.47,5.34-.18,.15-.46,.41-.62,.53-.17,.12-.07,.01-.1-.1-.02-.12-.01-.05-.03-.26-.02-.21-.03-.09-.07-.55-.04-.46-.11-1.05-.16-1.88-.05-.83-.17-2.44-.22-3.47-1.03-19.29-.95-38.63-.22-57.92,.74-19.3,.86-33.21,2.45-52.45,.57-6.93,1.44-14.77,2.04-21.7,.3-3.42,1.16-10.91,1.53-14.32,.36-3.28,.85-7.26,1.22-10.54,.06-.61,.48-2.85-.15-2.59-.69,.28-2.17,6.08-2.34,6.68-.95,3.4-2.26,6.75-3.08,10.19-11.35,48.15-18.47,97.85-14.26,147.43,.41,4.79,1.56,9.87,1.56,14.66,.16,1.31,2.56,12.23,1.88,12.81,3.9-3.57,9.4-8.61,12.99-11.88,4.69-4.26,9.16-8.01,13.31-11.38,2.4-1.95,3.56-2.85,5.29-4.19,1.73-1.34,3.13-2.39,4.42-3.3,3.45-2.46,5.89-4.46,9.28-6.68,13.56-8.87,26.25-16.96,40.92-24.6,14.68-7.64,30.52-15.19,46.28-21.51,12.41-4.98,25.65-8.68,38.79-11.8,6.84-1.63,13.56-2.68,20.66-4.13,7.11-1.44,10.02-2.29,15.97-6.38,.28-.6-4.75,.45-8.58,.89Z"/>
      <path class="cls-1" d="M368.41,126.21c-4,2.13-8.26,3.85-10.34,4.32-2.08,.48-4.12,2.48-3.74,.51,.38-1.97,5.61-3.87,10.48-6.99,4.87-3.12,17.65-13.04,23.41-19.47,1.44-1.6,5.08-5.31,6.73-7.47,.3-.4,1.16-1.41,1.65-2.03,.48-.62,.93-1.15,1.58-2.01,.65-.86,1.69-2.2,2.44-3.29,3.04-4.42,5.86-9.07,8.18-13.94-3.72,.25-7.79,.85-11.36,1.53-1.82,.35-3.95,.88-5.33,1.22-1.39,.35-1.66,.43-2.72,.73-1.06,.31-2.56,.74-3.44,1.03-10.49,3.4-20.28,7.6-29.63,13.26-4.66,2.83-8.8,6.04-12.97,9.39-1.04,.83-2.08,1.77-2.9,2.54-.83,.76-.85,.81-1.66,1.59-.81,.78-2,2.08-2.8,3.03-1.62,1.93-3.2,4.16-4.45,6.22-.61,1.02-1.19,2.27-1.54,3.05-.36,.77-.45,1.12-.64,1.56-.19,.45-.14,.53-.23,.77-.09,.25,.06,.05,.13,.08,.07,.03,.15-.04,.24-.05,.09,0,.36-.05,.45-.07,3.56-.64,7.62-1.95,10.8-3.15,1.62-.61,3.03-1.24,4.06-1.73,1.03-.48,1.15-.63,1.81-.93,.66-.3,2.54-1.34,2.83-1.45,3.46-1.39,10.48-6.88,12.38-7.52,1.9-.63,.04,.66-.16,1.85-.2,1.19-2.59,4.63-4.28,6.57-.84,.95-3.53,3.8-5.11,5.13-.8,.68-2.72,2.18-3.76,3.02-1.04,.84-4.33,2.77-5.28,3.37-8.64,5.53-30.73,11.48-36.97,12.04-6.24,.57,.28-.17-1.26-.25-1.55-.09,.32-.2,.01-.76-.3-.56,.58-1.83,.83-2.77,.49-1.86,1.28-3.71,2.07-5.74,.77-2.02,1.46-3.81,2.57-6.07,1.1-2.26,2.16-4.23,3.8-6.83,3.29-5.24,7.57-10.7,12.06-15.47,1.1-1.18,2.76-2.81,4.09-4.03,.24-.23,.74-.7,1.07-.99,.32-.29,.59-.55,.99-.89,.4-.34,1.06-.92,1.5-1.28,2.35-1.94,4.04-3.47,6.63-5.3,10.23-7.26,21.04-12.8,33.03-17.01,3.03-1.07,6.61-2.05,9.97-2.95,.67-.18,1.75-.42,2.76-.66,1.02-.24,2.59-.61,3.83-.87,2.45-.5,5.24-1.01,7.74-1.36,4.94-.71,10.02-1.21,14.92-1.33,4.9-.11,9.45-.15,14.29-.09-1.86,3.42-3.66,6.69-5.64,10.07-1.98,3.38-3.92,6.64-6.19,9.95-2.28,3.32-4.94,6.86-7.51,10.01-1.27,1.55-2.88,3.38-4.1,4.72-1.22,1.34-2.21,2.34-3.37,3.5-9.23,9.23-21.08,17.93-31.88,23.67Z"/>
      <path class="cls-1" d="M282.55,179.21c-.26-5.5-.65-10.54-1.14-16-.49-5.46-1.33-10.92-2.14-16.47-.15-1.04-.47-2.78-.68-3.9-.2-1.13-.45-2.58-.67-3.58-.47-2.07-.68-4.07-1.22-5.99-4.28-15.34-9.01-30.29-15.98-44.55-3.47-7.1-8.26-13.38-13.22-19.29-4.96-5.9-10.66-10.49-16.38-15.41-2.87-2.46-5.94-4.17-9.04-6.37-.29-.21-.7-.42-1.17-.71-.48-.29-.79-.48-1.55-.92-.76-.43-2.1-1.2-3.11-1.71-2.03-1.02-4.42-2.27-6.52-3.14-4.2-1.74-8.46-3.19-12.73-4.38-2.18-.6-4.08-.92-6.21-1.42-.79-.19-2.02-.42-2.69-.56-.66-.14-1.15-.21-1.57-.3-.42-.08-.61-.1-.84-.14-.23-.04-.17-.04-.29-.05s-.09,0-.16,.04c-.07,.03-.25,0-.24,.1,.46,5.45,.71,10.74,1.51,16.2,.8,5.46,2.28,11.1,3.71,16.41,.36,1.32,.95,2.89,1.3,3.94,.35,1.05,.77,2.1,1.02,2.8,.66,1.81,1.59,3.88,2.21,5.37,1.26,3.04,3.51,7.29,4.83,9.72,5.27,9.68,14.89,20.87,21.38,27.57,6.49,6.7,13.41,10.5,18.69,14.33,5.28,3.83,5.33,2.82,9.85,5.85-2.24-2.26-.98-1.49-3.71-4.25-2.74-2.76-6.84-6.26-10.97-10.5-2.05-2.11-6.25-6.04-9.35-10.13-3.1-4.09-7.8-9.65-11.19-15.55-3.4-5.89-7.92-14.88-10.54-21.91-.32-.88-.93-2.52-1.16-3.3-.24-.78-.42-1.3-.59-1.88-.17-.58-.4-1.24-.5-1.66-.48-1.95-.98-3.84-1.3-5.7-.63-3.7-.93-7.25-1.11-10.97,0-.09-.09-.21,.08-.22,.16-.01,.15,.01,.39,.08,.23,.07,.31,.08,.71,.22,.41,.14,.64,.19,1.34,.46,.7,.27,1.49,.53,2.59,1.02,1.1,.49,3.13,1.4,4.44,2.1,1.31,.7,3.07,1.72,4.25,2.47,1.18,.76,1.74,1.08,2.87,1.85,1.13,.78,2.31,1.51,3.5,2.45,4.75,3.78,9.34,7.53,13.75,11.93,2.19,2.19,4.41,4.49,6.43,7.14,2.02,2.65,4.01,4.85,5.7,8.1,6.83,13.14,12.25,26.85,16.62,41.32,1.09,3.62,1.9,8.13,2.8,12.01,.12,.5,.3,1.46,.41,2.02,.11,.56,.17,.95,.27,1.56,.1,.61,.29,1.86,.38,2.45,.25,1.61,.55,4.04,.7,5.32,.15,1.27,.25,2.22,.28,2.95,.04,.73,.17,.62,0,.96-.16,.34-.32-.35-.54-.46s-.71-.69-.94-.9c-1.19-1.1-3.16-2.73-4.22-3.56-1.06-.83-1.68-1.29-2.42-1.82-.74-.53-.82-.62-1.45-1.02-.63-.4-1.22-.99-1.83-1.33-9.81-5.53-17.28-11.62-27.98-16.25-20.06-8.69-41.89-16.32-63.49-21.25-21.6-4.92-43.32-7.79-65.35-9.02-24.47-1.37-48.75-.24-73.16,1.57-6.21,.46-18.99,1.03-25.05,2.21-.2,.04-.07,.51-.13,.56-.06,.05-.02,.02-.01,.03,.88,.14,1.79,.34,2.69,.43,21.4,2.15,49.54,2.78,70.99,3.91,18.57,.98,37.26,2.4,55.61,5.19,18.34,2.79,36.29,6.51,53.92,12.14,17.62,5.63,33.93,12.66,50.04,22.06,16.11,9.4,30.37,21.45,43.62,34.79,1.1,1.11,2.1,2.38,3.14,3.44,1.03,1.06,2.4,1.95,2.92,3.33-.1-3.87-.22-8.04-.41-11.85Z"/>
    </g>
    <path class="cls-1" d="M498.8,38.54c1.69,3.99,0,8.33-3.9,10.04-3.91,1.71-8.17-.03-9.88-4.01-1.71-3.98-.04-8.35,3.88-10.07,3.93-1.72,8.2,.05,9.9,4.04Z"/>
    <path class="cls-1" d="M460.38,62.41c2.33,5.48,.02,11.44-5.35,13.79-5.36,2.36-11.22-.06-13.54-5.53-2.32-5.47-.07-11.42,5.31-13.78,5.38-2.36,11.25,.04,13.58,5.52Z"/>
    <path class="cls-1" d="M480.21,47.6c2.14,4.98,.04,10.41-4.85,12.55-4.89,2.15-10.19-.03-12.32-5.01-2.13-4.98-.06-10.4,4.85-12.53,4.9-2.13,10.18,.01,12.32,4.99Z"/>
    <path class="cls-1" d="M327.89,52.31c-4.74-4.09-5.96-10.2-1.75-15.08,4.2-4.88,11.75-6.35,16.68-1.89,4.93,4.45,5.41,11.14,1.11,16.14-4.3,5-11.3,4.93-16.04,.84Z"/>
    <path class="cls-1" d="M273.53,40.41c.63,7.57-4.52,13.83-11.92,14.47-7.4,.64-13.55-4.63-14.19-12.21-.64-7.58,4.52-13.82,11.95-14.46,7.43-.64,13.53,4.63,14.16,12.2Z"/>
    <path class="cls-1" d="M317.2,74.94c-3.92-3.65-4.23-9.52-.66-13.54,3.57-4.02,9.28-4.22,13.22-.59,3.93,3.63,4.26,9.49,.68,13.51-3.58,4.02-9.32,4.27-13.23,.62Z"/>
    <path class="cls-1" d="M122.16,74.04c3.32-5.76,10.16-7.57,15.8-4.17,5.64,3.4,7.41,10.35,4.08,16.13-3.33,5.77-10.16,7.59-15.81,4.19-5.64-3.4-7.37-10.39-4.06-16.15Z"/>
    <path class="cls-1" d="M95.79,69.91c2.8-4.87,8.57-6.41,13.33-3.52,4.76,2.88,6.24,8.73,3.44,13.61-2.8,4.87-8.57,6.41-13.33,3.54-4.77-2.86-6.24-8.75-3.44-13.63Z"/>
  </g>
  <g>
    <path class="cls-1" d="M424.76,148.18c2.21-5.79,8.21-8.49,13.88-6.21,5.67,2.28,8.33,8.4,6.1,14.19-2.23,5.79-8.21,8.47-13.87,6.22-5.66-2.26-8.31-8.41-6.1-14.2Z"/>
    <path class="cls-1" d="M273.47,208.96c2.21-5.78,8.21-8.47,13.87-6.19,5.66,2.28,8.31,8.4,6.08,14.19-2.24,5.79-8.21,8.46-13.87,6.19-5.66-2.26-8.29-8.42-6.08-14.2Z"/>
    <path class="cls-1" d="M60.62,185.89c3.44-6.25,10.73-8.33,16.83-4.81,6.1,3.52,8.15,10.94,4.71,17.18-3.44,6.24-10.72,8.33-16.83,4.8-6.11-3.53-8.15-10.92-4.71-17.17Z"/>
    <g>
      <path class="cls-1" d="M8.28,259.96c-2.72,2.05-8.75,5.79-7.01,6.35,1.74,.56,4.7-2.17,9.09-4.32,4.39-2.15,13.03-6.52,20.18-9.43,7.15-2.91,18.93-7.04,27.4-9.51,8.47-2.47,22.13-5.23,29.76-6.75,7.62-1.52,23.38-2.84,27.03-3.42,7.3-1.15,26.93-.78,27.13-.93,2.35-1.73,1.01-1.31-1.99-3.11-3-1.8-9.91-4.07-16.63-4.44-3.35-.19-10.39-.92-16.95-.31-6.56,.62-15.38,1.25-24.55,3.35-9.17,2.09-22.35,5.81-32.86,10.12-5.26,2.16-13.91,6.17-19.68,9.25-5.76,3.07-17.2,10.38-20.9,13.16Z"/>
      <path class="cls-1" d="M460.62,192.67c-4.24-.61-2.97-.41-4.93-.67-1.96-.26-2.53-.38-3.41-.45-4.46-.39-8.38-.96-12.5-1-16.4-.15-32.42,.9-48.41,4.02-7.98,1.56-15.13,4.44-22.73,6.99-1.88,.63-3.54,1.48-5.39,2.24-.72,.29-1.8,.84-2.5,1.16-.7,.32-2.38,1.1-2.75,1.31-4.66,2.5-9.58,5.11-13.61,7.93-7.02,4.91-12.81,9.93-18.63,16.02-3.04,3.17-5.11,6.7-8.17,10.13-.42,.47-5.61,6.45-3.88,6.82,9.93,2.12,22.92,.62,32.29,.13,9.36-.48,18.74-2.09,26.3-3.06,5.12-.66,9.65-1.58,12.47-2.14,5.7-1.13,12.67-3.85,15.82-4.83,3.15-.99,7.6-2.58,4.66-3.43-2.94-.85-7.76,.78-11.87,.85-1.87,.03-7.17,.58-9.59,.7-2.42,.12-4.54,.33-6.94,.44-2.4,.11-5.17,.33-7.59,.31-9.82-.11-19.13-1.11-28.62-3.64-.12-.03-.26-.11-.36-.15-.09-.04-.17,.01-.22-.06-.06-.07-.17,.05-.04-.11,.13-.16-.05,.02,.25-.27,.3-.29,.46-.48,1.06-1.04,.6-.56,1.23-1.18,2.28-2.07,1.04-.89,2.84-2.56,4.26-3.58,2.87-2.07,5.93-4.31,9.06-6.05,3.12-1.75,5.85-3.22,9.24-4.62,6.19-2.57,11.89-4.98,18.65-6.92,6.75-1.94,13.72-3.65,21.15-4.76,7.43-1.11,15.69-1.68,23.55-1.91,3.96-.11,8.54,.14,12.68,.3,2.08,.08,4.42,.31,6.58,.49,.82,.07,2.35,.24,3.07,.31,.71,.07,1.29,.11,1.76,.18,4.39,.58,8.46,1.42,12.73,2.37-2.19,2.18-3.6,3.74-6.1,5.9-1.24,1.07-1.84,1.72-4.01,3.35-1.29,.97-3.71,2.92-6.36,4.58-11.21,7.07-23.72,14.1-36.4,19.46-3.2,1.35-6.89,2.55-10.48,3.63-3.58,1.09-7.29,2.22-11.16,3.15-7.77,1.87-15.43,3.75-23.54,5.01-13.29,2.05-27.1,3.35-40.61,4.28-4.23,.29-8.59,.46-12.77,.72-4.18,.26-8.14,.45-12.28,.27-3.86-8.51-7.73-17.01-11.76-25.43-3.07,7.27-6.33,14.54-8.81,21.99-.11,.32,.08,.59-.12,.68-.2,.09-.3-.64-.38-.79-1.26-2.21-2.67-4.58-4.02-6.69-.67-1.05-1.55-2.34-2.11-3.15-.56-.82-.75-1.09-1.21-1.7-.46-.61-.94-1.37-1.35-1.86-4.87-5.84-8.93-11.58-14.42-16.96-10.95-10.74-22.9-21.44-35.73-29.73-12.83-8.29-25.2-13.8-39.54-19.12-7.18-2.67-16.03-4.24-23.87-6.03-.74-.17-1.99-.33-3.09-.51-1.09-.18-2.67-.43-4.03-.6-2.7-.35-5.65-.73-8.43-.96-5.57-.47-11.17-.84-16.76-1.15-.11,0-.12,.25-.18,.32-.06,.07-.06,.13-.08,.21-.02,.09-.07-.06-.03,.1,.03,.16-.04-.01,.07,.31,.11,.33,.28,.77,.48,1.34,.21,.57,.59,1.71,.85,2.39,.68,1.8,1.26,3.42,2.01,5.22,1.47,3.55,3.08,7.04,4.91,10.5,.92,1.75,2.01,3.56,3.07,5.33,.37,.62,1.04,1.69,1.42,2.28,.37,.59,.89,1.39,1.19,1.82,1.56,2.3,3.41,5.04,5.02,7.06,6.49,8.16,14.93,17.19,22.21,23.58,9.5,8.33,17.58,13.71,27.75,20.18-1.39-.12-2.06-.45-3.41-.42-15.86,.38-27.63,.63-44.34,2.66-13.48,1.64-26.9,3.91-40.17,6.84-13.31,2.93-26.47,6.53-39.44,10.76-13.1,4.28-26,9.22-38.64,14.77-6.1,2.68-12.11,5.57-18.13,8.41-3.55,1.68-7.51,3.27-10.63,5.72-.27,.21-1.04,.7-.94,1.14,.24,1.13,4.32-1.13,4.87-1.4,12.48-6.13,25.88-9.85,39.14-13.76,13.36-3.94,26.84-7.44,40.44-10.43,13.6-3,27.31-5.5,41.09-7.48,8.3-1.19,16.62-2.19,24.96-3.01,6.88-.67,13.21-.83,19.98-1.12,14.03-.6,27.92-1.22,41.94-.13,11.95,.93,23.86,3.43,35.55,5.65,1.12,.22,2.4,.59,3.1,.77,.71,.17-.71-.06-.42-.2,.28-.13,.34,.07,.59,.16-41.53-20.98-74.53-46.22-102.44-84.25,54.02,10.93,90.97,38.01,127.88,79.05,.49,.55,1.24,2.01,1.85,2.97,.61,.95,1.51,2.49,2.21,3.6,.7,1.11,1.42,2.36,2.48,3.21,.83-1.67,1.4-3.4,2.05-5.16,.65-1.76,1.3-3.51,1.94-5.29,1.28-3.55,2.5-7.02,3.86-10.64,.09-.25,.67-1.13,.57-1.56,2.29,4.54,4.44,8.96,6.74,13.59,.51,1.03,1.29,2.57,1.8,3.7,31.75,1.27,61.67-1.91,93.35-7.3,2.15-.37,7.27-1.47,10.15-2.17,1.72-.42,4.46-1.16,6.3-1.69,.11-.03,.26-.07,.36-.1,13.27-4.38,25.73-9.37,38.25-15.94,3.71-1.95,7.21-4.23,11.26-6.76,.75-.47,.94-.57,3.17-2.1,2.23-1.54,5.56-4.06,9.56-6.89,8.02-5.68,19.72-12.62,27.74-19.45-12.13-2.98-28.52-5.04-39.75-6.65Z"/>
    </g>
  </g>
  <g>
    <path class="cls-2" d="M198.01,347.92c0-5.93,3.59-11.4,11.78-11.4,5.3,0,9.33,1.57,9.33,1.57v15.66h12.09v-16.65h5.88v16.65h9.95v-16.65h5.88v21.39h-42.97c-8.68,0-11.93-4.1-11.92-10.58Zm5.86-.53c0,4.15,2.01,6.37,6.68,6.37h2.85v-11.71s-1.69-.8-4.24-.8c-3.32,0-5.29,2.59-5.29,6.15Z"/>
    <path class="cls-2" d="M212.92,333.61c1.66,0,2.92-1.37,2.92-3.07s-1.26-3.09-2.92-3.09-2.94,1.41-2.94,3.09c0,1.73,1.27,3.07,2.94,3.07Z"/>
    <path class="cls-2" d="M205.52,333.61c1.69,0,2.99-1.37,2.99-3.07s-1.3-3.09-2.99-3.09-2.93,1.41-2.93,3.09,1.28,3.07,2.93,3.07Z"/>
    <path class="cls-2" d="M223.65,365.33c0,1.76,1.3,3.1,2.94,3.1,1.73,0,3.01-1.4,3.01-3.1s-1.28-3.06-3.01-3.06c-1.64,0-2.94,1.39-2.94,3.06Z"/>
    <path class="cls-2" d="M234,362.26c-1.63,0-2.94,1.39-2.94,3.06,0,1.76,1.32,3.1,2.94,3.1s2.94-1.4,2.94-3.1c0-1.72-1.28-3.06-2.94-3.06Z"/>
    <path class="cls-2" d="M243.59,365.33c0,1.8,1.36,3.14,3.07,3.14s3.05-1.38,3.05-3.14-1.36-3.12-3.05-3.12-3.07,1.4-3.07,3.12Z"/>
    <path class="cls-2" d="M251.1,364.83c1.02,.32,2.19,.54,3.62,.54,3.01,0,4.79-1.43,4.79-6.37v-21.9h5.87v16.65h5.29c4.24,0,7.67-.51,10.38-1.4-2.87-2.72-5.48-5.55-9.38-6.65l.5-4.3c3.54-2.57,8.47-5.02,12.9-5.02,6.62,0,9.38,3.5,9.38,7.45,0,3.05-1.54,6.19-4.55,8.73,1.45,.76,3.08,1.19,4.95,1.19h7.81v-27.36h5.89v32.1h-14.34c-3.89,0-6.8-1.18-9.2-2.82-3.78,1.74-8.71,2.82-14.69,2.82h-4.94v.19c0,5.83-1.93,11.36-11.01,11.36-1.41,0-2.63-.17-3.74-.43l.47-4.78Zm34.8-15.01c1.86-1.52,2.76-3.35,2.76-5.19,0-2.15-1.41-3.86-4.24-3.86-2.43,0-5.19,1.67-6.79,2.77,3.07,1.24,5.52,3.93,8.26,6.28Z"/>
    <rect class="cls-2" x="316.12" y="326.4" width="5.91" height="32.1"/>
    <path class="cls-2" d="M14.95,333.61c1.64,0,2.94-1.37,2.94-3.07s-1.3-3.09-2.94-3.09-2.94,1.41-2.94,3.09c0,1.73,1.3,3.07,2.94,3.07Z"/>
    <path class="cls-2" d="M.02,347.92c0-5.93,3.64-11.4,11.83-11.4,5.26,0,9.29,1.57,9.29,1.57v15.66h12.09v-16.65h5.86v21.39H11.97C3.27,358.49,.01,354.4,.02,347.92Zm5.86-.53c0,4.15,2.03,6.37,6.74,6.37h2.83v-11.71s-1.69-.8-4.22-.8c-3.38,0-5.34,2.59-5.34,6.15Z"/>
    <path class="cls-2" d="M7.57,333.61c1.68,0,2.96-1.37,2.96-3.07s-1.28-3.09-2.96-3.09-2.95,1.41-2.95,3.09,1.26,3.07,2.95,3.07Z"/>
    <path class="cls-2" d="M33.07,365.33c0,1.76,1.28,3.1,2.97,3.1s2.94-1.4,2.94-3.1-1.31-3.06-2.94-3.06c-1.69,0-2.97,1.39-2.97,3.06Z"/>
    <path class="cls-2" d="M25.69,365.33c0,1.76,1.29,3.1,2.95,3.1s2.97-1.4,2.97-3.1-1.27-3.06-2.97-3.06c-1.66,0-2.95,1.39-2.95,3.06Z"/>
    <path class="cls-2" d="M63.44,355.51c0-11.3-5.18-16.9-14.84-19.5l-1.42,5c6.99,1.84,10.23,6.02,10.51,12.74h-13.25v4.74h19v-2.98h0Z"/>
    <path class="cls-2" d="M121.53,358.5h-4.34c-3.84,0-6.74-1.18-9.16-2.82-3.77,1.74-8.75,2.82-14.68,2.82h-4.91v.12c0,6.25-3.99,11.36-13.94,11.36-3.37,0-6.81-.61-6.81-.61l.36-4.9s3.49,.79,6.95,.79c4.65,0,7.71-1.78,7.71-6.09v-.68h-3.46c-8.7,0-11.94-4.1-11.94-10.57,0-5.93,3.6-11.4,11.79-11.4,5.29,0,9.34,1.57,9.34,1.57v15.66h5.24c4.24,0,7.67-.51,10.39-1.4-2.85-2.72-5.49-5.55-9.35-6.65l.48-4.3c3.52-2.57,8.46-5.02,12.88-5.02,6.63,0,9.41,3.5,9.41,7.45,0,3.05-1.58,6.19-4.56,8.73,1.47,.76,3.08,1.19,4.93,1.19h3.71c2.91,0,4.01-1.19,4.01-5.7v-8.21h5.9v9.04c0,3.37,.76,5.26,3.38,5.26s3.29-1.96,3.29-5.25v-10.86h5.58v10.68c0,3.77,1.02,5.05,4.94,5.05h1.53c.2-1.8,.32-4.05,.32-5.45,0-4.55-.52-8.74-1.3-12.21l5.79-.82c.83,3.64,1.41,8.11,1.41,12.62,0,1.81-.08,3.85-.21,5.86h9.18v-27.36h5.92v32.1h-23.86c-3.88,0-6.22-.93-7.22-3.34-1.09,2.55-3.67,3.75-6.44,3.75-3.26,0-5.58-1.41-6.36-3.75-.79,2.16-2.62,3.34-5.92,3.34Zm-38.81-16.45s-1.68-.8-4.23-.8c-3.34,0-5.29,2.59-5.29,6.15,0,4.15,1.99,6.37,6.68,6.37h2.84v-11.71Zm28.93,2.59c0-2.15-1.36-3.86-4.24-3.86-2.43,0-5.17,1.67-6.75,2.77,3.09,1.24,5.49,3.93,8.22,6.28,1.89-1.52,2.76-3.35,2.77-5.19Z"/>
    <rect class="cls-2" x="178.88" y="326.4" width="5.87" height="32.1"/>
    <path class="cls-2" d="M365.88,358.49h-12.88c-8.66,0-11.93-4.1-11.93-10.57,0-5.93,3.61-11.4,11.81-11.4,5.22,0,9.29,1.57,9.29,1.57v15.66h12.11v-16.65h5.88v16.65h5.23c4.23,0,7.67-.51,10.41-1.4-2.87-2.72-5.51-5.55-9.39-6.65l.51-4.3c3.52-2.57,8.46-5.02,12.91-5.02,6.61,0,9.36,3.5,9.36,7.45,0,3.05-1.54,6.19-4.54,8.73,1.47,.76,3.08,1.19,4.97,1.19h3.15c2.12,0,3.34-1.3,3.34-5.45,0-6.53,3.9-11.78,11.39-11.78s10.28,4.18,10.28,10.81v6.42h20.31c.12-1.09,.23-2.33,.23-3.44,0-5.8-2.29-8.76-8.75-8.76-1.83,0-3.48,.15-5.11,.38v-4.68c1.75-.22,3.78-.41,5.7-.41,10.01,0,13.99,4.52,13.99,13.23,0,1.1-.03,2.4-.17,3.69h18.83v-27.36h5.86v32.1h-61.07c-5.26,0-7.84-1.3-9.16-3.5-1.13,2.34-3.23,3.5-5.89,3.5h-3.61c-3.88,0-6.77-1.18-9.17-2.82-3.8,1.74-8.74,2.82-14.73,2.82h-19.15Zm56.01-10.74c0,4,1.7,6,6.28,6h3.83v-5.72c0-4.8-1.68-6.8-4.93-6.8s-5.18,2.63-5.18,6.51Zm-21.3,2.07c1.88-1.52,2.8-3.35,2.8-5.19,0-2.15-1.4-3.86-4.28-3.86-2.39,0-5.14,1.67-6.76,2.77,3.07,1.24,5.53,3.93,8.24,6.28Zm-46.97,3.93h2.87v-11.71s-1.7-.8-4.25-.8c-3.33,0-5.28,2.59-5.28,6.15,0,4.15,2,6.37,6.66,6.37Z"/>
    <path class="cls-2" d="M355.99,333.61c1.67,0,2.93-1.37,2.93-3.07s-1.26-3.09-2.93-3.09-2.94,1.41-2.94,3.09c0,1.73,1.28,3.07,2.94,3.07Z"/>
    <path class="cls-2" d="M348.61,333.61c1.68,0,2.96-1.37,2.96-3.07s-1.27-3.09-2.96-3.09-2.96,1.41-2.96,3.09,1.31,3.07,2.96,3.07Z"/>
    <path class="cls-2" d="M374.14,365.33c0,1.76,1.31,3.1,2.94,3.1s2.92-1.4,2.92-3.1-1.27-3.06-2.92-3.06c-1.63,0-2.94,1.39-2.94,3.06Z"/>
    <path class="cls-2" d="M366.71,365.33c0,1.76,1.32,3.1,2.96,3.1s3.01-1.4,3.01-3.1-1.31-3.06-3.01-3.06c-1.64,0-2.96,1.39-2.96,3.06Z"/>
    <path class="cls-2" d="M451.41,368.47c1.67,0,3.06-1.38,3.06-3.14s-1.38-3.12-3.06-3.12-3.07,1.4-3.07,3.12c0,1.79,1.36,3.14,3.07,3.14Z"/>
    <rect class="cls-2" x="491.7" y="326.4" width="5.88" height="32.1"/>
    <path class="cls-2" d="M12.55,407.07c0,2.4,1.88,4.26,4.18,4.26s4.19-1.92,4.19-4.26-1.88-4.27-4.19-4.27c-2.29,0-4.18,1.91-4.18,4.27Z"/>
    <path class="cls-2" d="M25.81,428.74c0,8.91-3.22,11.76-8.47,11.76-4.23,0-8.58-2.47-8.58-11.95,0-3.75,.61-7.88,1.69-11.84l-8.23,1.55c-.97,3.58-1.46,7.47-1.46,11.09,0,12.33,6.31,17.52,15.97,17.52,11.57,0,17.06-6.22,17.06-18.62v-24.65h-7.98v25.15h0Z"/>
    <path class="cls-2" d="M89.06,394.13c0,2.43,1.87,4.26,4.16,4.26s4.19-1.92,4.19-4.26-1.89-4.24-4.19-4.24c-2.3,0-4.16,1.92-4.16,4.24Z"/>
    <path class="cls-2" d="M149.01,393.9c0,2.41,1.84,4.29,4.15,4.29s4.18-1.93,4.18-4.29-1.88-4.25-4.18-4.25-4.15,1.93-4.15,4.25Z"/>
    <path class="cls-2" d="M178.66,426.21v-37.14h7.99v43.58H69.21v.12c0,8.51-5.35,15.44-18.91,15.44-4.55,0-9.19-.78-9.19-.78l.48-6.67s4.71,1.03,9.45,1.03c6.26,0,10.46-2.42,10.46-8.22v-.92h-4.74c-11.81,0-16.21-5.57-16.21-14.37,0-8.07,4.89-15.49,16.03-15.49,7.15,0,12.62,2.14,12.62,2.14v21.28h20.01v-22.62h8.02v22.62h40.2c1.87,0,3.67,.31,3.67,.31-1.81-1.89-2.79-4.81-2.79-8.32,0-8.91,6.24-15.41,15.39-15.41,8.57,0,14.07,4.58,14.07,14.43,0,3.58-1.21,7.32-3.49,9.3,0,0,2.53-.31,4.59-.31h9.78Zm-117.16-15.85s-2.31-1.14-5.73-1.14c-4.55,0-7.24,3.52-7.24,8.35,0,5.61,2.74,8.64,9.08,8.64h3.89v-15.85Zm98.27,7.29c0-5.46-2.07-8.42-6.61-8.42-3.45,0-6.85,2.47-6.85,8.31s2.26,8.68,6.71,8.68c3.83,0,6.75-2.82,6.75-8.57Z"/>
    <rect class="cls-2" x="196.93" y="389.07" width="8" height="43.58"/>
    <path class="cls-2" d="M228.38,402.8c7.14,0,12.63,2.14,12.63,2.14v27.84c0,8.51-5.38,15.44-18.91,15.44-4.54,0-9.21-.78-9.21-.78l.49-6.67s4.71,1.03,9.43,1.03c6.3,0,10.46-2.42,10.46-8.22v-.92h-4.69c-11.81,0-16.23-5.57-16.23-14.37,0-8.07,4.92-15.49,16.03-15.49Zm4.89,7.56s-2.29-1.14-5.73-1.14c-4.56,0-7.2,3.52-7.2,8.35,0,5.61,2.73,8.64,9.08,8.64h3.85v-15.85Z"/>
    <path class="cls-2" d="M268.79,394.7c0,2.35,1.72,4.2,3.97,4.2s4.06-1.93,4.06-4.2-1.76-4.2-4.06-4.2-3.97,1.93-3.97,4.2Z"/>
    <path class="cls-2" d="M278.82,394.7c0,2.35,1.75,4.2,4,4.2s3.95-1.93,3.95-4.2-1.75-4.2-3.95-4.2-4,1.93-4,4.2Z"/>
    <path class="cls-2" d="M335.59,417.03v15.62h-56.81c-11.83,0-16.23-5.57-16.23-14.37,0-8.07,4.89-15.49,16.03-15.49,7.13,0,12.62,2.14,12.62,2.14v21.28h14.98c2.17,0,3.42,.45,3.42,.45-2.23-1.68-3.42-4.45-3.42-8.85,0-7.85,5.22-15.02,15.74-15.02,9.43,0,13.67,5.59,13.67,14.24Zm-52.12,9.18v-15.85s-2.29-1.14-5.77-1.14c-4.5,0-7.19,3.52-7.19,8.35,0,5.61,2.72,8.64,9.09,8.64h3.87Zm44.31,0v-8.19c0-6.18-2.41-8.8-6.47-8.8-4.54,0-7.19,3.52-7.19,8.35,0,5.82,2.76,8.64,9.07,8.64h4.59Z"/>
    <path class="cls-2" d="M321.14,398.19c2.29,0,4.19-1.93,4.19-4.29s-1.9-4.25-4.19-4.25-4.17,1.93-4.17,4.25,1.86,4.29,4.17,4.29Z"/>
    <path class="cls-2" d="M406.52,394.7c0,2.35,1.76,4.2,3.99,4.2s4.07-1.93,4.07-4.2-1.75-4.2-4.07-4.2-3.99,1.93-3.99,4.2Z"/>
    <path class="cls-2" d="M416.54,394.7c0,2.35,1.78,4.2,4.01,4.2s4-1.93,4-4.2-1.75-4.2-4-4.2-4.01,1.93-4.01,4.2Z"/>
    <path class="cls-2" d="M455.01,386.25c0-2.16-1.63-3.91-3.75-3.91s-3.68,1.75-3.68,3.91,1.63,3.87,3.68,3.87c2.13,0,3.75-1.71,3.75-3.87Z"/>
    <path class="cls-2" d="M456.34,398.9c2.25,0,3.99-1.93,3.99-4.2s-1.74-4.2-3.99-4.2-4.05,1.93-4.05,4.2,1.76,4.2,4.05,4.2Z"/>
    <path class="cls-2" d="M442.32,394.7c0,2.35,1.77,4.2,3.97,4.2s4.01-1.93,4.01-4.2-1.76-4.2-4.01-4.2-3.97,1.93-3.97,4.2Z"/>
    <path class="cls-2" d="M497.59,389.07v43.58h-152.69v-43.58h7.98v37.14h46.88c1.86,0,3.67,.31,3.67,.31-1.81-1.89-2.78-4.81-2.78-8.32,0-8.91,6.22-15.41,15.35-15.41,8.6,0,14.12,4.58,14.12,14.43,0,3.58-1.22,7.32-3.54,9.3,0,0,2.54-.31,4.61-.31h17.3v-22.62h7.99v22.62h12.51v-37.14h7.99v37.14h12.62v-37.14h7.99Zm-75.52,28.57c0-5.46-2.05-8.42-6.59-8.42-3.44,0-6.84,2.47-6.84,8.31s2.25,8.68,6.71,8.68c3.83,0,6.72-2.82,6.72-8.57Z"/>
  </g>
</svg>