<svg xmlns="http://www.w3.org/2000/svg" version="1.1" xmlns:xlink="http://www.w3.org/1999/xlink" width="512" height="512" x="0" y="0" viewBox="0 0 682.667 682.667" style="enable-background:new 0 0 512 512" xml:space="preserve"><g><defs><clipPath id="a" clipPathUnits="userSpaceOnUse"><path d="M0 512h512V0H0Z" fill="#da9c28" opacity="1" data-original="#000000"></path></clipPath></defs><g clip-path="url(#a)" transform="matrix(1.33333 0 0 -1.33333 0 682.667)"><path d="M0 0v59.467c0 12.15 9.85 22 22 22v0c12.15 0 22-9.85 22-22v-74.878" style="stroke-linecap: round; stroke-linejoin: round; stroke-miterlimit: 10; stroke-dasharray: none; stroke-opacity: 1;" transform="translate(458 291.048)" fill="none" stroke="#DA9C28" stroke-width="20px" stroke-linecap="round" stroke-linejoin="round" stroke-miterlimit="10" stroke-dasharray="none" stroke-opacity="" data-original="#000000" opacity="1"></path><path d="M0 0v108.999c0 12.15 9.85 22 22 22v0c12.15 0 22-9.85 22-22V0" style="stroke-linecap: round; stroke-linejoin: round; stroke-miterlimit: 10; stroke-dasharray: none; stroke-opacity: 1;" transform="translate(414.04 291.048)" fill="none" stroke="#DA9C28" stroke-width="20px" stroke-linecap="round" stroke-linejoin="round" stroke-miterlimit="10" stroke-dasharray="none" stroke-opacity="" data-original="#000000" opacity="1"></path><path d="M0 0v111.839c0 12.15 9.85 22 22 22v0c12.15 0 22-9.85 22-22V13.781" style="stroke-linecap: round; stroke-linejoin: round; stroke-miterlimit: 10; stroke-dasharray: none; stroke-opacity: 1;" transform="translate(326.04 288.208)" fill="none" stroke="#DA9C28" stroke-width="20px" stroke-linecap="round" stroke-linejoin="round" stroke-miterlimit="10" stroke-dasharray="none" stroke-opacity="" data-original="#000000" opacity="1"></path><path d="M0 0v98.846c0 12.15 9.85 22 22 22v0c12.15 0 22-9.85 22-22V0" style="stroke-linecap: round; stroke-linejoin: round; stroke-miterlimit: 10; stroke-dasharray: none; stroke-opacity: 1;" transform="translate(370.04 334.785)" fill="none" stroke="#DA9C28" stroke-width="20px" stroke-linecap="round" stroke-linejoin="round" stroke-miterlimit="10" stroke-dasharray="none" stroke-opacity="" data-original="#000000" opacity="1"></path><path d="M0 0v-106.451" style="stroke-linecap: round; stroke-linejoin: round; stroke-miterlimit: 10; stroke-dasharray: none; stroke-opacity: 1;" transform="translate(454.83 116.451)" fill="none" stroke="#DA9C28" stroke-width="20px" stroke-linecap="round" stroke-linejoin="round" stroke-miterlimit="10" stroke-dasharray="none" stroke-opacity="" data-original="#000000" opacity="1"></path><path d="M0 0v-23.85a108.06 108.06 0 0 0-17.131-58.386" style="stroke-linecap: round; stroke-linejoin: round; stroke-miterlimit: 10; stroke-dasharray: none; stroke-opacity: 1;" transform="translate(502 277.188)" fill="none" stroke="#DA9C28" stroke-width="20px" stroke-linecap="round" stroke-linejoin="round" stroke-miterlimit="10" stroke-dasharray="none" stroke-opacity="" data-original="#000000" opacity="1"></path><path d="M0 0v24.369c0 12.15 9.85 22 22 22v0c12.15 0 22-9.85 22-22v-57.551" style="stroke-linecap: round; stroke-linejoin: round; stroke-miterlimit: 10; stroke-dasharray: none; stroke-opacity: 1;" transform="translate(198.768 372.515)" fill="none" stroke="#DA9C28" stroke-width="20px" stroke-linecap="round" stroke-linejoin="round" stroke-miterlimit="10" stroke-dasharray="none" stroke-opacity="" data-original="#000000" opacity="1"></path><path d="M0 0v108.999c0 12.15 9.85 22 22 22v0c12.15 0 22-9.85 22-22V12.791" style="stroke-linecap: round; stroke-linejoin: round; stroke-miterlimit: 10; stroke-dasharray: none; stroke-opacity: 1;" transform="translate(154.808 337.417)" fill="none" stroke="#DA9C28" stroke-width="20px" stroke-linecap="round" stroke-linejoin="round" stroke-miterlimit="10" stroke-dasharray="none" stroke-opacity="" data-original="#000000" opacity="1"></path><path d="M0 0v92.728c0 12.15 9.85 22 22 22v0c12.15 0 22-9.85 22-22V-16.271" style="stroke-linecap: round; stroke-linejoin: round; stroke-miterlimit: 10; stroke-dasharray: none; stroke-opacity: 1;" transform="translate(66.808 353.689)" fill="none" stroke="#DA9C28" stroke-width="20px" stroke-linecap="round" stroke-linejoin="round" stroke-miterlimit="10" stroke-dasharray="none" stroke-opacity="" data-original="#000000" opacity="1"></path><path d="M0 0v98.846c0 12.15 9.85 22 22 22v0c12.15 0 22-9.85 22-22V0" style="stroke-linecap: round; stroke-linejoin: round; stroke-miterlimit: 10; stroke-dasharray: none; stroke-opacity: 1;" transform="translate(110.808 381.154)" fill="none" stroke="#DA9C28" stroke-width="20px" stroke-linecap="round" stroke-linejoin="round" stroke-miterlimit="10" stroke-dasharray="none" stroke-opacity="" data-original="#000000" opacity="1"></path><path d="M0 0v-82.964c0-2.703-3.865-3.17-4.508-.545l-7.864 32.077c-2.827 11.53-14.113 18.891-25.805 16.83v0c-12.434-2.193-20.642-14.17-18.199-26.558l11.548-58.558a108.062 108.062 0 0 1 29.717-55.614l23.842-23.774V-396.68" style="stroke-linecap: round; stroke-linejoin: round; stroke-miterlimit: 10; stroke-dasharray: none; stroke-opacity: 1;" transform="translate(66.806 406.68)" fill="none" stroke="#DA9C28" stroke-width="20px" stroke-linecap="round" stroke-linejoin="round" stroke-miterlimit="10" stroke-dasharray="none" stroke-opacity="" data-original="#000000" opacity="1"></path><path d="M0 0v59.467c0 12.15 9.85 22 22 22v0c12.15 0 22-9.85 22-22v-74.878" style="stroke-linecap: round; stroke-linejoin: round; stroke-miterlimit: 10; stroke-dasharray: none; stroke-opacity: 1;" transform="translate(325.995 179.21)" fill="none" stroke="#DA9C28" stroke-width="20px" stroke-linecap="round" stroke-linejoin="round" stroke-miterlimit="10" stroke-dasharray="none" stroke-opacity="" data-original="#000000" opacity="1"></path><path d="M0 0v108.999c0 12.15 9.85 22 22 22v0c12.15 0 22-9.85 22-22V0" style="stroke-linecap: round; stroke-linejoin: round; stroke-miterlimit: 10; stroke-dasharray: none; stroke-opacity: 1;" transform="translate(282.035 179.21)" fill="none" stroke="#DA9C28" stroke-width="20px" stroke-linecap="round" stroke-linejoin="round" stroke-miterlimit="10" stroke-dasharray="none" stroke-opacity="" data-original="#000000" opacity="1"></path><path d="M0 0v92.728c0 12.15 9.85 22 22 22v0c12.15 0 22-9.85 22-22V-16.271" style="stroke-linecap: round; stroke-linejoin: round; stroke-miterlimit: 10; stroke-dasharray: none; stroke-opacity: 1;" transform="translate(194.035 195.48)" fill="none" stroke="#DA9C28" stroke-width="20px" stroke-linecap="round" stroke-linejoin="round" stroke-miterlimit="10" stroke-dasharray="none" stroke-opacity="" data-original="#000000" opacity="1"></path><path d="M0 0v98.846c0 12.15 9.85 22 22 22v0c12.15 0 22-9.85 22-22V0" style="stroke-linecap: round; stroke-linejoin: round; stroke-miterlimit: 10; stroke-dasharray: none; stroke-opacity: 1;" transform="translate(238.035 222.946)" fill="none" stroke="#DA9C28" stroke-width="20px" stroke-linecap="round" stroke-linejoin="round" stroke-miterlimit="10" stroke-dasharray="none" stroke-opacity="" data-original="#000000" opacity="1"></path><path d="M0 0v-82.964c0-2.703-3.865-3.17-4.508-.545l-7.864 32.077c-2.827 11.53-14.113 18.891-25.805 16.83v0c-12.434-2.193-20.642-14.17-18.199-26.558l11.548-58.558a108.062 108.062 0 0 1 29.717-55.614l23.842-23.774v-39.366" style="stroke-linecap: round; stroke-linejoin: round; stroke-miterlimit: 10; stroke-dasharray: none; stroke-opacity: 1;" transform="translate(194.033 248.472)" fill="none" stroke="#DA9C28" stroke-width="20px" stroke-linecap="round" stroke-linejoin="round" stroke-miterlimit="10" stroke-dasharray="none" stroke-opacity="" data-original="#000000" opacity="1"></path><path d="M0 0v-23.85a108.067 108.067 0 0 0-31.76-76.521l-15.41-15.366v-39.612" style="stroke-linecap: round; stroke-linejoin: round; stroke-miterlimit: 10; stroke-dasharray: none; stroke-opacity: 1;" transform="translate(369.995 165.349)" fill="none" stroke="#DA9C28" stroke-width="20px" stroke-linecap="round" stroke-linejoin="round" stroke-miterlimit="10" stroke-dasharray="none" stroke-opacity="" data-original="#000000" opacity="1"></path><path d="M0 0v0" style="stroke-linecap: round; stroke-linejoin: round; stroke-miterlimit: 10; stroke-dasharray: none; stroke-opacity: 1;" transform="translate(454.83 161.451)" fill="none" stroke="#DA9C28" stroke-width="20px" stroke-linecap="round" stroke-linejoin="round" stroke-miterlimit="10" stroke-dasharray="none" stroke-opacity="" data-original="#000000" opacity="1"></path></g></g></svg>