<svg xmlns="http://www.w3.org/2000/svg" version="1.1" xmlns:xlink="http://www.w3.org/1999/xlink" width="512" height="512" x="0" y="0" viewBox="0 0 52 52" style="enable-background:new 0 0 512 512" xml:space="preserve" class=""><g><path d="M26.006 32.998c7.308 0 13.253-5.945 13.253-13.253 0-7.314-5.945-13.265-13.253-13.265-7.314 0-13.265 5.95-13.265 13.265 0 7.308 5.951 13.253 13.265 13.253zm0-24.518c6.205 0 11.253 5.053 11.253 11.265 0 6.205-5.048 11.253-11.253 11.253-6.211 0-11.265-5.048-11.265-11.253 0-6.212 5.054-11.265 11.265-11.265z" fill="#DA9C28" opacity="1" data-original="#000000"></path><path d="m17.696 18.264 3.427 3.34-.81 4.716a1.001 1.001 0 0 0 1.452 1.054L26 25.147l4.235 2.227a1 1 0 0 0 1.451-1.054l-.809-4.716 3.427-3.34a1 1 0 0 0-.554-1.706l-4.736-.688-2.118-4.29c-.337-.684-1.456-.682-1.793 0l-2.117 4.29-4.736.688a1 1 0 0 0-.554 1.706zm6.097-.49a.999.999 0 0 0 .753-.547L26 14.282l1.454 2.945a1 1 0 0 0 .752.547l3.25.472-2.351 2.293c-.236.23-.343.56-.288.885l.555 3.237-2.907-1.529a1 1 0 0 0-.93 0l-2.907 1.529.555-3.237a1.001 1.001 0 0 0-.288-.885l-2.352-2.293z" fill="#DA9C28" opacity="1" data-original="#000000"></path><path d="M13.34 32.15 7.006 43.739a.999.999 0 0 0 1.062 1.463l5.537-1.037 2.122 5.213a1 1 0 0 0 1.804.102l6.615-12.1.01.001c.613.064 2.277.152 3.695.005l6.618 12.095a.999.999 0 0 0 1.804-.103l2.122-5.213 5.537 1.037a.999.999 0 0 0 1.062-1.462L38.66 32.151c3.09-3.138 5.078-7.64 5.078-12.407C43.739 9.96 35.784 2 26.006 2 16.22 2 8.26 9.96 8.26 19.745c0 4.856 2.035 9.307 5.079 12.406zm3.446 14.523-1.637-4.02a1 1 0 0 0-1.11-.606l-4.266.8 5.093-9.318a17.687 17.687 0 0 0 7.197 3.492zm25.441-3.826-4.266-.8a1.002 1.002 0 0 0-1.11.606l-1.637 4.021-5.28-9.65a17.67 17.67 0 0 0 7.202-3.493zM26.006 4c8.675 0 15.733 7.063 15.733 15.745 0 8.64-7.057 15.732-15.75 15.732-8.61-.009-15.728-7.057-15.728-15.732C10.261 11.063 17.324 4 26.006 4z" fill="#DA9C28" opacity="1" data-original="#000000"></path></g></svg>