<svg xmlns="http://www.w3.org/2000/svg" version="1.1" xmlns:xlink="http://www.w3.org/1999/xlink" width="512" height="512" x="0" y="0" viewBox="0 0 512 512" style="enable-background:new 0 0 512 512" xml:space="preserve"><g><path d="m141.657 122.343-11.314 11.314 16 16a8 8 0 0 0 11.314 0l40-40-11.314-11.314L152 132.687z" fill="#DA9C28" opacity="1" data-original="#000000"></path><path d="M184 136a31.968 31.968 0 1 1-19.2-29.341L171.2 92a48.007 48.007 0 1 0 28.8 44zM141.657 242.343l-11.314 11.314 16 16a8 8 0 0 0 11.314 0l40-40-11.314-11.314L152 252.687z" fill="#DA9C28" opacity="1" data-original="#000000"></path><path d="M184 256a31.968 31.968 0 1 1-19.2-29.341L171.2 212a48.007 48.007 0 1 0 28.8 44zM141.657 362.343l-11.314 11.314 16 16a8 8 0 0 0 11.314 0l40-40-11.314-11.314L152 372.687z" fill="#DA9C28" opacity="1" data-original="#000000"></path><path d="M104 376a48 48 0 0 0 96 0h-16a31.969 31.969 0 1 1-19.2-29.341L171.2 332a48.021 48.021 0 0 0-67.2 44z" fill="#DA9C28" opacity="1" data-original="#000000"></path><path d="M440 80h-24V56a8 8 0 0 0-8-8h-32v16h24v384H80V64h248V48h-16a16 16 0 0 1 32 0v48a8 8 0 0 1-16 0V80h-16v16a24 24 0 0 0 48 0V48a32 32 0 0 0-64 0H72a8 8 0 0 0-8 8v400a8 8 0 0 0 8 8h24v24a8 8 0 0 0 8 8h336a8 8 0 0 0 8-8V88a8 8 0 0 0-8-8zm-8 400H112v-16h296a8 8 0 0 0 8-8V96h16z" fill="#DA9C28" opacity="1" data-original="#000000"></path><path d="M208 168h144v16H208zM224 136h152v16H224zM208 288h144v16H208zM224 256h152v16H224zM224 224h152v16H224zM208 400h144v16H208zM224 368h152v16H224zM224 336h152v16H224z" fill="#DA9C28" opacity="1" data-original="#000000"></path></g></svg>